G04 #@! TF.FileFunction,Legend,Top*
%FSLAX46Y46*%
G04 Gerber Fmt 4.6, Leading zero omitted, Abs format (unit mm)*
G04 Created by KiCad (PCBNEW 4.0.4-stable) date Sunday, April 30, 2017 'PMt' 09:58:20 PM*
%MOMM*%
%LPD*%
G01*
G04 APERTURE LIST*
%ADD10C,0.100000*%
%ADD11C,0.150000*%
%ADD12C,0.190500*%
%ADD13C,0.127000*%
%ADD14C,0.203200*%
G04 APERTURE END LIST*
D10*
D11*
X156464000Y-62484000D02*
X159766000Y-62484000D01*
D12*
X130592286Y-94388214D02*
X130519714Y-94351929D01*
X130483429Y-94315643D01*
X130447143Y-94243071D01*
X130447143Y-94025357D01*
X130483429Y-93952786D01*
X130519714Y-93916500D01*
X130592286Y-93880214D01*
X130701143Y-93880214D01*
X130773714Y-93916500D01*
X130810000Y-93952786D01*
X130846286Y-94025357D01*
X130846286Y-94243071D01*
X130810000Y-94315643D01*
X130773714Y-94351929D01*
X130701143Y-94388214D01*
X130592286Y-94388214D01*
X131100286Y-93880214D02*
X131281715Y-94388214D01*
X131463143Y-93880214D01*
X131753429Y-94388214D02*
X131753429Y-93880214D01*
X131753429Y-94025357D02*
X131789714Y-93952786D01*
X131826000Y-93916500D01*
X131898571Y-93880214D01*
X131971143Y-93880214D01*
X132479143Y-93989071D02*
X132588000Y-94025357D01*
X132624285Y-94061643D01*
X132660571Y-94134214D01*
X132660571Y-94243071D01*
X132624285Y-94315643D01*
X132588000Y-94351929D01*
X132515428Y-94388214D01*
X132225143Y-94388214D01*
X132225143Y-93626214D01*
X132479143Y-93626214D01*
X132551714Y-93662500D01*
X132588000Y-93698786D01*
X132624285Y-93771357D01*
X132624285Y-93843929D01*
X132588000Y-93916500D01*
X132551714Y-93952786D01*
X132479143Y-93989071D01*
X132225143Y-93989071D01*
X133277428Y-94351929D02*
X133204857Y-94388214D01*
X133059714Y-94388214D01*
X132987143Y-94351929D01*
X132950857Y-94279357D01*
X132950857Y-93989071D01*
X132987143Y-93916500D01*
X133059714Y-93880214D01*
X133204857Y-93880214D01*
X133277428Y-93916500D01*
X133313714Y-93989071D01*
X133313714Y-94061643D01*
X132950857Y-94134214D01*
X133966857Y-94388214D02*
X133966857Y-93989071D01*
X133930571Y-93916500D01*
X133858000Y-93880214D01*
X133712857Y-93880214D01*
X133640286Y-93916500D01*
X133966857Y-94351929D02*
X133894286Y-94388214D01*
X133712857Y-94388214D01*
X133640286Y-94351929D01*
X133604000Y-94279357D01*
X133604000Y-94206786D01*
X133640286Y-94134214D01*
X133712857Y-94097929D01*
X133894286Y-94097929D01*
X133966857Y-94061643D01*
X134656286Y-94351929D02*
X134583715Y-94388214D01*
X134438572Y-94388214D01*
X134366000Y-94351929D01*
X134329715Y-94315643D01*
X134293429Y-94243071D01*
X134293429Y-94025357D01*
X134329715Y-93952786D01*
X134366000Y-93916500D01*
X134438572Y-93880214D01*
X134583715Y-93880214D01*
X134656286Y-93916500D01*
X135091715Y-94388214D02*
X135019143Y-94351929D01*
X134982858Y-94315643D01*
X134946572Y-94243071D01*
X134946572Y-94025357D01*
X134982858Y-93952786D01*
X135019143Y-93916500D01*
X135091715Y-93880214D01*
X135200572Y-93880214D01*
X135273143Y-93916500D01*
X135309429Y-93952786D01*
X135345715Y-94025357D01*
X135345715Y-94243071D01*
X135309429Y-94315643D01*
X135273143Y-94351929D01*
X135200572Y-94388214D01*
X135091715Y-94388214D01*
X135672287Y-93880214D02*
X135672287Y-94388214D01*
X135672287Y-93952786D02*
X135708572Y-93916500D01*
X135781144Y-93880214D01*
X135890001Y-93880214D01*
X135962572Y-93916500D01*
X135998858Y-93989071D01*
X135998858Y-94388214D01*
X137341429Y-93662500D02*
X137268858Y-93626214D01*
X137160001Y-93626214D01*
X137051144Y-93662500D01*
X136978572Y-93735071D01*
X136942287Y-93807643D01*
X136906001Y-93952786D01*
X136906001Y-94061643D01*
X136942287Y-94206786D01*
X136978572Y-94279357D01*
X137051144Y-94351929D01*
X137160001Y-94388214D01*
X137232572Y-94388214D01*
X137341429Y-94351929D01*
X137377715Y-94315643D01*
X137377715Y-94061643D01*
X137232572Y-94061643D01*
X138030858Y-94388214D02*
X138030858Y-93989071D01*
X137994572Y-93916500D01*
X137922001Y-93880214D01*
X137776858Y-93880214D01*
X137704287Y-93916500D01*
X138030858Y-94351929D02*
X137958287Y-94388214D01*
X137776858Y-94388214D01*
X137704287Y-94351929D01*
X137668001Y-94279357D01*
X137668001Y-94206786D01*
X137704287Y-94134214D01*
X137776858Y-94097929D01*
X137958287Y-94097929D01*
X138030858Y-94061643D01*
X138284858Y-93880214D02*
X138575144Y-93880214D01*
X138393716Y-93626214D02*
X138393716Y-94279357D01*
X138430001Y-94351929D01*
X138502573Y-94388214D01*
X138575144Y-94388214D01*
X139119430Y-94351929D02*
X139046859Y-94388214D01*
X138901716Y-94388214D01*
X138829145Y-94351929D01*
X138792859Y-94279357D01*
X138792859Y-93989071D01*
X138829145Y-93916500D01*
X138901716Y-93880214D01*
X139046859Y-93880214D01*
X139119430Y-93916500D01*
X139155716Y-93989071D01*
X139155716Y-94061643D01*
X138792859Y-94134214D01*
X139409716Y-93880214D02*
X139554859Y-94388214D01*
X139700002Y-94025357D01*
X139845145Y-94388214D01*
X139990288Y-93880214D01*
X140607145Y-94388214D02*
X140607145Y-93989071D01*
X140570859Y-93916500D01*
X140498288Y-93880214D01*
X140353145Y-93880214D01*
X140280574Y-93916500D01*
X140607145Y-94351929D02*
X140534574Y-94388214D01*
X140353145Y-94388214D01*
X140280574Y-94351929D01*
X140244288Y-94279357D01*
X140244288Y-94206786D01*
X140280574Y-94134214D01*
X140353145Y-94097929D01*
X140534574Y-94097929D01*
X140607145Y-94061643D01*
X140897431Y-93880214D02*
X141078860Y-94388214D01*
X141260288Y-93880214D02*
X141078860Y-94388214D01*
X141006288Y-94569643D01*
X140970003Y-94605929D01*
X140897431Y-94642214D01*
X130737429Y-95322571D02*
X130846286Y-95358857D01*
X130882571Y-95395143D01*
X130918857Y-95467714D01*
X130918857Y-95576571D01*
X130882571Y-95649143D01*
X130846286Y-95685429D01*
X130773714Y-95721714D01*
X130483429Y-95721714D01*
X130483429Y-94959714D01*
X130737429Y-94959714D01*
X130810000Y-94996000D01*
X130846286Y-95032286D01*
X130882571Y-95104857D01*
X130882571Y-95177429D01*
X130846286Y-95250000D01*
X130810000Y-95286286D01*
X130737429Y-95322571D01*
X130483429Y-95322571D01*
X131136571Y-94959714D02*
X131572000Y-94959714D01*
X131354286Y-95721714D02*
X131354286Y-94959714D01*
X132188857Y-95721714D02*
X131826000Y-95721714D01*
X131826000Y-94959714D01*
X132442857Y-95322571D02*
X132696857Y-95322571D01*
X132805714Y-95721714D02*
X132442857Y-95721714D01*
X132442857Y-94959714D01*
X132805714Y-94959714D01*
X133712857Y-95322571D02*
X133966857Y-95322571D01*
X134075714Y-95721714D02*
X133712857Y-95721714D01*
X133712857Y-94959714D01*
X134075714Y-94959714D01*
X134329714Y-95721714D02*
X134728857Y-95213714D01*
X134329714Y-95213714D02*
X134728857Y-95721714D01*
X134910285Y-95213714D02*
X135200571Y-95213714D01*
X135019143Y-94959714D02*
X135019143Y-95612857D01*
X135055428Y-95685429D01*
X135128000Y-95721714D01*
X135200571Y-95721714D01*
X135744857Y-95685429D02*
X135672286Y-95721714D01*
X135527143Y-95721714D01*
X135454572Y-95685429D01*
X135418286Y-95612857D01*
X135418286Y-95322571D01*
X135454572Y-95250000D01*
X135527143Y-95213714D01*
X135672286Y-95213714D01*
X135744857Y-95250000D01*
X135781143Y-95322571D01*
X135781143Y-95395143D01*
X135418286Y-95467714D01*
X136107715Y-95213714D02*
X136107715Y-95721714D01*
X136107715Y-95286286D02*
X136144000Y-95250000D01*
X136216572Y-95213714D01*
X136325429Y-95213714D01*
X136398000Y-95250000D01*
X136434286Y-95322571D01*
X136434286Y-95721714D01*
X136760858Y-95685429D02*
X136833429Y-95721714D01*
X136978572Y-95721714D01*
X137051144Y-95685429D01*
X137087429Y-95612857D01*
X137087429Y-95576571D01*
X137051144Y-95504000D01*
X136978572Y-95467714D01*
X136869715Y-95467714D01*
X136797144Y-95431429D01*
X136760858Y-95358857D01*
X136760858Y-95322571D01*
X136797144Y-95250000D01*
X136869715Y-95213714D01*
X136978572Y-95213714D01*
X137051144Y-95250000D01*
X137414001Y-95721714D02*
X137414001Y-95213714D01*
X137414001Y-94959714D02*
X137377715Y-94996000D01*
X137414001Y-95032286D01*
X137450286Y-94996000D01*
X137414001Y-94959714D01*
X137414001Y-95032286D01*
X137885715Y-95721714D02*
X137813143Y-95685429D01*
X137776858Y-95649143D01*
X137740572Y-95576571D01*
X137740572Y-95358857D01*
X137776858Y-95286286D01*
X137813143Y-95250000D01*
X137885715Y-95213714D01*
X137994572Y-95213714D01*
X138067143Y-95250000D01*
X138103429Y-95286286D01*
X138139715Y-95358857D01*
X138139715Y-95576571D01*
X138103429Y-95649143D01*
X138067143Y-95685429D01*
X137994572Y-95721714D01*
X137885715Y-95721714D01*
X138466287Y-95213714D02*
X138466287Y-95721714D01*
X138466287Y-95286286D02*
X138502572Y-95250000D01*
X138575144Y-95213714D01*
X138684001Y-95213714D01*
X138756572Y-95250000D01*
X138792858Y-95322571D01*
X138792858Y-95721714D01*
X139663715Y-95213714D02*
X139845144Y-95721714D01*
X140026572Y-95213714D01*
X140462000Y-94959714D02*
X140534572Y-94959714D01*
X140607143Y-94996000D01*
X140643429Y-95032286D01*
X140679715Y-95104857D01*
X140716000Y-95250000D01*
X140716000Y-95431429D01*
X140679715Y-95576571D01*
X140643429Y-95649143D01*
X140607143Y-95685429D01*
X140534572Y-95721714D01*
X140462000Y-95721714D01*
X140389429Y-95685429D01*
X140353143Y-95649143D01*
X140316858Y-95576571D01*
X140280572Y-95431429D01*
X140280572Y-95250000D01*
X140316858Y-95104857D01*
X140353143Y-95032286D01*
X140389429Y-94996000D01*
X140462000Y-94959714D01*
X141042572Y-95649143D02*
X141078857Y-95685429D01*
X141042572Y-95721714D01*
X141006286Y-95685429D01*
X141042572Y-95649143D01*
X141042572Y-95721714D01*
X141369143Y-95032286D02*
X141405429Y-94996000D01*
X141478000Y-94959714D01*
X141659429Y-94959714D01*
X141732000Y-94996000D01*
X141768286Y-95032286D01*
X141804571Y-95104857D01*
X141804571Y-95177429D01*
X141768286Y-95286286D01*
X141332857Y-95721714D01*
X141804571Y-95721714D01*
X130447143Y-96837500D02*
X130810000Y-96837500D01*
X130374571Y-97055214D02*
X130628571Y-96293214D01*
X130882571Y-97055214D01*
X131136572Y-96547214D02*
X131136572Y-97309214D01*
X131136572Y-96583500D02*
X131209143Y-96547214D01*
X131354286Y-96547214D01*
X131426857Y-96583500D01*
X131463143Y-96619786D01*
X131499429Y-96692357D01*
X131499429Y-96910071D01*
X131463143Y-96982643D01*
X131426857Y-97018929D01*
X131354286Y-97055214D01*
X131209143Y-97055214D01*
X131136572Y-97018929D01*
X131826001Y-97055214D02*
X131826001Y-96547214D01*
X131826001Y-96692357D02*
X131862286Y-96619786D01*
X131898572Y-96583500D01*
X131971143Y-96547214D01*
X132043715Y-96547214D01*
X132842000Y-96365786D02*
X132878286Y-96329500D01*
X132950857Y-96293214D01*
X133132286Y-96293214D01*
X133204857Y-96329500D01*
X133241143Y-96365786D01*
X133277428Y-96438357D01*
X133277428Y-96510929D01*
X133241143Y-96619786D01*
X132805714Y-97055214D01*
X133277428Y-97055214D01*
X133749142Y-96293214D02*
X133821714Y-96293214D01*
X133894285Y-96329500D01*
X133930571Y-96365786D01*
X133966857Y-96438357D01*
X134003142Y-96583500D01*
X134003142Y-96764929D01*
X133966857Y-96910071D01*
X133930571Y-96982643D01*
X133894285Y-97018929D01*
X133821714Y-97055214D01*
X133749142Y-97055214D01*
X133676571Y-97018929D01*
X133640285Y-96982643D01*
X133604000Y-96910071D01*
X133567714Y-96764929D01*
X133567714Y-96583500D01*
X133604000Y-96438357D01*
X133640285Y-96365786D01*
X133676571Y-96329500D01*
X133749142Y-96293214D01*
X134728856Y-97055214D02*
X134293428Y-97055214D01*
X134511142Y-97055214D02*
X134511142Y-96293214D01*
X134438571Y-96402071D01*
X134365999Y-96474643D01*
X134293428Y-96510929D01*
X134982856Y-96293214D02*
X135490856Y-96293214D01*
X135164285Y-97055214D01*
X131118429Y-67001571D02*
X131227286Y-67037857D01*
X131263571Y-67074143D01*
X131299857Y-67146714D01*
X131299857Y-67255571D01*
X131263571Y-67328143D01*
X131227286Y-67364429D01*
X131154714Y-67400714D01*
X130864429Y-67400714D01*
X130864429Y-66638714D01*
X131118429Y-66638714D01*
X131191000Y-66675000D01*
X131227286Y-66711286D01*
X131263571Y-66783857D01*
X131263571Y-66856429D01*
X131227286Y-66929000D01*
X131191000Y-66965286D01*
X131118429Y-67001571D01*
X130864429Y-67001571D01*
X131517571Y-66638714D02*
X131953000Y-66638714D01*
X131735286Y-67400714D02*
X131735286Y-66638714D01*
X132569857Y-67400714D02*
X132207000Y-67400714D01*
X132207000Y-66638714D01*
X132823857Y-67001571D02*
X133077857Y-67001571D01*
X133186714Y-67400714D02*
X132823857Y-67400714D01*
X132823857Y-66638714D01*
X133186714Y-66638714D01*
X134057571Y-67183000D02*
X134420428Y-67183000D01*
X133984999Y-67400714D02*
X134238999Y-66638714D01*
X134492999Y-67400714D01*
X135073571Y-67364429D02*
X135001000Y-67400714D01*
X134855857Y-67400714D01*
X134783285Y-67364429D01*
X134747000Y-67328143D01*
X134710714Y-67255571D01*
X134710714Y-67037857D01*
X134747000Y-66965286D01*
X134783285Y-66929000D01*
X134855857Y-66892714D01*
X135001000Y-66892714D01*
X135073571Y-66929000D01*
X135291285Y-66892714D02*
X135581571Y-66892714D01*
X135400143Y-66638714D02*
X135400143Y-67291857D01*
X135436428Y-67364429D01*
X135509000Y-67400714D01*
X135581571Y-67400714D01*
X135835572Y-67328143D02*
X135871857Y-67364429D01*
X135835572Y-67400714D01*
X135799286Y-67364429D01*
X135835572Y-67328143D01*
X135835572Y-67400714D01*
X130828143Y-77814714D02*
X130828143Y-77052714D01*
X131118428Y-77052714D01*
X131191000Y-77089000D01*
X131227285Y-77125286D01*
X131263571Y-77197857D01*
X131263571Y-77306714D01*
X131227285Y-77379286D01*
X131191000Y-77415571D01*
X131118428Y-77451857D01*
X130828143Y-77451857D01*
X131699000Y-77814714D02*
X131626428Y-77778429D01*
X131590143Y-77742143D01*
X131553857Y-77669571D01*
X131553857Y-77451857D01*
X131590143Y-77379286D01*
X131626428Y-77343000D01*
X131699000Y-77306714D01*
X131807857Y-77306714D01*
X131880428Y-77343000D01*
X131916714Y-77379286D01*
X131953000Y-77451857D01*
X131953000Y-77669571D01*
X131916714Y-77742143D01*
X131880428Y-77778429D01*
X131807857Y-77814714D01*
X131699000Y-77814714D01*
X132207000Y-77306714D02*
X132352143Y-77814714D01*
X132497286Y-77451857D01*
X132642429Y-77814714D01*
X132787572Y-77306714D01*
X133368143Y-77778429D02*
X133295572Y-77814714D01*
X133150429Y-77814714D01*
X133077858Y-77778429D01*
X133041572Y-77705857D01*
X133041572Y-77415571D01*
X133077858Y-77343000D01*
X133150429Y-77306714D01*
X133295572Y-77306714D01*
X133368143Y-77343000D01*
X133404429Y-77415571D01*
X133404429Y-77488143D01*
X133041572Y-77560714D01*
X133731001Y-77814714D02*
X133731001Y-77306714D01*
X133731001Y-77451857D02*
X133767286Y-77379286D01*
X133803572Y-77343000D01*
X133876143Y-77306714D01*
X133948715Y-77306714D01*
D11*
X159084000Y-74612500D02*
X158734000Y-74612500D01*
X159084000Y-75862500D02*
X159084000Y-74612500D01*
X157734000Y-75862500D02*
X159084000Y-75862500D01*
X157734000Y-75612500D02*
X157734000Y-75862500D01*
X156734000Y-75612500D02*
X158734000Y-75612500D01*
X156734000Y-73612500D02*
X156734000Y-75612500D01*
X158734000Y-73612500D02*
X156734000Y-73612500D01*
X158734000Y-75612500D02*
X158734000Y-73612500D01*
X133034000Y-58932000D02*
X131634000Y-58932000D01*
X133034000Y-61972000D02*
X131634000Y-61972000D01*
D13*
X145923000Y-89789000D02*
X145923000Y-91059000D01*
X144653000Y-89789000D02*
X144653000Y-91033600D01*
X144272000Y-89789000D02*
X146304000Y-89789000D01*
X146304000Y-89789000D02*
X146304000Y-91059000D01*
X146304000Y-91059000D02*
X144272000Y-91059000D01*
X144272000Y-91059000D02*
X144272000Y-89789000D01*
X132969000Y-68961000D02*
X132969000Y-70231000D01*
X131699000Y-68961000D02*
X131699000Y-70205600D01*
X131318000Y-68961000D02*
X133350000Y-68961000D01*
X133350000Y-68961000D02*
X133350000Y-70231000D01*
X133350000Y-70231000D02*
X131318000Y-70231000D01*
X131318000Y-70231000D02*
X131318000Y-68961000D01*
X157556200Y-63601600D02*
X157556200Y-64414400D01*
X158673800Y-64389000D02*
X158673800Y-63601600D01*
X158927800Y-64414400D02*
X157302200Y-64414400D01*
X157302200Y-64414400D02*
X157302200Y-63601600D01*
X157302200Y-63601600D02*
X158927800Y-63601600D01*
X158927800Y-63601600D02*
X158927800Y-64414400D01*
D11*
X130834000Y-74112500D02*
X130834000Y-75112500D01*
X133834000Y-64889000D02*
X133834000Y-63889000D01*
D13*
X132892800Y-72034400D02*
X132892800Y-71221600D01*
X131775200Y-71247000D02*
X131775200Y-72034400D01*
X131521200Y-71221600D02*
X133146800Y-71221600D01*
X133146800Y-71221600D02*
X133146800Y-72034400D01*
X133146800Y-72034400D02*
X131521200Y-72034400D01*
X131521200Y-72034400D02*
X131521200Y-71221600D01*
X136042400Y-63195200D02*
X135229600Y-63195200D01*
X135255000Y-64312800D02*
X136042400Y-64312800D01*
X135229600Y-64566800D02*
X135229600Y-62941200D01*
X135229600Y-62941200D02*
X136042400Y-62941200D01*
X136042400Y-62941200D02*
X136042400Y-64566800D01*
X136042400Y-64566800D02*
X135229600Y-64566800D01*
X158292800Y-78384400D02*
X158292800Y-77571600D01*
X157175200Y-77597000D02*
X157175200Y-78384400D01*
X156921200Y-77571600D02*
X158546800Y-77571600D01*
X158546800Y-77571600D02*
X158546800Y-78384400D01*
X158546800Y-78384400D02*
X156921200Y-78384400D01*
X156921200Y-78384400D02*
X156921200Y-77571600D01*
X158292800Y-79908400D02*
X158292800Y-79095600D01*
X157175200Y-79121000D02*
X157175200Y-79908400D01*
X156921200Y-79095600D02*
X158546800Y-79095600D01*
X158546800Y-79095600D02*
X158546800Y-79908400D01*
X158546800Y-79908400D02*
X156921200Y-79908400D01*
X156921200Y-79908400D02*
X156921200Y-79095600D01*
X131775200Y-53949600D02*
X131775200Y-54762400D01*
X132892800Y-54737000D02*
X132892800Y-53949600D01*
X133146800Y-54762400D02*
X131521200Y-54762400D01*
X131521200Y-54762400D02*
X131521200Y-53949600D01*
X131521200Y-53949600D02*
X133146800Y-53949600D01*
X133146800Y-53949600D02*
X133146800Y-54762400D01*
D11*
X157234000Y-71138000D02*
X157234000Y-70588000D01*
X155984000Y-71138000D02*
X157234000Y-71138000D01*
X155984000Y-70088000D02*
X155984000Y-71138000D01*
X156184000Y-70088000D02*
X155984000Y-70088000D01*
X156234000Y-67588000D02*
X156234000Y-70588000D01*
X159234000Y-67588000D02*
X156234000Y-67588000D01*
X159234000Y-70588000D02*
X159234000Y-67588000D01*
X156234000Y-70588000D02*
X159234000Y-70588000D01*
X144488000Y-88568000D02*
X144488000Y-88268000D01*
X146088000Y-88568000D02*
X144488000Y-88568000D01*
X146088000Y-88318000D02*
X146088000Y-88568000D01*
X144488000Y-88318000D02*
X146088000Y-88318000D01*
X144488000Y-85418000D02*
X144488000Y-88318000D01*
X146088000Y-85418000D02*
X144488000Y-85418000D01*
X146088000Y-88318000D02*
X146088000Y-85418000D01*
D14*
X150196000Y-71044000D02*
X150596000Y-71044000D01*
X150596000Y-71044000D02*
X150596000Y-74244000D01*
X150596000Y-74244000D02*
X150196000Y-74244000D01*
X150196000Y-71044000D02*
X150196000Y-74244000D01*
X150196000Y-74244000D02*
X141396000Y-74244000D01*
X141396000Y-74244000D02*
X141396000Y-71044000D01*
X141396000Y-71044000D02*
X150196000Y-71044000D01*
D11*
X141358600Y-56648000D02*
X148858600Y-56648000D01*
X148858600Y-53198000D02*
X148858600Y-56648000D01*
X141358600Y-53198000D02*
X141358600Y-56648000D01*
X137758600Y-66198000D02*
X152458600Y-66198000D01*
X152458600Y-53198000D02*
X152458600Y-66198000D01*
X137758600Y-53198000D02*
X137758600Y-66198000D01*
X137758600Y-53198000D02*
X152458600Y-53198000D01*
X156415000Y-62001000D02*
X159815000Y-62001000D01*
X159815000Y-62001000D02*
X159815000Y-55601000D01*
X159815000Y-55601000D02*
X156415000Y-55601000D01*
X156415000Y-55601000D02*
X156415000Y-62001000D01*
D13*
X153060400Y-69291200D02*
X152247600Y-69291200D01*
X152273000Y-70408800D02*
X153060400Y-70408800D01*
X152247600Y-70662800D02*
X152247600Y-69037200D01*
X152247600Y-69037200D02*
X153060400Y-69037200D01*
X153060400Y-69037200D02*
X153060400Y-70662800D01*
X153060400Y-70662800D02*
X152247600Y-70662800D01*
D11*
X131904000Y-55512000D02*
X132704000Y-55512000D01*
X132704000Y-58412000D02*
X131904000Y-58412000D01*
X131904000Y-58412000D02*
X131904000Y-58012000D01*
X131904000Y-58012000D02*
X132704000Y-58012000D01*
X132704000Y-58012000D02*
X132704000Y-58412000D01*
X134366000Y-66421000D02*
X130302000Y-66421000D01*
X130302000Y-66421000D02*
X130302000Y-62357000D01*
X130302000Y-62357000D02*
X134366000Y-62357000D01*
X134366000Y-62357000D02*
X134366000Y-66421000D01*
X134366000Y-76708000D02*
X130302000Y-76708000D01*
X130302000Y-76708000D02*
X130302000Y-72644000D01*
X130302000Y-72644000D02*
X134366000Y-72644000D01*
X134366000Y-72644000D02*
X134366000Y-76708000D01*
X159766000Y-76644500D02*
X155702000Y-76644500D01*
X155702000Y-76644500D02*
X155702000Y-72580500D01*
X155702000Y-72580500D02*
X159766000Y-72580500D01*
X159766000Y-72580500D02*
X159766000Y-76644500D01*
D12*
X154105429Y-72988714D02*
X154105429Y-73605571D01*
X154141714Y-73678143D01*
X154178000Y-73714429D01*
X154250571Y-73750714D01*
X154395714Y-73750714D01*
X154468286Y-73714429D01*
X154504571Y-73678143D01*
X154540857Y-73605571D01*
X154540857Y-72988714D01*
X154831143Y-72988714D02*
X155302857Y-72988714D01*
X155048857Y-73279000D01*
X155157715Y-73279000D01*
X155230286Y-73315286D01*
X155266572Y-73351571D01*
X155302857Y-73424143D01*
X155302857Y-73605571D01*
X155266572Y-73678143D01*
X155230286Y-73714429D01*
X155157715Y-73750714D01*
X154940000Y-73750714D01*
X154867429Y-73714429D01*
X154831143Y-73678143D01*
X135055429Y-59853286D02*
X134982857Y-59817000D01*
X134910286Y-59744429D01*
X134801429Y-59635571D01*
X134728857Y-59599286D01*
X134656286Y-59599286D01*
X134692571Y-59780714D02*
X134620000Y-59744429D01*
X134547429Y-59671857D01*
X134511143Y-59526714D01*
X134511143Y-59272714D01*
X134547429Y-59127571D01*
X134620000Y-59055000D01*
X134692571Y-59018714D01*
X134837714Y-59018714D01*
X134910286Y-59055000D01*
X134982857Y-59127571D01*
X135019143Y-59272714D01*
X135019143Y-59526714D01*
X134982857Y-59671857D01*
X134910286Y-59744429D01*
X134837714Y-59780714D01*
X134692571Y-59780714D01*
X135744857Y-59780714D02*
X135309429Y-59780714D01*
X135527143Y-59780714D02*
X135527143Y-59018714D01*
X135454572Y-59127571D01*
X135382000Y-59200143D01*
X135309429Y-59236429D01*
X147955000Y-90696143D02*
X147918714Y-90732429D01*
X147809857Y-90768714D01*
X147737286Y-90768714D01*
X147628429Y-90732429D01*
X147555857Y-90659857D01*
X147519572Y-90587286D01*
X147483286Y-90442143D01*
X147483286Y-90333286D01*
X147519572Y-90188143D01*
X147555857Y-90115571D01*
X147628429Y-90043000D01*
X147737286Y-90006714D01*
X147809857Y-90006714D01*
X147918714Y-90043000D01*
X147955000Y-90079286D01*
X148680714Y-90768714D02*
X148245286Y-90768714D01*
X148463000Y-90768714D02*
X148463000Y-90006714D01*
X148390429Y-90115571D01*
X148317857Y-90188143D01*
X148245286Y-90224429D01*
X135001000Y-69868143D02*
X134964714Y-69904429D01*
X134855857Y-69940714D01*
X134783286Y-69940714D01*
X134674429Y-69904429D01*
X134601857Y-69831857D01*
X134565572Y-69759286D01*
X134529286Y-69614143D01*
X134529286Y-69505286D01*
X134565572Y-69360143D01*
X134601857Y-69287571D01*
X134674429Y-69215000D01*
X134783286Y-69178714D01*
X134855857Y-69178714D01*
X134964714Y-69215000D01*
X135001000Y-69251286D01*
X135291286Y-69251286D02*
X135327572Y-69215000D01*
X135400143Y-69178714D01*
X135581572Y-69178714D01*
X135654143Y-69215000D01*
X135690429Y-69251286D01*
X135726714Y-69323857D01*
X135726714Y-69396429D01*
X135690429Y-69505286D01*
X135255000Y-69940714D01*
X135726714Y-69940714D01*
X155194000Y-64280143D02*
X155157714Y-64316429D01*
X155048857Y-64352714D01*
X154976286Y-64352714D01*
X154867429Y-64316429D01*
X154794857Y-64243857D01*
X154758572Y-64171286D01*
X154722286Y-64026143D01*
X154722286Y-63917286D01*
X154758572Y-63772143D01*
X154794857Y-63699571D01*
X154867429Y-63627000D01*
X154976286Y-63590714D01*
X155048857Y-63590714D01*
X155157714Y-63627000D01*
X155194000Y-63663286D01*
X155847143Y-63844714D02*
X155847143Y-64352714D01*
X155665714Y-63554429D02*
X155484286Y-64098714D01*
X155956000Y-64098714D01*
X131771572Y-73750714D02*
X131771572Y-72988714D01*
X131953000Y-72988714D01*
X132061857Y-73025000D01*
X132134429Y-73097571D01*
X132170714Y-73170143D01*
X132207000Y-73315286D01*
X132207000Y-73424143D01*
X132170714Y-73569286D01*
X132134429Y-73641857D01*
X132061857Y-73714429D01*
X131953000Y-73750714D01*
X131771572Y-73750714D01*
X132932714Y-73750714D02*
X132497286Y-73750714D01*
X132715000Y-73750714D02*
X132715000Y-72988714D01*
X132642429Y-73097571D01*
X132569857Y-73170143D01*
X132497286Y-73206429D01*
X131771572Y-63590714D02*
X131771572Y-62828714D01*
X131953000Y-62828714D01*
X132061857Y-62865000D01*
X132134429Y-62937571D01*
X132170714Y-63010143D01*
X132207000Y-63155286D01*
X132207000Y-63264143D01*
X132170714Y-63409286D01*
X132134429Y-63481857D01*
X132061857Y-63554429D01*
X131953000Y-63590714D01*
X131771572Y-63590714D01*
X132497286Y-62901286D02*
X132533572Y-62865000D01*
X132606143Y-62828714D01*
X132787572Y-62828714D01*
X132860143Y-62865000D01*
X132896429Y-62901286D01*
X132932714Y-62973857D01*
X132932714Y-63046429D01*
X132896429Y-63155286D01*
X132461000Y-63590714D01*
X132932714Y-63590714D01*
X135001000Y-71972714D02*
X134747000Y-71609857D01*
X134565572Y-71972714D02*
X134565572Y-71210714D01*
X134855857Y-71210714D01*
X134928429Y-71247000D01*
X134964714Y-71283286D01*
X135001000Y-71355857D01*
X135001000Y-71464714D01*
X134964714Y-71537286D01*
X134928429Y-71573571D01*
X134855857Y-71609857D01*
X134565572Y-71609857D01*
X135726714Y-71972714D02*
X135291286Y-71972714D01*
X135509000Y-71972714D02*
X135509000Y-71210714D01*
X135436429Y-71319571D01*
X135363857Y-71392143D01*
X135291286Y-71428429D01*
X135509000Y-62066714D02*
X135255000Y-61703857D01*
X135073572Y-62066714D02*
X135073572Y-61304714D01*
X135363857Y-61304714D01*
X135436429Y-61341000D01*
X135472714Y-61377286D01*
X135509000Y-61449857D01*
X135509000Y-61558714D01*
X135472714Y-61631286D01*
X135436429Y-61667571D01*
X135363857Y-61703857D01*
X135073572Y-61703857D01*
X135799286Y-61377286D02*
X135835572Y-61341000D01*
X135908143Y-61304714D01*
X136089572Y-61304714D01*
X136162143Y-61341000D01*
X136198429Y-61377286D01*
X136234714Y-61449857D01*
X136234714Y-61522429D01*
X136198429Y-61631286D01*
X135763000Y-62066714D01*
X136234714Y-62066714D01*
X155194000Y-78322714D02*
X154940000Y-77959857D01*
X154758572Y-78322714D02*
X154758572Y-77560714D01*
X155048857Y-77560714D01*
X155121429Y-77597000D01*
X155157714Y-77633286D01*
X155194000Y-77705857D01*
X155194000Y-77814714D01*
X155157714Y-77887286D01*
X155121429Y-77923571D01*
X155048857Y-77959857D01*
X154758572Y-77959857D01*
X155847143Y-77814714D02*
X155847143Y-78322714D01*
X155665714Y-77524429D02*
X155484286Y-78068714D01*
X155956000Y-78068714D01*
X155194000Y-79846714D02*
X154940000Y-79483857D01*
X154758572Y-79846714D02*
X154758572Y-79084714D01*
X155048857Y-79084714D01*
X155121429Y-79121000D01*
X155157714Y-79157286D01*
X155194000Y-79229857D01*
X155194000Y-79338714D01*
X155157714Y-79411286D01*
X155121429Y-79447571D01*
X155048857Y-79483857D01*
X154758572Y-79483857D01*
X155883429Y-79084714D02*
X155520572Y-79084714D01*
X155484286Y-79447571D01*
X155520572Y-79411286D01*
X155593143Y-79375000D01*
X155774572Y-79375000D01*
X155847143Y-79411286D01*
X155883429Y-79447571D01*
X155919714Y-79520143D01*
X155919714Y-79701571D01*
X155883429Y-79774143D01*
X155847143Y-79810429D01*
X155774572Y-79846714D01*
X155593143Y-79846714D01*
X155520572Y-79810429D01*
X155484286Y-79774143D01*
X134892143Y-54700714D02*
X134638143Y-54337857D01*
X134456715Y-54700714D02*
X134456715Y-53938714D01*
X134747000Y-53938714D01*
X134819572Y-53975000D01*
X134855857Y-54011286D01*
X134892143Y-54083857D01*
X134892143Y-54192714D01*
X134855857Y-54265286D01*
X134819572Y-54301571D01*
X134747000Y-54337857D01*
X134456715Y-54337857D01*
X135617857Y-54700714D02*
X135182429Y-54700714D01*
X135400143Y-54700714D02*
X135400143Y-53938714D01*
X135327572Y-54047571D01*
X135255000Y-54120143D01*
X135182429Y-54156429D01*
X136089571Y-53938714D02*
X136162143Y-53938714D01*
X136234714Y-53975000D01*
X136271000Y-54011286D01*
X136307286Y-54083857D01*
X136343571Y-54229000D01*
X136343571Y-54410429D01*
X136307286Y-54555571D01*
X136271000Y-54628143D01*
X136234714Y-54664429D01*
X136162143Y-54700714D01*
X136089571Y-54700714D01*
X136017000Y-54664429D01*
X135980714Y-54628143D01*
X135944429Y-54555571D01*
X135908143Y-54410429D01*
X135908143Y-54229000D01*
X135944429Y-54083857D01*
X135980714Y-54011286D01*
X136017000Y-53975000D01*
X136089571Y-53938714D01*
X157153429Y-65876714D02*
X157153429Y-66493571D01*
X157189714Y-66566143D01*
X157226000Y-66602429D01*
X157298571Y-66638714D01*
X157443714Y-66638714D01*
X157516286Y-66602429D01*
X157552571Y-66566143D01*
X157588857Y-66493571D01*
X157588857Y-65876714D01*
X158350857Y-66638714D02*
X157915429Y-66638714D01*
X158133143Y-66638714D02*
X158133143Y-65876714D01*
X158060572Y-65985571D01*
X157988000Y-66058143D01*
X157915429Y-66094429D01*
X144707429Y-84164714D02*
X144707429Y-84781571D01*
X144743714Y-84854143D01*
X144780000Y-84890429D01*
X144852571Y-84926714D01*
X144997714Y-84926714D01*
X145070286Y-84890429D01*
X145106571Y-84854143D01*
X145142857Y-84781571D01*
X145142857Y-84164714D01*
X145469429Y-84237286D02*
X145505715Y-84201000D01*
X145578286Y-84164714D01*
X145759715Y-84164714D01*
X145832286Y-84201000D01*
X145868572Y-84237286D01*
X145904857Y-84309857D01*
X145904857Y-84382429D01*
X145868572Y-84491286D01*
X145433143Y-84926714D01*
X145904857Y-84926714D01*
X151057429Y-73496714D02*
X151057429Y-74113571D01*
X151093714Y-74186143D01*
X151130000Y-74222429D01*
X151202571Y-74258714D01*
X151347714Y-74258714D01*
X151420286Y-74222429D01*
X151456571Y-74186143D01*
X151492857Y-74113571D01*
X151492857Y-73496714D01*
X152182286Y-73750714D02*
X152182286Y-74258714D01*
X152000857Y-73460429D02*
X151819429Y-74004714D01*
X152291143Y-74004714D01*
X138678029Y-52030714D02*
X138678029Y-52647571D01*
X138714314Y-52720143D01*
X138750600Y-52756429D01*
X138823171Y-52792714D01*
X138968314Y-52792714D01*
X139040886Y-52756429D01*
X139077171Y-52720143D01*
X139113457Y-52647571D01*
X139113457Y-52030714D01*
X139839172Y-52030714D02*
X139476315Y-52030714D01*
X139440029Y-52393571D01*
X139476315Y-52357286D01*
X139548886Y-52321000D01*
X139730315Y-52321000D01*
X139802886Y-52357286D01*
X139839172Y-52393571D01*
X139875457Y-52466143D01*
X139875457Y-52647571D01*
X139839172Y-52720143D01*
X139802886Y-52756429D01*
X139730315Y-52792714D01*
X139548886Y-52792714D01*
X139476315Y-52756429D01*
X139440029Y-52720143D01*
X157988001Y-54192714D02*
X157988001Y-54737000D01*
X157951715Y-54845857D01*
X157879144Y-54918429D01*
X157770287Y-54954714D01*
X157697715Y-54954714D01*
X158314572Y-54265286D02*
X158350858Y-54229000D01*
X158423429Y-54192714D01*
X158604858Y-54192714D01*
X158677429Y-54229000D01*
X158713715Y-54265286D01*
X158750000Y-54337857D01*
X158750000Y-54410429D01*
X158713715Y-54519286D01*
X158278286Y-54954714D01*
X158750000Y-54954714D01*
X154051000Y-70122143D02*
X154014714Y-70158429D01*
X153905857Y-70194714D01*
X153833286Y-70194714D01*
X153724429Y-70158429D01*
X153651857Y-70085857D01*
X153615572Y-70013286D01*
X153579286Y-69868143D01*
X153579286Y-69759286D01*
X153615572Y-69614143D01*
X153651857Y-69541571D01*
X153724429Y-69469000D01*
X153833286Y-69432714D01*
X153905857Y-69432714D01*
X154014714Y-69469000D01*
X154051000Y-69505286D01*
X154740429Y-69432714D02*
X154377572Y-69432714D01*
X154341286Y-69795571D01*
X154377572Y-69759286D01*
X154450143Y-69723000D01*
X154631572Y-69723000D01*
X154704143Y-69759286D01*
X154740429Y-69795571D01*
X154776714Y-69868143D01*
X154776714Y-70049571D01*
X154740429Y-70122143D01*
X154704143Y-70158429D01*
X154631572Y-70194714D01*
X154450143Y-70194714D01*
X154377572Y-70158429D01*
X154341286Y-70122143D01*
X134547429Y-56478714D02*
X134547429Y-57095571D01*
X134583714Y-57168143D01*
X134620000Y-57204429D01*
X134692571Y-57240714D01*
X134837714Y-57240714D01*
X134910286Y-57204429D01*
X134946571Y-57168143D01*
X134982857Y-57095571D01*
X134982857Y-56478714D01*
X135672286Y-56478714D02*
X135527143Y-56478714D01*
X135454572Y-56515000D01*
X135418286Y-56551286D01*
X135345715Y-56660143D01*
X135309429Y-56805286D01*
X135309429Y-57095571D01*
X135345715Y-57168143D01*
X135382000Y-57204429D01*
X135454572Y-57240714D01*
X135599715Y-57240714D01*
X135672286Y-57204429D01*
X135708572Y-57168143D01*
X135744857Y-57095571D01*
X135744857Y-56914143D01*
X135708572Y-56841571D01*
X135672286Y-56805286D01*
X135599715Y-56769000D01*
X135454572Y-56769000D01*
X135382000Y-56805286D01*
X135345715Y-56841571D01*
X135309429Y-56914143D01*
M02*
