G04 #@! TF.FileFunction,Soldermask,Top*
%FSLAX46Y46*%
G04 Gerber Fmt 4.6, Leading zero omitted, Abs format (unit mm)*
G04 Created by KiCad (PCBNEW 4.0.4-stable) date Sunday, April 30, 2017 'PMt' 09:58:20 PM*
%MOMM*%
%LPD*%
G01*
G04 APERTURE LIST*
%ADD10C,0.100000*%
%ADD11R,1.150000X1.100000*%
%ADD12R,1.619200X1.202000*%
%ADD13C,1.797000*%
%ADD14C,3.600000*%
%ADD15C,2.813000*%
%ADD16R,1.700480X1.898600*%
%ADD17R,1.299160X1.400760*%
%ADD18R,1.400760X1.299160*%
%ADD19R,0.850000X1.250000*%
%ADD20R,2.900000X2.000000*%
%ADD21R,1.400000X1.100000*%
%ADD22R,1.000000X1.900000*%
%ADD23R,2.900000X0.900000*%
%ADD24R,0.900000X2.900000*%
%ADD25R,1.416000X1.416000*%
%ADD26C,1.416000*%
%ADD27R,1.390000X1.090000*%
%ADD28C,1.060400*%
G04 APERTURE END LIST*
D10*
D11*
X158409000Y-75212500D03*
X158409000Y-74012500D03*
X157059000Y-74012500D03*
X157059000Y-75212500D03*
D12*
X131322000Y-59502000D03*
X131322000Y-61402000D03*
X133346000Y-60452000D03*
D13*
X149606000Y-82804000D03*
X148336000Y-80264000D03*
X147066000Y-82804000D03*
X145796000Y-80264000D03*
X144526000Y-82804000D03*
X143256000Y-80264000D03*
X141986000Y-82804000D03*
X140716000Y-80264000D03*
D14*
X139446000Y-89154000D03*
X150876000Y-89154000D03*
D15*
X137411000Y-86104000D03*
X152911000Y-86104000D03*
D16*
X146240500Y-90424000D03*
X144335500Y-90424000D03*
X133286500Y-69596000D03*
X131381500Y-69596000D03*
D17*
X157363160Y-64008000D03*
X158866840Y-64008000D03*
X133085840Y-74612500D03*
X131582160Y-74612500D03*
X131582160Y-64389000D03*
X133085840Y-64389000D03*
X133085840Y-71628000D03*
X131582160Y-71628000D03*
D18*
X135636000Y-63002160D03*
X135636000Y-64505840D03*
D17*
X158485840Y-77978000D03*
X156982160Y-77978000D03*
X158485840Y-79502000D03*
X156982160Y-79502000D03*
X131582160Y-54356000D03*
X133085840Y-54356000D03*
D19*
X156734000Y-70538000D03*
X157734000Y-70538000D03*
X158734000Y-70538000D03*
X158734000Y-67638000D03*
X157734000Y-67638000D03*
X156734000Y-67638000D03*
D20*
X157734000Y-69088000D03*
D21*
X146488000Y-87818000D03*
X146488000Y-86868000D03*
X146488000Y-85918000D03*
X144088000Y-85918000D03*
X144088000Y-87818000D03*
D22*
X149606000Y-69944000D03*
X148336000Y-69944000D03*
X147066000Y-69944000D03*
X145796000Y-69944000D03*
X144526000Y-69944000D03*
X143256000Y-69944000D03*
X141986000Y-69944000D03*
X141986000Y-75344000D03*
X143256000Y-75344000D03*
X144526000Y-75344000D03*
X145796000Y-75344000D03*
X147066000Y-75344000D03*
X148336000Y-75344000D03*
X149606000Y-75344000D03*
D23*
X138408600Y-53848000D03*
X138408600Y-54748000D03*
X138408600Y-55648000D03*
X138408600Y-56548000D03*
X138408600Y-57448000D03*
X138408600Y-58348000D03*
X138408600Y-59248000D03*
X138408600Y-60148000D03*
X138408600Y-61048000D03*
X138408600Y-61948000D03*
X138408600Y-62848000D03*
X138408600Y-63748000D03*
D24*
X140158600Y-65548000D03*
X141058600Y-65548000D03*
X141958600Y-65548000D03*
X142858600Y-65548000D03*
X143758600Y-65548000D03*
X144658600Y-65548000D03*
X145558600Y-65548000D03*
X146458600Y-65548000D03*
X147358600Y-65548000D03*
X148258600Y-65548000D03*
X149158600Y-65548000D03*
X150058600Y-65548000D03*
D23*
X151808600Y-63748000D03*
X151808600Y-62848000D03*
X151808600Y-61948000D03*
X151808600Y-61048000D03*
X151808600Y-60148000D03*
X151808600Y-59248000D03*
X151808600Y-58348000D03*
X151808600Y-57448000D03*
X151808600Y-56548000D03*
X151808600Y-55648000D03*
X151808600Y-54748000D03*
X151808600Y-53848000D03*
D25*
X157480000Y-61341000D03*
D26*
X158750000Y-61341000D03*
X157480000Y-60071000D03*
X158750000Y-60071000D03*
X157480000Y-58801000D03*
X158750000Y-58801000D03*
X157480000Y-57531000D03*
X158750000Y-57531000D03*
X157480000Y-56261000D03*
X158750000Y-56261000D03*
D18*
X152654000Y-69098160D03*
X152654000Y-70601840D03*
D27*
X133604000Y-57912000D03*
X133604000Y-56012000D03*
X131014000Y-56962000D03*
D28*
X134366000Y-62357000D03*
X130302000Y-66421000D03*
X134366000Y-72644000D03*
X130302000Y-76708000D03*
X159766000Y-72580500D03*
X155702000Y-76644500D03*
M02*
