G04 #@! TF.FileFunction,Copper,L2,Bot,Signal*
%FSLAX46Y46*%
G04 Gerber Fmt 4.6, Leading zero omitted, Abs format (unit mm)*
G04 Created by KiCad (PCBNEW 4.0.4-stable) date Sunday, February 26, 2017 'PMt' 06:01:27 PM*
%MOMM*%
%LPD*%
G01*
G04 APERTURE LIST*
%ADD10C,0.100000*%
%ADD11C,1.397000*%
%ADD12C,2.413000*%
%ADD13R,1.016000X1.016000*%
%ADD14C,1.016000*%
%ADD15C,0.635000*%
%ADD16C,0.508000*%
%ADD17C,0.203200*%
G04 APERTURE END LIST*
D10*
D11*
X140639800Y-82905600D03*
X141909800Y-80365600D03*
X143179800Y-82905600D03*
X144449800Y-80365600D03*
X145719800Y-82905600D03*
X146989800Y-80365600D03*
X148259800Y-82905600D03*
X149529800Y-80365600D03*
D12*
X152834800Y-86205600D03*
X137334800Y-86205600D03*
D13*
X157480000Y-61341000D03*
D14*
X158750000Y-61341000D03*
X157480000Y-60071000D03*
X158750000Y-60071000D03*
X157480000Y-58801000D03*
X158750000Y-58801000D03*
X157480000Y-57531000D03*
X158750000Y-57531000D03*
X157480000Y-56261000D03*
X158750000Y-56261000D03*
D15*
X155956000Y-67818000D03*
X158369000Y-71247000D03*
X158866840Y-64008000D03*
X153797000Y-58293000D03*
X148463000Y-63754000D03*
X157480000Y-82804000D03*
X154432000Y-92710000D03*
X155194000Y-95504000D03*
X143764000Y-68326000D03*
X137541000Y-74676000D03*
X131064000Y-80518000D03*
X132842000Y-71755000D03*
X131064000Y-76200000D03*
X131064000Y-68580000D03*
X131064000Y-60198000D03*
X130683000Y-57404000D03*
X139827000Y-55626000D03*
X152400000Y-75311000D03*
X152400000Y-67564000D03*
X157353000Y-80010000D03*
X155575000Y-78232000D03*
X159766000Y-92710000D03*
X134493000Y-74676000D03*
X134493000Y-69977000D03*
X134493000Y-78613000D03*
X133985000Y-54610000D03*
X139065000Y-65532000D03*
X133985000Y-64516000D03*
X147574000Y-77216000D03*
X141605000Y-62611000D03*
X140716000Y-62611000D03*
X159512000Y-74676000D03*
X157226000Y-65532000D03*
X156591000Y-74676000D03*
X155194000Y-63754000D03*
X147574000Y-68453000D03*
X143637000Y-62611000D03*
X148844000Y-68453000D03*
X144526000Y-62611000D03*
X150114000Y-68453000D03*
X145415000Y-62611000D03*
X146304000Y-68453000D03*
X142621000Y-62611000D03*
X153771600Y-59258200D03*
X140487400Y-59258200D03*
X147447000Y-61722000D03*
X153797000Y-60198000D03*
X147447000Y-62865000D03*
X158115000Y-62865000D03*
X156718000Y-62865000D03*
X153797000Y-62865000D03*
D16*
X152400000Y-67564000D02*
X152400000Y-75311000D01*
X159766000Y-82423000D02*
X157353000Y-80010000D01*
X157353000Y-80010000D02*
X155575000Y-78232000D01*
X159766000Y-92710000D02*
X159766000Y-82423000D01*
D17*
X134493000Y-78613000D02*
X134493000Y-74676000D01*
X134493000Y-74676000D02*
X134493000Y-69977000D01*
X133985000Y-64516000D02*
X133985000Y-54610000D01*
X135001000Y-65532000D02*
X139065000Y-65532000D01*
X133985000Y-64516000D02*
X135001000Y-65532000D01*
X144449800Y-80365600D02*
X147574000Y-77241400D01*
X147574000Y-77241400D02*
X147574000Y-77216000D01*
X149631400Y-82905600D02*
X148259800Y-82905600D01*
X150749000Y-81788000D02*
X149631400Y-82905600D01*
X150749000Y-75692000D02*
X150749000Y-81788000D01*
X147828000Y-72771000D02*
X150749000Y-75692000D01*
X143002000Y-72771000D02*
X147828000Y-72771000D01*
X141605000Y-71374000D02*
X143002000Y-72771000D01*
X141605000Y-62611000D02*
X141605000Y-71374000D01*
X149529800Y-75234800D02*
X149529800Y-80365600D01*
X147574000Y-73279000D02*
X149529800Y-75234800D01*
X142621000Y-73279000D02*
X147574000Y-73279000D01*
X140716000Y-71374000D02*
X142621000Y-73279000D01*
X140716000Y-62611000D02*
X140716000Y-71374000D01*
X158750000Y-65532000D02*
X157226000Y-65532000D01*
X159512000Y-66294000D02*
X158750000Y-65532000D01*
X159512000Y-74676000D02*
X159512000Y-66294000D01*
X156591000Y-65659000D02*
X156591000Y-65151000D01*
X156591000Y-74676000D02*
X156591000Y-65659000D01*
X156591000Y-65151000D02*
X155194000Y-63754000D01*
X143637000Y-64516000D02*
X147574000Y-68453000D01*
X143637000Y-62611000D02*
X143637000Y-64516000D01*
X144526000Y-64135000D02*
X148844000Y-68453000D01*
X144526000Y-62611000D02*
X144526000Y-64135000D01*
X145415000Y-63754000D02*
X150114000Y-68453000D01*
X145415000Y-62611000D02*
X145415000Y-63754000D01*
X142621000Y-64770000D02*
X146304000Y-68453000D01*
X142621000Y-62611000D02*
X142621000Y-64770000D01*
X153771600Y-59258200D02*
X140487400Y-59258200D01*
X149098000Y-60071000D02*
X153670000Y-60071000D01*
X147447000Y-61722000D02*
X149098000Y-60071000D01*
X153670000Y-60071000D02*
X153797000Y-60198000D01*
X147447000Y-62865000D02*
X153797000Y-62865000D01*
X156718000Y-62865000D02*
X158115000Y-62865000D01*
G36*
X140106400Y-57912000D02*
X140114405Y-57951528D01*
X140137157Y-57984828D01*
X140171073Y-58006652D01*
X140208000Y-58013600D01*
X149860000Y-58013600D01*
X149899528Y-58005595D01*
X149932828Y-57982843D01*
X149954652Y-57948927D01*
X149961600Y-57912000D01*
X149961600Y-53695600D01*
X159918400Y-53695600D01*
X159918400Y-66294000D01*
X159887465Y-66138477D01*
X159799368Y-66006632D01*
X159037368Y-65244632D01*
X158905523Y-65156535D01*
X158750000Y-65125600D01*
X157699607Y-65125600D01*
X157578965Y-65004747D01*
X157350326Y-64909808D01*
X157102760Y-64909592D01*
X156950982Y-64972305D01*
X156878368Y-64863632D01*
X155816259Y-63801523D01*
X155816408Y-63630760D01*
X155721868Y-63401956D01*
X155546965Y-63226747D01*
X155318326Y-63131808D01*
X155070760Y-63131592D01*
X154841956Y-63226132D01*
X154666747Y-63401035D01*
X154571808Y-63629674D01*
X154571592Y-63877240D01*
X154666132Y-64106044D01*
X154841035Y-64281253D01*
X155069674Y-64376192D01*
X155241606Y-64376342D01*
X156184600Y-65319336D01*
X156184600Y-74202393D01*
X156063747Y-74323035D01*
X155968808Y-74551674D01*
X155968592Y-74799240D01*
X156063132Y-75028044D01*
X156238035Y-75203253D01*
X156466674Y-75298192D01*
X156714240Y-75298408D01*
X156943044Y-75203868D01*
X157118253Y-75028965D01*
X157213192Y-74800326D01*
X157213408Y-74552760D01*
X157118868Y-74323956D01*
X156997400Y-74202275D01*
X156997400Y-66110894D01*
X157101674Y-66154192D01*
X157349240Y-66154408D01*
X157578044Y-66059868D01*
X157699725Y-65938400D01*
X158581664Y-65938400D01*
X159105600Y-66462336D01*
X159105600Y-74202393D01*
X158984747Y-74323035D01*
X158889808Y-74551674D01*
X158889592Y-74799240D01*
X158984132Y-75028044D01*
X159159035Y-75203253D01*
X159387674Y-75298192D01*
X159635240Y-75298408D01*
X159864044Y-75203868D01*
X159918400Y-75149607D01*
X159918400Y-81785138D01*
X157943994Y-79810732D01*
X157880868Y-79657956D01*
X157705965Y-79482747D01*
X157552132Y-79418870D01*
X156165994Y-78032732D01*
X156102868Y-77879956D01*
X155927965Y-77704747D01*
X155699326Y-77609808D01*
X155451760Y-77609592D01*
X155222956Y-77704132D01*
X155047747Y-77879035D01*
X154952808Y-78107674D01*
X154952592Y-78355240D01*
X155047132Y-78584044D01*
X155222035Y-78759253D01*
X155375868Y-78823130D01*
X156762006Y-80209268D01*
X156825132Y-80362044D01*
X157000035Y-80537253D01*
X157153868Y-80601130D01*
X159207200Y-82654462D01*
X159207200Y-92433009D01*
X159143808Y-92585674D01*
X159143592Y-92833240D01*
X159238132Y-93062044D01*
X159413035Y-93237253D01*
X159641674Y-93332192D01*
X159889240Y-93332408D01*
X159918400Y-93320359D01*
X159918400Y-97180400D01*
X130149600Y-97180400D01*
X130149600Y-87510093D01*
X136245833Y-87510093D01*
X136373397Y-87788137D01*
X137052190Y-88035586D01*
X137774007Y-88004437D01*
X138035507Y-87896121D01*
X137755931Y-88175209D01*
X137465332Y-88875050D01*
X137464670Y-89632826D01*
X137754048Y-90333173D01*
X138289409Y-90869469D01*
X138989250Y-91160068D01*
X139747026Y-91160730D01*
X140447373Y-90871352D01*
X140983669Y-90335991D01*
X141274268Y-89636150D01*
X141274270Y-89632826D01*
X148894670Y-89632826D01*
X149184048Y-90333173D01*
X149719409Y-90869469D01*
X150419250Y-91160068D01*
X151177026Y-91160730D01*
X151877373Y-90871352D01*
X152413669Y-90335991D01*
X152704268Y-89636150D01*
X152704930Y-88878374D01*
X152415552Y-88178027D01*
X152113841Y-87875789D01*
X152552190Y-88035586D01*
X153274007Y-88004437D01*
X153796203Y-87788137D01*
X153923767Y-87510093D01*
X152834800Y-86421126D01*
X152820658Y-86435269D01*
X152605132Y-86219743D01*
X152619274Y-86205600D01*
X153050326Y-86205600D01*
X154139293Y-87294567D01*
X154417337Y-87167003D01*
X154664786Y-86488210D01*
X154633637Y-85766393D01*
X154417337Y-85244197D01*
X154139293Y-85116633D01*
X153050326Y-86205600D01*
X152619274Y-86205600D01*
X151530307Y-85116633D01*
X151252263Y-85244197D01*
X151004814Y-85922990D01*
X151035963Y-86644807D01*
X151252263Y-87167003D01*
X151530305Y-87294566D01*
X151419108Y-87405763D01*
X151495224Y-87481879D01*
X151180350Y-87351132D01*
X150422574Y-87350470D01*
X149722227Y-87639848D01*
X149185931Y-88175209D01*
X148895332Y-88875050D01*
X148894670Y-89632826D01*
X141274270Y-89632826D01*
X141274930Y-88878374D01*
X140985552Y-88178027D01*
X140450191Y-87641731D01*
X139750350Y-87351132D01*
X138992574Y-87350470D01*
X138674261Y-87481994D01*
X138750492Y-87405763D01*
X138639295Y-87294566D01*
X138917337Y-87167003D01*
X139164786Y-86488210D01*
X139133637Y-85766393D01*
X138917337Y-85244197D01*
X138639293Y-85116633D01*
X137550326Y-86205600D01*
X137564469Y-86219743D01*
X137348943Y-86435269D01*
X137334800Y-86421126D01*
X136245833Y-87510093D01*
X130149600Y-87510093D01*
X130149600Y-85922990D01*
X135504814Y-85922990D01*
X135535963Y-86644807D01*
X135752263Y-87167003D01*
X136030307Y-87294567D01*
X137119274Y-86205600D01*
X136030307Y-85116633D01*
X135752263Y-85244197D01*
X135504814Y-85922990D01*
X130149600Y-85922990D01*
X130149600Y-84901107D01*
X136245833Y-84901107D01*
X137334800Y-85990074D01*
X138423767Y-84901107D01*
X151745833Y-84901107D01*
X152834800Y-85990074D01*
X153923767Y-84901107D01*
X153796203Y-84623063D01*
X153117410Y-84375614D01*
X152395593Y-84406763D01*
X151873397Y-84623063D01*
X151745833Y-84901107D01*
X138423767Y-84901107D01*
X138296203Y-84623063D01*
X137617410Y-84375614D01*
X136895593Y-84406763D01*
X136373397Y-84623063D01*
X136245833Y-84901107D01*
X130149600Y-84901107D01*
X130149600Y-83104293D01*
X139636326Y-83104293D01*
X139788748Y-83473181D01*
X140070734Y-83755661D01*
X140439356Y-83908726D01*
X140838493Y-83909074D01*
X141207381Y-83756652D01*
X141489861Y-83474666D01*
X141642926Y-83106044D01*
X141642927Y-83104293D01*
X142176326Y-83104293D01*
X142328748Y-83473181D01*
X142610734Y-83755661D01*
X142979356Y-83908726D01*
X143378493Y-83909074D01*
X143747381Y-83756652D01*
X144029861Y-83474666D01*
X144182926Y-83106044D01*
X144182927Y-83104293D01*
X144716326Y-83104293D01*
X144868748Y-83473181D01*
X145150734Y-83755661D01*
X145519356Y-83908726D01*
X145918493Y-83909074D01*
X146287381Y-83756652D01*
X146569861Y-83474666D01*
X146722926Y-83106044D01*
X146723274Y-82706907D01*
X146570852Y-82338019D01*
X146288866Y-82055539D01*
X145920244Y-81902474D01*
X145521107Y-81902126D01*
X145152219Y-82054548D01*
X144869739Y-82336534D01*
X144716674Y-82705156D01*
X144716326Y-83104293D01*
X144182927Y-83104293D01*
X144183274Y-82706907D01*
X144030852Y-82338019D01*
X143748866Y-82055539D01*
X143380244Y-81902474D01*
X142981107Y-81902126D01*
X142612219Y-82054548D01*
X142329739Y-82336534D01*
X142176674Y-82705156D01*
X142176326Y-83104293D01*
X141642927Y-83104293D01*
X141643274Y-82706907D01*
X141490852Y-82338019D01*
X141208866Y-82055539D01*
X140840244Y-81902474D01*
X140441107Y-81902126D01*
X140072219Y-82054548D01*
X139789739Y-82336534D01*
X139636674Y-82705156D01*
X139636326Y-83104293D01*
X130149600Y-83104293D01*
X130149600Y-81301707D01*
X141189219Y-81301707D01*
X141254284Y-81527119D01*
X141748676Y-81689558D01*
X142267598Y-81650438D01*
X142565316Y-81527119D01*
X142630381Y-81301707D01*
X141909800Y-80581126D01*
X141189219Y-81301707D01*
X130149600Y-81301707D01*
X130149600Y-80204476D01*
X140585842Y-80204476D01*
X140624962Y-80723398D01*
X140748281Y-81021116D01*
X140973693Y-81086181D01*
X141694274Y-80365600D01*
X142125326Y-80365600D01*
X142845907Y-81086181D01*
X143071319Y-81021116D01*
X143221414Y-80564293D01*
X143446326Y-80564293D01*
X143598748Y-80933181D01*
X143880734Y-81215661D01*
X144249356Y-81368726D01*
X144648493Y-81369074D01*
X145017381Y-81216652D01*
X145299861Y-80934666D01*
X145452926Y-80566044D01*
X145452927Y-80564293D01*
X145986326Y-80564293D01*
X146138748Y-80933181D01*
X146420734Y-81215661D01*
X146789356Y-81368726D01*
X147188493Y-81369074D01*
X147557381Y-81216652D01*
X147839861Y-80934666D01*
X147992926Y-80566044D01*
X147993274Y-80166907D01*
X147840852Y-79798019D01*
X147558866Y-79515539D01*
X147190244Y-79362474D01*
X146791107Y-79362126D01*
X146422219Y-79514548D01*
X146139739Y-79796534D01*
X145986674Y-80165156D01*
X145986326Y-80564293D01*
X145452927Y-80564293D01*
X145453274Y-80166907D01*
X145386013Y-80004123D01*
X147551855Y-77838281D01*
X147697240Y-77838408D01*
X147926044Y-77743868D01*
X148101253Y-77568965D01*
X148196192Y-77340326D01*
X148196408Y-77092760D01*
X148101868Y-76863956D01*
X147926965Y-76688747D01*
X147698326Y-76593808D01*
X147450760Y-76593592D01*
X147221956Y-76688132D01*
X147046747Y-76863035D01*
X146951808Y-77091674D01*
X146951636Y-77289028D01*
X144811310Y-79429354D01*
X144650244Y-79362474D01*
X144251107Y-79362126D01*
X143882219Y-79514548D01*
X143599739Y-79796534D01*
X143446674Y-80165156D01*
X143446326Y-80564293D01*
X143221414Y-80564293D01*
X143233758Y-80526724D01*
X143194638Y-80007802D01*
X143071319Y-79710084D01*
X142845907Y-79645019D01*
X142125326Y-80365600D01*
X141694274Y-80365600D01*
X140973693Y-79645019D01*
X140748281Y-79710084D01*
X140585842Y-80204476D01*
X130149600Y-80204476D01*
X130149600Y-79429493D01*
X141189219Y-79429493D01*
X141909800Y-80150074D01*
X142630381Y-79429493D01*
X142565316Y-79204081D01*
X142070924Y-79041642D01*
X141552002Y-79080762D01*
X141254284Y-79204081D01*
X141189219Y-79429493D01*
X130149600Y-79429493D01*
X130149600Y-70100240D01*
X133870592Y-70100240D01*
X133965132Y-70329044D01*
X134086600Y-70450725D01*
X134086600Y-74202393D01*
X133965747Y-74323035D01*
X133870808Y-74551674D01*
X133870592Y-74799240D01*
X133965132Y-75028044D01*
X134086600Y-75149725D01*
X134086600Y-78139393D01*
X133965747Y-78260035D01*
X133870808Y-78488674D01*
X133870592Y-78736240D01*
X133965132Y-78965044D01*
X134140035Y-79140253D01*
X134368674Y-79235192D01*
X134616240Y-79235408D01*
X134845044Y-79140868D01*
X135020253Y-78965965D01*
X135115192Y-78737326D01*
X135115408Y-78489760D01*
X135020868Y-78260956D01*
X134899400Y-78139275D01*
X134899400Y-75149607D01*
X135020253Y-75028965D01*
X135115192Y-74800326D01*
X135115408Y-74552760D01*
X135020868Y-74323956D01*
X134899400Y-74202275D01*
X134899400Y-70450607D01*
X135020253Y-70329965D01*
X135115192Y-70101326D01*
X135115408Y-69853760D01*
X135020868Y-69624956D01*
X134845965Y-69449747D01*
X134617326Y-69354808D01*
X134369760Y-69354592D01*
X134140956Y-69449132D01*
X133965747Y-69624035D01*
X133870808Y-69852674D01*
X133870592Y-70100240D01*
X130149600Y-70100240D01*
X130149600Y-54733240D01*
X133362592Y-54733240D01*
X133457132Y-54962044D01*
X133578600Y-55083725D01*
X133578600Y-64042393D01*
X133457747Y-64163035D01*
X133362808Y-64391674D01*
X133362592Y-64639240D01*
X133457132Y-64868044D01*
X133632035Y-65043253D01*
X133860674Y-65138192D01*
X134032606Y-65138342D01*
X134713632Y-65819368D01*
X134845477Y-65907465D01*
X135001000Y-65938400D01*
X138591393Y-65938400D01*
X138712035Y-66059253D01*
X138940674Y-66154192D01*
X139188240Y-66154408D01*
X139417044Y-66059868D01*
X139592253Y-65884965D01*
X139687192Y-65656326D01*
X139687408Y-65408760D01*
X139592868Y-65179956D01*
X139417965Y-65004747D01*
X139189326Y-64909808D01*
X138941760Y-64909592D01*
X138712956Y-65004132D01*
X138591275Y-65125600D01*
X135169336Y-65125600D01*
X134607259Y-64563523D01*
X134607408Y-64392760D01*
X134512868Y-64163956D01*
X134391400Y-64042275D01*
X134391400Y-62734240D01*
X140093592Y-62734240D01*
X140188132Y-62963044D01*
X140309600Y-63084725D01*
X140309600Y-71374000D01*
X140340535Y-71529523D01*
X140428632Y-71661368D01*
X142333632Y-73566368D01*
X142465477Y-73654465D01*
X142621000Y-73685400D01*
X147405664Y-73685400D01*
X149123400Y-75403136D01*
X149123400Y-79447949D01*
X148962219Y-79514548D01*
X148679739Y-79796534D01*
X148526674Y-80165156D01*
X148526326Y-80564293D01*
X148678748Y-80933181D01*
X148960734Y-81215661D01*
X149329356Y-81368726D01*
X149728493Y-81369074D01*
X150097381Y-81216652D01*
X150342600Y-80971862D01*
X150342600Y-81619664D01*
X149463064Y-82499200D01*
X149177451Y-82499200D01*
X149110852Y-82338019D01*
X148828866Y-82055539D01*
X148460244Y-81902474D01*
X148061107Y-81902126D01*
X147692219Y-82054548D01*
X147409739Y-82336534D01*
X147256674Y-82705156D01*
X147256326Y-83104293D01*
X147408748Y-83473181D01*
X147690734Y-83755661D01*
X148059356Y-83908726D01*
X148458493Y-83909074D01*
X148827381Y-83756652D01*
X149109861Y-83474666D01*
X149177406Y-83312000D01*
X149631400Y-83312000D01*
X149786923Y-83281065D01*
X149918768Y-83192968D01*
X151036368Y-82075368D01*
X151124465Y-81943523D01*
X151155400Y-81788000D01*
X151155400Y-75692000D01*
X151124465Y-75536477D01*
X151036368Y-75404632D01*
X148115368Y-72483632D01*
X147983523Y-72395535D01*
X147828000Y-72364600D01*
X143170336Y-72364600D01*
X142011400Y-71205664D01*
X142011400Y-63084607D01*
X142113119Y-62983066D01*
X142214600Y-63084725D01*
X142214600Y-64770000D01*
X142245535Y-64925523D01*
X142333632Y-65057368D01*
X145681741Y-68405478D01*
X145681592Y-68576240D01*
X145776132Y-68805044D01*
X145951035Y-68980253D01*
X146179674Y-69075192D01*
X146427240Y-69075408D01*
X146656044Y-68980868D01*
X146831253Y-68805965D01*
X146926192Y-68577326D01*
X146926364Y-68380100D01*
X146951741Y-68405477D01*
X146951592Y-68576240D01*
X147046132Y-68805044D01*
X147221035Y-68980253D01*
X147449674Y-69075192D01*
X147697240Y-69075408D01*
X147926044Y-68980868D01*
X148101253Y-68805965D01*
X148196192Y-68577326D01*
X148196364Y-68380100D01*
X148221741Y-68405477D01*
X148221592Y-68576240D01*
X148316132Y-68805044D01*
X148491035Y-68980253D01*
X148719674Y-69075192D01*
X148967240Y-69075408D01*
X149196044Y-68980868D01*
X149371253Y-68805965D01*
X149466192Y-68577326D01*
X149466364Y-68380101D01*
X149491741Y-68405478D01*
X149491592Y-68576240D01*
X149586132Y-68805044D01*
X149761035Y-68980253D01*
X149989674Y-69075192D01*
X150237240Y-69075408D01*
X150466044Y-68980868D01*
X150641253Y-68805965D01*
X150736192Y-68577326D01*
X150736408Y-68329760D01*
X150641868Y-68100956D01*
X150466965Y-67925747D01*
X150238326Y-67830808D01*
X150066395Y-67830658D01*
X149922977Y-67687240D01*
X151777592Y-67687240D01*
X151841200Y-67841183D01*
X151841200Y-75034009D01*
X151777808Y-75186674D01*
X151777592Y-75434240D01*
X151872132Y-75663044D01*
X152047035Y-75838253D01*
X152275674Y-75933192D01*
X152523240Y-75933408D01*
X152752044Y-75838868D01*
X152927253Y-75663965D01*
X153022192Y-75435326D01*
X153022408Y-75187760D01*
X152958800Y-75033817D01*
X152958800Y-67840991D01*
X153022192Y-67688326D01*
X153022408Y-67440760D01*
X152927868Y-67211956D01*
X152752965Y-67036747D01*
X152524326Y-66941808D01*
X152276760Y-66941592D01*
X152047956Y-67036132D01*
X151872747Y-67211035D01*
X151777808Y-67439674D01*
X151777592Y-67687240D01*
X149922977Y-67687240D01*
X145821400Y-63585664D01*
X145821400Y-63084607D01*
X145942253Y-62963965D01*
X146037192Y-62735326D01*
X146037408Y-62487760D01*
X145942868Y-62258956D01*
X145767965Y-62083747D01*
X145539326Y-61988808D01*
X145291760Y-61988592D01*
X145062956Y-62083132D01*
X144970492Y-62175434D01*
X144878965Y-62083747D01*
X144650326Y-61988808D01*
X144402760Y-61988592D01*
X144173956Y-62083132D01*
X144081492Y-62175434D01*
X143989965Y-62083747D01*
X143761326Y-61988808D01*
X143513760Y-61988592D01*
X143284956Y-62083132D01*
X143128881Y-62238934D01*
X142973965Y-62083747D01*
X142745326Y-61988808D01*
X142497760Y-61988592D01*
X142268956Y-62083132D01*
X142112881Y-62238934D01*
X141957965Y-62083747D01*
X141729326Y-61988808D01*
X141481760Y-61988592D01*
X141252956Y-62083132D01*
X141160492Y-62175434D01*
X141068965Y-62083747D01*
X140840326Y-61988808D01*
X140592760Y-61988592D01*
X140363956Y-62083132D01*
X140188747Y-62258035D01*
X140093808Y-62486674D01*
X140093592Y-62734240D01*
X134391400Y-62734240D01*
X134391400Y-59381440D01*
X139864992Y-59381440D01*
X139959532Y-59610244D01*
X140134435Y-59785453D01*
X140363074Y-59880392D01*
X140610640Y-59880608D01*
X140839444Y-59786068D01*
X140961125Y-59664600D01*
X149098000Y-59664600D01*
X148942478Y-59695534D01*
X148810632Y-59783632D01*
X147494523Y-61099741D01*
X147323760Y-61099592D01*
X147094956Y-61194132D01*
X146919747Y-61369035D01*
X146824808Y-61597674D01*
X146824592Y-61845240D01*
X146919132Y-62074044D01*
X147094035Y-62249253D01*
X147200574Y-62293492D01*
X147094956Y-62337132D01*
X146919747Y-62512035D01*
X146824808Y-62740674D01*
X146824592Y-62988240D01*
X146919132Y-63217044D01*
X147094035Y-63392253D01*
X147322674Y-63487192D01*
X147570240Y-63487408D01*
X147799044Y-63392868D01*
X147920725Y-63271400D01*
X153323393Y-63271400D01*
X153444035Y-63392253D01*
X153672674Y-63487192D01*
X153920240Y-63487408D01*
X154149044Y-63392868D01*
X154324253Y-63217965D01*
X154419192Y-62989326D01*
X154419192Y-62988240D01*
X156095592Y-62988240D01*
X156190132Y-63217044D01*
X156365035Y-63392253D01*
X156593674Y-63487192D01*
X156841240Y-63487408D01*
X157070044Y-63392868D01*
X157191725Y-63271400D01*
X157641393Y-63271400D01*
X157762035Y-63392253D01*
X157990674Y-63487192D01*
X158238240Y-63487408D01*
X158467044Y-63392868D01*
X158642253Y-63217965D01*
X158737192Y-62989326D01*
X158737408Y-62741760D01*
X158642868Y-62512956D01*
X158591377Y-62461375D01*
X158634570Y-62474633D01*
X159077179Y-62432513D01*
X159290466Y-62344167D01*
X159331849Y-62138375D01*
X158750000Y-61556526D01*
X158735858Y-61570669D01*
X158520332Y-61355143D01*
X158534474Y-61341000D01*
X158965526Y-61341000D01*
X159547375Y-61922849D01*
X159753167Y-61881466D01*
X159883633Y-61456430D01*
X159841513Y-61013821D01*
X159753167Y-60800534D01*
X159547375Y-60759151D01*
X158965526Y-61341000D01*
X158534474Y-61341000D01*
X158520332Y-61326858D01*
X158735858Y-61111332D01*
X158750000Y-61125474D01*
X159048263Y-60827211D01*
X159209813Y-60760460D01*
X159438657Y-60532016D01*
X159562659Y-60233385D01*
X159562941Y-59910033D01*
X159439460Y-59611187D01*
X159264474Y-59435895D01*
X159438657Y-59262016D01*
X159562659Y-58963385D01*
X159562941Y-58640033D01*
X159439460Y-58341187D01*
X159264474Y-58165895D01*
X159438657Y-57992016D01*
X159562659Y-57693385D01*
X159562941Y-57370033D01*
X159439460Y-57071187D01*
X159264474Y-56895895D01*
X159438657Y-56722016D01*
X159562659Y-56423385D01*
X159562941Y-56100033D01*
X159439460Y-55801187D01*
X159211016Y-55572343D01*
X158912385Y-55448341D01*
X158589033Y-55448059D01*
X158290187Y-55571540D01*
X158114895Y-55746526D01*
X157941016Y-55572343D01*
X157642385Y-55448341D01*
X157319033Y-55448059D01*
X157020187Y-55571540D01*
X156791343Y-55799984D01*
X156667341Y-56098615D01*
X156667059Y-56421967D01*
X156790540Y-56720813D01*
X156965526Y-56896105D01*
X156791343Y-57069984D01*
X156667341Y-57368615D01*
X156667059Y-57691967D01*
X156790540Y-57990813D01*
X156965526Y-58166105D01*
X156791343Y-58339984D01*
X156667341Y-58638615D01*
X156667059Y-58961967D01*
X156790540Y-59260813D01*
X156965526Y-59436105D01*
X156791343Y-59609984D01*
X156667341Y-59908615D01*
X156667059Y-60231967D01*
X156790540Y-60530813D01*
X156825035Y-60565369D01*
X156755308Y-60610237D01*
X156685713Y-60712093D01*
X156661229Y-60833000D01*
X156661229Y-61849000D01*
X156682482Y-61961952D01*
X156749237Y-62065692D01*
X156851093Y-62135287D01*
X156972000Y-62159771D01*
X157960096Y-62159771D01*
X158042962Y-62242637D01*
X157991760Y-62242592D01*
X157762956Y-62337132D01*
X157641275Y-62458600D01*
X157191607Y-62458600D01*
X157070965Y-62337747D01*
X156842326Y-62242808D01*
X156594760Y-62242592D01*
X156365956Y-62337132D01*
X156190747Y-62512035D01*
X156095808Y-62740674D01*
X156095592Y-62988240D01*
X154419192Y-62988240D01*
X154419408Y-62741760D01*
X154324868Y-62512956D01*
X154149965Y-62337747D01*
X153921326Y-62242808D01*
X153673760Y-62242592D01*
X153444956Y-62337132D01*
X153323275Y-62458600D01*
X147920607Y-62458600D01*
X147799965Y-62337747D01*
X147693426Y-62293508D01*
X147799044Y-62249868D01*
X147974253Y-62074965D01*
X148069192Y-61846326D01*
X148069342Y-61674394D01*
X149266336Y-60477400D01*
X153239116Y-60477400D01*
X153269132Y-60550044D01*
X153444035Y-60725253D01*
X153672674Y-60820192D01*
X153920240Y-60820408D01*
X154149044Y-60725868D01*
X154324253Y-60550965D01*
X154419192Y-60322326D01*
X154419408Y-60074760D01*
X154324868Y-59845956D01*
X154194488Y-59715348D01*
X154298853Y-59611165D01*
X154393792Y-59382526D01*
X154394008Y-59134960D01*
X154299468Y-58906156D01*
X154124565Y-58730947D01*
X153895926Y-58636008D01*
X153648360Y-58635792D01*
X153419556Y-58730332D01*
X153297875Y-58851800D01*
X140961007Y-58851800D01*
X140840365Y-58730947D01*
X140611726Y-58636008D01*
X140364160Y-58635792D01*
X140135356Y-58730332D01*
X139960147Y-58905235D01*
X139865208Y-59133874D01*
X139864992Y-59381440D01*
X134391400Y-59381440D01*
X134391400Y-55083607D01*
X134512253Y-54962965D01*
X134607192Y-54734326D01*
X134607408Y-54486760D01*
X134512868Y-54257956D01*
X134337965Y-54082747D01*
X134109326Y-53987808D01*
X133861760Y-53987592D01*
X133632956Y-54082132D01*
X133457747Y-54257035D01*
X133362808Y-54485674D01*
X133362592Y-54733240D01*
X130149600Y-54733240D01*
X130149600Y-53695600D01*
X140106400Y-53695600D01*
X140106400Y-57912000D01*
X140106400Y-57912000D01*
G37*
X140106400Y-57912000D02*
X140114405Y-57951528D01*
X140137157Y-57984828D01*
X140171073Y-58006652D01*
X140208000Y-58013600D01*
X149860000Y-58013600D01*
X149899528Y-58005595D01*
X149932828Y-57982843D01*
X149954652Y-57948927D01*
X149961600Y-57912000D01*
X149961600Y-53695600D01*
X159918400Y-53695600D01*
X159918400Y-66294000D01*
X159887465Y-66138477D01*
X159799368Y-66006632D01*
X159037368Y-65244632D01*
X158905523Y-65156535D01*
X158750000Y-65125600D01*
X157699607Y-65125600D01*
X157578965Y-65004747D01*
X157350326Y-64909808D01*
X157102760Y-64909592D01*
X156950982Y-64972305D01*
X156878368Y-64863632D01*
X155816259Y-63801523D01*
X155816408Y-63630760D01*
X155721868Y-63401956D01*
X155546965Y-63226747D01*
X155318326Y-63131808D01*
X155070760Y-63131592D01*
X154841956Y-63226132D01*
X154666747Y-63401035D01*
X154571808Y-63629674D01*
X154571592Y-63877240D01*
X154666132Y-64106044D01*
X154841035Y-64281253D01*
X155069674Y-64376192D01*
X155241606Y-64376342D01*
X156184600Y-65319336D01*
X156184600Y-74202393D01*
X156063747Y-74323035D01*
X155968808Y-74551674D01*
X155968592Y-74799240D01*
X156063132Y-75028044D01*
X156238035Y-75203253D01*
X156466674Y-75298192D01*
X156714240Y-75298408D01*
X156943044Y-75203868D01*
X157118253Y-75028965D01*
X157213192Y-74800326D01*
X157213408Y-74552760D01*
X157118868Y-74323956D01*
X156997400Y-74202275D01*
X156997400Y-66110894D01*
X157101674Y-66154192D01*
X157349240Y-66154408D01*
X157578044Y-66059868D01*
X157699725Y-65938400D01*
X158581664Y-65938400D01*
X159105600Y-66462336D01*
X159105600Y-74202393D01*
X158984747Y-74323035D01*
X158889808Y-74551674D01*
X158889592Y-74799240D01*
X158984132Y-75028044D01*
X159159035Y-75203253D01*
X159387674Y-75298192D01*
X159635240Y-75298408D01*
X159864044Y-75203868D01*
X159918400Y-75149607D01*
X159918400Y-81785138D01*
X157943994Y-79810732D01*
X157880868Y-79657956D01*
X157705965Y-79482747D01*
X157552132Y-79418870D01*
X156165994Y-78032732D01*
X156102868Y-77879956D01*
X155927965Y-77704747D01*
X155699326Y-77609808D01*
X155451760Y-77609592D01*
X155222956Y-77704132D01*
X155047747Y-77879035D01*
X154952808Y-78107674D01*
X154952592Y-78355240D01*
X155047132Y-78584044D01*
X155222035Y-78759253D01*
X155375868Y-78823130D01*
X156762006Y-80209268D01*
X156825132Y-80362044D01*
X157000035Y-80537253D01*
X157153868Y-80601130D01*
X159207200Y-82654462D01*
X159207200Y-92433009D01*
X159143808Y-92585674D01*
X159143592Y-92833240D01*
X159238132Y-93062044D01*
X159413035Y-93237253D01*
X159641674Y-93332192D01*
X159889240Y-93332408D01*
X159918400Y-93320359D01*
X159918400Y-97180400D01*
X130149600Y-97180400D01*
X130149600Y-87510093D01*
X136245833Y-87510093D01*
X136373397Y-87788137D01*
X137052190Y-88035586D01*
X137774007Y-88004437D01*
X138035507Y-87896121D01*
X137755931Y-88175209D01*
X137465332Y-88875050D01*
X137464670Y-89632826D01*
X137754048Y-90333173D01*
X138289409Y-90869469D01*
X138989250Y-91160068D01*
X139747026Y-91160730D01*
X140447373Y-90871352D01*
X140983669Y-90335991D01*
X141274268Y-89636150D01*
X141274270Y-89632826D01*
X148894670Y-89632826D01*
X149184048Y-90333173D01*
X149719409Y-90869469D01*
X150419250Y-91160068D01*
X151177026Y-91160730D01*
X151877373Y-90871352D01*
X152413669Y-90335991D01*
X152704268Y-89636150D01*
X152704930Y-88878374D01*
X152415552Y-88178027D01*
X152113841Y-87875789D01*
X152552190Y-88035586D01*
X153274007Y-88004437D01*
X153796203Y-87788137D01*
X153923767Y-87510093D01*
X152834800Y-86421126D01*
X152820658Y-86435269D01*
X152605132Y-86219743D01*
X152619274Y-86205600D01*
X153050326Y-86205600D01*
X154139293Y-87294567D01*
X154417337Y-87167003D01*
X154664786Y-86488210D01*
X154633637Y-85766393D01*
X154417337Y-85244197D01*
X154139293Y-85116633D01*
X153050326Y-86205600D01*
X152619274Y-86205600D01*
X151530307Y-85116633D01*
X151252263Y-85244197D01*
X151004814Y-85922990D01*
X151035963Y-86644807D01*
X151252263Y-87167003D01*
X151530305Y-87294566D01*
X151419108Y-87405763D01*
X151495224Y-87481879D01*
X151180350Y-87351132D01*
X150422574Y-87350470D01*
X149722227Y-87639848D01*
X149185931Y-88175209D01*
X148895332Y-88875050D01*
X148894670Y-89632826D01*
X141274270Y-89632826D01*
X141274930Y-88878374D01*
X140985552Y-88178027D01*
X140450191Y-87641731D01*
X139750350Y-87351132D01*
X138992574Y-87350470D01*
X138674261Y-87481994D01*
X138750492Y-87405763D01*
X138639295Y-87294566D01*
X138917337Y-87167003D01*
X139164786Y-86488210D01*
X139133637Y-85766393D01*
X138917337Y-85244197D01*
X138639293Y-85116633D01*
X137550326Y-86205600D01*
X137564469Y-86219743D01*
X137348943Y-86435269D01*
X137334800Y-86421126D01*
X136245833Y-87510093D01*
X130149600Y-87510093D01*
X130149600Y-85922990D01*
X135504814Y-85922990D01*
X135535963Y-86644807D01*
X135752263Y-87167003D01*
X136030307Y-87294567D01*
X137119274Y-86205600D01*
X136030307Y-85116633D01*
X135752263Y-85244197D01*
X135504814Y-85922990D01*
X130149600Y-85922990D01*
X130149600Y-84901107D01*
X136245833Y-84901107D01*
X137334800Y-85990074D01*
X138423767Y-84901107D01*
X151745833Y-84901107D01*
X152834800Y-85990074D01*
X153923767Y-84901107D01*
X153796203Y-84623063D01*
X153117410Y-84375614D01*
X152395593Y-84406763D01*
X151873397Y-84623063D01*
X151745833Y-84901107D01*
X138423767Y-84901107D01*
X138296203Y-84623063D01*
X137617410Y-84375614D01*
X136895593Y-84406763D01*
X136373397Y-84623063D01*
X136245833Y-84901107D01*
X130149600Y-84901107D01*
X130149600Y-83104293D01*
X139636326Y-83104293D01*
X139788748Y-83473181D01*
X140070734Y-83755661D01*
X140439356Y-83908726D01*
X140838493Y-83909074D01*
X141207381Y-83756652D01*
X141489861Y-83474666D01*
X141642926Y-83106044D01*
X141642927Y-83104293D01*
X142176326Y-83104293D01*
X142328748Y-83473181D01*
X142610734Y-83755661D01*
X142979356Y-83908726D01*
X143378493Y-83909074D01*
X143747381Y-83756652D01*
X144029861Y-83474666D01*
X144182926Y-83106044D01*
X144182927Y-83104293D01*
X144716326Y-83104293D01*
X144868748Y-83473181D01*
X145150734Y-83755661D01*
X145519356Y-83908726D01*
X145918493Y-83909074D01*
X146287381Y-83756652D01*
X146569861Y-83474666D01*
X146722926Y-83106044D01*
X146723274Y-82706907D01*
X146570852Y-82338019D01*
X146288866Y-82055539D01*
X145920244Y-81902474D01*
X145521107Y-81902126D01*
X145152219Y-82054548D01*
X144869739Y-82336534D01*
X144716674Y-82705156D01*
X144716326Y-83104293D01*
X144182927Y-83104293D01*
X144183274Y-82706907D01*
X144030852Y-82338019D01*
X143748866Y-82055539D01*
X143380244Y-81902474D01*
X142981107Y-81902126D01*
X142612219Y-82054548D01*
X142329739Y-82336534D01*
X142176674Y-82705156D01*
X142176326Y-83104293D01*
X141642927Y-83104293D01*
X141643274Y-82706907D01*
X141490852Y-82338019D01*
X141208866Y-82055539D01*
X140840244Y-81902474D01*
X140441107Y-81902126D01*
X140072219Y-82054548D01*
X139789739Y-82336534D01*
X139636674Y-82705156D01*
X139636326Y-83104293D01*
X130149600Y-83104293D01*
X130149600Y-81301707D01*
X141189219Y-81301707D01*
X141254284Y-81527119D01*
X141748676Y-81689558D01*
X142267598Y-81650438D01*
X142565316Y-81527119D01*
X142630381Y-81301707D01*
X141909800Y-80581126D01*
X141189219Y-81301707D01*
X130149600Y-81301707D01*
X130149600Y-80204476D01*
X140585842Y-80204476D01*
X140624962Y-80723398D01*
X140748281Y-81021116D01*
X140973693Y-81086181D01*
X141694274Y-80365600D01*
X142125326Y-80365600D01*
X142845907Y-81086181D01*
X143071319Y-81021116D01*
X143221414Y-80564293D01*
X143446326Y-80564293D01*
X143598748Y-80933181D01*
X143880734Y-81215661D01*
X144249356Y-81368726D01*
X144648493Y-81369074D01*
X145017381Y-81216652D01*
X145299861Y-80934666D01*
X145452926Y-80566044D01*
X145452927Y-80564293D01*
X145986326Y-80564293D01*
X146138748Y-80933181D01*
X146420734Y-81215661D01*
X146789356Y-81368726D01*
X147188493Y-81369074D01*
X147557381Y-81216652D01*
X147839861Y-80934666D01*
X147992926Y-80566044D01*
X147993274Y-80166907D01*
X147840852Y-79798019D01*
X147558866Y-79515539D01*
X147190244Y-79362474D01*
X146791107Y-79362126D01*
X146422219Y-79514548D01*
X146139739Y-79796534D01*
X145986674Y-80165156D01*
X145986326Y-80564293D01*
X145452927Y-80564293D01*
X145453274Y-80166907D01*
X145386013Y-80004123D01*
X147551855Y-77838281D01*
X147697240Y-77838408D01*
X147926044Y-77743868D01*
X148101253Y-77568965D01*
X148196192Y-77340326D01*
X148196408Y-77092760D01*
X148101868Y-76863956D01*
X147926965Y-76688747D01*
X147698326Y-76593808D01*
X147450760Y-76593592D01*
X147221956Y-76688132D01*
X147046747Y-76863035D01*
X146951808Y-77091674D01*
X146951636Y-77289028D01*
X144811310Y-79429354D01*
X144650244Y-79362474D01*
X144251107Y-79362126D01*
X143882219Y-79514548D01*
X143599739Y-79796534D01*
X143446674Y-80165156D01*
X143446326Y-80564293D01*
X143221414Y-80564293D01*
X143233758Y-80526724D01*
X143194638Y-80007802D01*
X143071319Y-79710084D01*
X142845907Y-79645019D01*
X142125326Y-80365600D01*
X141694274Y-80365600D01*
X140973693Y-79645019D01*
X140748281Y-79710084D01*
X140585842Y-80204476D01*
X130149600Y-80204476D01*
X130149600Y-79429493D01*
X141189219Y-79429493D01*
X141909800Y-80150074D01*
X142630381Y-79429493D01*
X142565316Y-79204081D01*
X142070924Y-79041642D01*
X141552002Y-79080762D01*
X141254284Y-79204081D01*
X141189219Y-79429493D01*
X130149600Y-79429493D01*
X130149600Y-70100240D01*
X133870592Y-70100240D01*
X133965132Y-70329044D01*
X134086600Y-70450725D01*
X134086600Y-74202393D01*
X133965747Y-74323035D01*
X133870808Y-74551674D01*
X133870592Y-74799240D01*
X133965132Y-75028044D01*
X134086600Y-75149725D01*
X134086600Y-78139393D01*
X133965747Y-78260035D01*
X133870808Y-78488674D01*
X133870592Y-78736240D01*
X133965132Y-78965044D01*
X134140035Y-79140253D01*
X134368674Y-79235192D01*
X134616240Y-79235408D01*
X134845044Y-79140868D01*
X135020253Y-78965965D01*
X135115192Y-78737326D01*
X135115408Y-78489760D01*
X135020868Y-78260956D01*
X134899400Y-78139275D01*
X134899400Y-75149607D01*
X135020253Y-75028965D01*
X135115192Y-74800326D01*
X135115408Y-74552760D01*
X135020868Y-74323956D01*
X134899400Y-74202275D01*
X134899400Y-70450607D01*
X135020253Y-70329965D01*
X135115192Y-70101326D01*
X135115408Y-69853760D01*
X135020868Y-69624956D01*
X134845965Y-69449747D01*
X134617326Y-69354808D01*
X134369760Y-69354592D01*
X134140956Y-69449132D01*
X133965747Y-69624035D01*
X133870808Y-69852674D01*
X133870592Y-70100240D01*
X130149600Y-70100240D01*
X130149600Y-54733240D01*
X133362592Y-54733240D01*
X133457132Y-54962044D01*
X133578600Y-55083725D01*
X133578600Y-64042393D01*
X133457747Y-64163035D01*
X133362808Y-64391674D01*
X133362592Y-64639240D01*
X133457132Y-64868044D01*
X133632035Y-65043253D01*
X133860674Y-65138192D01*
X134032606Y-65138342D01*
X134713632Y-65819368D01*
X134845477Y-65907465D01*
X135001000Y-65938400D01*
X138591393Y-65938400D01*
X138712035Y-66059253D01*
X138940674Y-66154192D01*
X139188240Y-66154408D01*
X139417044Y-66059868D01*
X139592253Y-65884965D01*
X139687192Y-65656326D01*
X139687408Y-65408760D01*
X139592868Y-65179956D01*
X139417965Y-65004747D01*
X139189326Y-64909808D01*
X138941760Y-64909592D01*
X138712956Y-65004132D01*
X138591275Y-65125600D01*
X135169336Y-65125600D01*
X134607259Y-64563523D01*
X134607408Y-64392760D01*
X134512868Y-64163956D01*
X134391400Y-64042275D01*
X134391400Y-62734240D01*
X140093592Y-62734240D01*
X140188132Y-62963044D01*
X140309600Y-63084725D01*
X140309600Y-71374000D01*
X140340535Y-71529523D01*
X140428632Y-71661368D01*
X142333632Y-73566368D01*
X142465477Y-73654465D01*
X142621000Y-73685400D01*
X147405664Y-73685400D01*
X149123400Y-75403136D01*
X149123400Y-79447949D01*
X148962219Y-79514548D01*
X148679739Y-79796534D01*
X148526674Y-80165156D01*
X148526326Y-80564293D01*
X148678748Y-80933181D01*
X148960734Y-81215661D01*
X149329356Y-81368726D01*
X149728493Y-81369074D01*
X150097381Y-81216652D01*
X150342600Y-80971862D01*
X150342600Y-81619664D01*
X149463064Y-82499200D01*
X149177451Y-82499200D01*
X149110852Y-82338019D01*
X148828866Y-82055539D01*
X148460244Y-81902474D01*
X148061107Y-81902126D01*
X147692219Y-82054548D01*
X147409739Y-82336534D01*
X147256674Y-82705156D01*
X147256326Y-83104293D01*
X147408748Y-83473181D01*
X147690734Y-83755661D01*
X148059356Y-83908726D01*
X148458493Y-83909074D01*
X148827381Y-83756652D01*
X149109861Y-83474666D01*
X149177406Y-83312000D01*
X149631400Y-83312000D01*
X149786923Y-83281065D01*
X149918768Y-83192968D01*
X151036368Y-82075368D01*
X151124465Y-81943523D01*
X151155400Y-81788000D01*
X151155400Y-75692000D01*
X151124465Y-75536477D01*
X151036368Y-75404632D01*
X148115368Y-72483632D01*
X147983523Y-72395535D01*
X147828000Y-72364600D01*
X143170336Y-72364600D01*
X142011400Y-71205664D01*
X142011400Y-63084607D01*
X142113119Y-62983066D01*
X142214600Y-63084725D01*
X142214600Y-64770000D01*
X142245535Y-64925523D01*
X142333632Y-65057368D01*
X145681741Y-68405478D01*
X145681592Y-68576240D01*
X145776132Y-68805044D01*
X145951035Y-68980253D01*
X146179674Y-69075192D01*
X146427240Y-69075408D01*
X146656044Y-68980868D01*
X146831253Y-68805965D01*
X146926192Y-68577326D01*
X146926364Y-68380100D01*
X146951741Y-68405477D01*
X146951592Y-68576240D01*
X147046132Y-68805044D01*
X147221035Y-68980253D01*
X147449674Y-69075192D01*
X147697240Y-69075408D01*
X147926044Y-68980868D01*
X148101253Y-68805965D01*
X148196192Y-68577326D01*
X148196364Y-68380100D01*
X148221741Y-68405477D01*
X148221592Y-68576240D01*
X148316132Y-68805044D01*
X148491035Y-68980253D01*
X148719674Y-69075192D01*
X148967240Y-69075408D01*
X149196044Y-68980868D01*
X149371253Y-68805965D01*
X149466192Y-68577326D01*
X149466364Y-68380101D01*
X149491741Y-68405478D01*
X149491592Y-68576240D01*
X149586132Y-68805044D01*
X149761035Y-68980253D01*
X149989674Y-69075192D01*
X150237240Y-69075408D01*
X150466044Y-68980868D01*
X150641253Y-68805965D01*
X150736192Y-68577326D01*
X150736408Y-68329760D01*
X150641868Y-68100956D01*
X150466965Y-67925747D01*
X150238326Y-67830808D01*
X150066395Y-67830658D01*
X149922977Y-67687240D01*
X151777592Y-67687240D01*
X151841200Y-67841183D01*
X151841200Y-75034009D01*
X151777808Y-75186674D01*
X151777592Y-75434240D01*
X151872132Y-75663044D01*
X152047035Y-75838253D01*
X152275674Y-75933192D01*
X152523240Y-75933408D01*
X152752044Y-75838868D01*
X152927253Y-75663965D01*
X153022192Y-75435326D01*
X153022408Y-75187760D01*
X152958800Y-75033817D01*
X152958800Y-67840991D01*
X153022192Y-67688326D01*
X153022408Y-67440760D01*
X152927868Y-67211956D01*
X152752965Y-67036747D01*
X152524326Y-66941808D01*
X152276760Y-66941592D01*
X152047956Y-67036132D01*
X151872747Y-67211035D01*
X151777808Y-67439674D01*
X151777592Y-67687240D01*
X149922977Y-67687240D01*
X145821400Y-63585664D01*
X145821400Y-63084607D01*
X145942253Y-62963965D01*
X146037192Y-62735326D01*
X146037408Y-62487760D01*
X145942868Y-62258956D01*
X145767965Y-62083747D01*
X145539326Y-61988808D01*
X145291760Y-61988592D01*
X145062956Y-62083132D01*
X144970492Y-62175434D01*
X144878965Y-62083747D01*
X144650326Y-61988808D01*
X144402760Y-61988592D01*
X144173956Y-62083132D01*
X144081492Y-62175434D01*
X143989965Y-62083747D01*
X143761326Y-61988808D01*
X143513760Y-61988592D01*
X143284956Y-62083132D01*
X143128881Y-62238934D01*
X142973965Y-62083747D01*
X142745326Y-61988808D01*
X142497760Y-61988592D01*
X142268956Y-62083132D01*
X142112881Y-62238934D01*
X141957965Y-62083747D01*
X141729326Y-61988808D01*
X141481760Y-61988592D01*
X141252956Y-62083132D01*
X141160492Y-62175434D01*
X141068965Y-62083747D01*
X140840326Y-61988808D01*
X140592760Y-61988592D01*
X140363956Y-62083132D01*
X140188747Y-62258035D01*
X140093808Y-62486674D01*
X140093592Y-62734240D01*
X134391400Y-62734240D01*
X134391400Y-59381440D01*
X139864992Y-59381440D01*
X139959532Y-59610244D01*
X140134435Y-59785453D01*
X140363074Y-59880392D01*
X140610640Y-59880608D01*
X140839444Y-59786068D01*
X140961125Y-59664600D01*
X149098000Y-59664600D01*
X148942478Y-59695534D01*
X148810632Y-59783632D01*
X147494523Y-61099741D01*
X147323760Y-61099592D01*
X147094956Y-61194132D01*
X146919747Y-61369035D01*
X146824808Y-61597674D01*
X146824592Y-61845240D01*
X146919132Y-62074044D01*
X147094035Y-62249253D01*
X147200574Y-62293492D01*
X147094956Y-62337132D01*
X146919747Y-62512035D01*
X146824808Y-62740674D01*
X146824592Y-62988240D01*
X146919132Y-63217044D01*
X147094035Y-63392253D01*
X147322674Y-63487192D01*
X147570240Y-63487408D01*
X147799044Y-63392868D01*
X147920725Y-63271400D01*
X153323393Y-63271400D01*
X153444035Y-63392253D01*
X153672674Y-63487192D01*
X153920240Y-63487408D01*
X154149044Y-63392868D01*
X154324253Y-63217965D01*
X154419192Y-62989326D01*
X154419192Y-62988240D01*
X156095592Y-62988240D01*
X156190132Y-63217044D01*
X156365035Y-63392253D01*
X156593674Y-63487192D01*
X156841240Y-63487408D01*
X157070044Y-63392868D01*
X157191725Y-63271400D01*
X157641393Y-63271400D01*
X157762035Y-63392253D01*
X157990674Y-63487192D01*
X158238240Y-63487408D01*
X158467044Y-63392868D01*
X158642253Y-63217965D01*
X158737192Y-62989326D01*
X158737408Y-62741760D01*
X158642868Y-62512956D01*
X158591377Y-62461375D01*
X158634570Y-62474633D01*
X159077179Y-62432513D01*
X159290466Y-62344167D01*
X159331849Y-62138375D01*
X158750000Y-61556526D01*
X158735858Y-61570669D01*
X158520332Y-61355143D01*
X158534474Y-61341000D01*
X158965526Y-61341000D01*
X159547375Y-61922849D01*
X159753167Y-61881466D01*
X159883633Y-61456430D01*
X159841513Y-61013821D01*
X159753167Y-60800534D01*
X159547375Y-60759151D01*
X158965526Y-61341000D01*
X158534474Y-61341000D01*
X158520332Y-61326858D01*
X158735858Y-61111332D01*
X158750000Y-61125474D01*
X159048263Y-60827211D01*
X159209813Y-60760460D01*
X159438657Y-60532016D01*
X159562659Y-60233385D01*
X159562941Y-59910033D01*
X159439460Y-59611187D01*
X159264474Y-59435895D01*
X159438657Y-59262016D01*
X159562659Y-58963385D01*
X159562941Y-58640033D01*
X159439460Y-58341187D01*
X159264474Y-58165895D01*
X159438657Y-57992016D01*
X159562659Y-57693385D01*
X159562941Y-57370033D01*
X159439460Y-57071187D01*
X159264474Y-56895895D01*
X159438657Y-56722016D01*
X159562659Y-56423385D01*
X159562941Y-56100033D01*
X159439460Y-55801187D01*
X159211016Y-55572343D01*
X158912385Y-55448341D01*
X158589033Y-55448059D01*
X158290187Y-55571540D01*
X158114895Y-55746526D01*
X157941016Y-55572343D01*
X157642385Y-55448341D01*
X157319033Y-55448059D01*
X157020187Y-55571540D01*
X156791343Y-55799984D01*
X156667341Y-56098615D01*
X156667059Y-56421967D01*
X156790540Y-56720813D01*
X156965526Y-56896105D01*
X156791343Y-57069984D01*
X156667341Y-57368615D01*
X156667059Y-57691967D01*
X156790540Y-57990813D01*
X156965526Y-58166105D01*
X156791343Y-58339984D01*
X156667341Y-58638615D01*
X156667059Y-58961967D01*
X156790540Y-59260813D01*
X156965526Y-59436105D01*
X156791343Y-59609984D01*
X156667341Y-59908615D01*
X156667059Y-60231967D01*
X156790540Y-60530813D01*
X156825035Y-60565369D01*
X156755308Y-60610237D01*
X156685713Y-60712093D01*
X156661229Y-60833000D01*
X156661229Y-61849000D01*
X156682482Y-61961952D01*
X156749237Y-62065692D01*
X156851093Y-62135287D01*
X156972000Y-62159771D01*
X157960096Y-62159771D01*
X158042962Y-62242637D01*
X157991760Y-62242592D01*
X157762956Y-62337132D01*
X157641275Y-62458600D01*
X157191607Y-62458600D01*
X157070965Y-62337747D01*
X156842326Y-62242808D01*
X156594760Y-62242592D01*
X156365956Y-62337132D01*
X156190747Y-62512035D01*
X156095808Y-62740674D01*
X156095592Y-62988240D01*
X154419192Y-62988240D01*
X154419408Y-62741760D01*
X154324868Y-62512956D01*
X154149965Y-62337747D01*
X153921326Y-62242808D01*
X153673760Y-62242592D01*
X153444956Y-62337132D01*
X153323275Y-62458600D01*
X147920607Y-62458600D01*
X147799965Y-62337747D01*
X147693426Y-62293508D01*
X147799044Y-62249868D01*
X147974253Y-62074965D01*
X148069192Y-61846326D01*
X148069342Y-61674394D01*
X149266336Y-60477400D01*
X153239116Y-60477400D01*
X153269132Y-60550044D01*
X153444035Y-60725253D01*
X153672674Y-60820192D01*
X153920240Y-60820408D01*
X154149044Y-60725868D01*
X154324253Y-60550965D01*
X154419192Y-60322326D01*
X154419408Y-60074760D01*
X154324868Y-59845956D01*
X154194488Y-59715348D01*
X154298853Y-59611165D01*
X154393792Y-59382526D01*
X154394008Y-59134960D01*
X154299468Y-58906156D01*
X154124565Y-58730947D01*
X153895926Y-58636008D01*
X153648360Y-58635792D01*
X153419556Y-58730332D01*
X153297875Y-58851800D01*
X140961007Y-58851800D01*
X140840365Y-58730947D01*
X140611726Y-58636008D01*
X140364160Y-58635792D01*
X140135356Y-58730332D01*
X139960147Y-58905235D01*
X139865208Y-59133874D01*
X139864992Y-59381440D01*
X134391400Y-59381440D01*
X134391400Y-55083607D01*
X134512253Y-54962965D01*
X134607192Y-54734326D01*
X134607408Y-54486760D01*
X134512868Y-54257956D01*
X134337965Y-54082747D01*
X134109326Y-53987808D01*
X133861760Y-53987592D01*
X133632956Y-54082132D01*
X133457747Y-54257035D01*
X133362808Y-54485674D01*
X133362592Y-54733240D01*
X130149600Y-54733240D01*
X130149600Y-53695600D01*
X140106400Y-53695600D01*
X140106400Y-57912000D01*
M02*
