G04 #@! TF.FileFunction,Copper,L1,Top,Signal*
%FSLAX46Y46*%
G04 Gerber Fmt 4.6, Leading zero omitted, Abs format (unit mm)*
G04 Created by KiCad (PCBNEW 4.0.4-stable) date Sunday, April 30, 2017 'PMt' 09:58:20 PM*
%MOMM*%
%LPD*%
G01*
G04 APERTURE LIST*
%ADD10C,0.100000*%
%ADD11R,0.750000X0.700000*%
%ADD12R,1.219200X0.802000*%
%ADD13C,1.397000*%
%ADD14C,2.413000*%
%ADD15R,1.300480X1.498600*%
%ADD16R,0.899160X1.000760*%
%ADD17R,1.000760X0.899160*%
%ADD18R,0.450000X0.850000*%
%ADD19R,2.500000X1.600000*%
%ADD20R,1.000000X0.700000*%
%ADD21R,0.600000X1.500000*%
%ADD22R,2.500000X0.500000*%
%ADD23R,0.500000X2.500000*%
%ADD24R,1.016000X1.016000*%
%ADD25C,1.016000*%
%ADD26R,0.990000X0.690000*%
%ADD27C,0.635000*%
%ADD28C,0.508000*%
%ADD29C,0.203200*%
G04 APERTURE END LIST*
D10*
D11*
X158409000Y-75212500D03*
X158409000Y-74012500D03*
X157059000Y-74012500D03*
X157059000Y-75212500D03*
D12*
X131322000Y-59502000D03*
X131322000Y-61402000D03*
X133346000Y-60452000D03*
D13*
X149606000Y-82804000D03*
X148336000Y-80264000D03*
X147066000Y-82804000D03*
X145796000Y-80264000D03*
X144526000Y-82804000D03*
X143256000Y-80264000D03*
X141986000Y-82804000D03*
X140716000Y-80264000D03*
D14*
X137411000Y-86104000D03*
X152911000Y-86104000D03*
D15*
X146240500Y-90424000D03*
X144335500Y-90424000D03*
X133286500Y-69596000D03*
X131381500Y-69596000D03*
D16*
X157363160Y-64008000D03*
X158866840Y-64008000D03*
X133085840Y-74612500D03*
X131582160Y-74612500D03*
X131582160Y-64389000D03*
X133085840Y-64389000D03*
X133085840Y-71628000D03*
X131582160Y-71628000D03*
D17*
X135636000Y-63002160D03*
X135636000Y-64505840D03*
D16*
X158485840Y-77978000D03*
X156982160Y-77978000D03*
X158485840Y-79502000D03*
X156982160Y-79502000D03*
X131582160Y-54356000D03*
X133085840Y-54356000D03*
D18*
X156734000Y-70538000D03*
X157734000Y-70538000D03*
X158734000Y-70538000D03*
X158734000Y-67638000D03*
X157734000Y-67638000D03*
X156734000Y-67638000D03*
D19*
X157734000Y-69088000D03*
D20*
X146488000Y-87818000D03*
X146488000Y-86868000D03*
X146488000Y-85918000D03*
X144088000Y-85918000D03*
X144088000Y-87818000D03*
D21*
X149606000Y-69944000D03*
X148336000Y-69944000D03*
X147066000Y-69944000D03*
X145796000Y-69944000D03*
X144526000Y-69944000D03*
X143256000Y-69944000D03*
X141986000Y-69944000D03*
X141986000Y-75344000D03*
X143256000Y-75344000D03*
X144526000Y-75344000D03*
X145796000Y-75344000D03*
X147066000Y-75344000D03*
X148336000Y-75344000D03*
X149606000Y-75344000D03*
D22*
X138408600Y-53848000D03*
X138408600Y-54748000D03*
X138408600Y-55648000D03*
X138408600Y-56548000D03*
X138408600Y-57448000D03*
X138408600Y-58348000D03*
X138408600Y-59248000D03*
X138408600Y-60148000D03*
X138408600Y-61048000D03*
X138408600Y-61948000D03*
X138408600Y-62848000D03*
X138408600Y-63748000D03*
D23*
X140158600Y-65548000D03*
X141058600Y-65548000D03*
X141958600Y-65548000D03*
X142858600Y-65548000D03*
X143758600Y-65548000D03*
X144658600Y-65548000D03*
X145558600Y-65548000D03*
X146458600Y-65548000D03*
X147358600Y-65548000D03*
X148258600Y-65548000D03*
X149158600Y-65548000D03*
X150058600Y-65548000D03*
D22*
X151808600Y-63748000D03*
X151808600Y-62848000D03*
X151808600Y-61948000D03*
X151808600Y-61048000D03*
X151808600Y-60148000D03*
X151808600Y-59248000D03*
X151808600Y-58348000D03*
X151808600Y-57448000D03*
X151808600Y-56548000D03*
X151808600Y-55648000D03*
X151808600Y-54748000D03*
X151808600Y-53848000D03*
D24*
X157480000Y-61341000D03*
D25*
X158750000Y-61341000D03*
X157480000Y-60071000D03*
X158750000Y-60071000D03*
X157480000Y-58801000D03*
X158750000Y-58801000D03*
X157480000Y-57531000D03*
X158750000Y-57531000D03*
X157480000Y-56261000D03*
X158750000Y-56261000D03*
D17*
X152654000Y-69098160D03*
X152654000Y-70601840D03*
D26*
X133604000Y-57912000D03*
X133604000Y-56012000D03*
X131014000Y-56962000D03*
D27*
X142748000Y-90424000D03*
X157734000Y-71755000D03*
X158369000Y-72898000D03*
X151384000Y-70612000D03*
X145288000Y-86868000D03*
X148209000Y-67437000D03*
X141351000Y-67945000D03*
X142875000Y-67564000D03*
X134239000Y-71628000D03*
X131445000Y-68199000D03*
X132334000Y-57150000D03*
X132715000Y-61595000D03*
X158866840Y-64008000D03*
X132842000Y-67056000D03*
X143256000Y-77978000D03*
X141986000Y-61087000D03*
X140716000Y-61976000D03*
X154305000Y-67564000D03*
X155575000Y-67564000D03*
X154305000Y-75184000D03*
X155702000Y-75184000D03*
X155575000Y-77978000D03*
X154305000Y-77978000D03*
X148336000Y-68453000D03*
X145542000Y-62230000D03*
X144526000Y-67564000D03*
X144526000Y-63500000D03*
X153771600Y-59258200D03*
X140487400Y-59258200D03*
X147447000Y-61722000D03*
X153797000Y-60198000D03*
X147447000Y-62865000D03*
X158115000Y-62865000D03*
X156718000Y-62865000D03*
X153797000Y-62865000D03*
D28*
X146488000Y-87818000D02*
X147259000Y-87818000D01*
X147259000Y-87818000D02*
X147828000Y-87249000D01*
X147828000Y-85918000D02*
X147828000Y-87249000D01*
X147828000Y-87249000D02*
X147828000Y-89789000D01*
X147193000Y-90424000D02*
X146240500Y-90424000D01*
X147828000Y-89789000D02*
X147193000Y-90424000D01*
X149606000Y-82804000D02*
X149606000Y-84201000D01*
X147889000Y-85918000D02*
X147828000Y-85918000D01*
X147828000Y-85918000D02*
X146488000Y-85918000D01*
X149606000Y-84201000D02*
X147889000Y-85918000D01*
X144335500Y-90424000D02*
X142748000Y-90424000D01*
D29*
X157734000Y-70538000D02*
X157734000Y-71755000D01*
X158409000Y-74012500D02*
X158409000Y-72938000D01*
X158409000Y-72938000D02*
X158369000Y-72898000D01*
X152654000Y-70601840D02*
X151394160Y-70601840D01*
X151394160Y-70601840D02*
X151384000Y-70612000D01*
D28*
X146488000Y-86868000D02*
X145288000Y-86868000D01*
D29*
X147066000Y-69944000D02*
X147066000Y-68580000D01*
X148258600Y-67387400D02*
X148209000Y-67437000D01*
X148258600Y-67387400D02*
X148258600Y-65548000D01*
X147066000Y-68580000D02*
X148209000Y-67437000D01*
X141058600Y-67564000D02*
X141058600Y-67652600D01*
X141058600Y-67652600D02*
X141351000Y-67945000D01*
X141986000Y-69944000D02*
X143256000Y-69944000D01*
X141986000Y-69944000D02*
X141986000Y-68580000D01*
X141058600Y-67564000D02*
X141058600Y-65548000D01*
X141986000Y-68580000D02*
X141058600Y-67652600D01*
X143256000Y-69944000D02*
X143256000Y-67945000D01*
X143256000Y-67945000D02*
X142875000Y-67564000D01*
X142875000Y-67564000D02*
X142858600Y-67547600D01*
X142858600Y-67547600D02*
X142858600Y-65548000D01*
X133085840Y-71628000D02*
X134239000Y-71628000D01*
D28*
X131381500Y-69596000D02*
X131381500Y-68262500D01*
X131381500Y-68262500D02*
X131445000Y-68199000D01*
D29*
X133604000Y-57912000D02*
X133096000Y-57912000D01*
X133096000Y-57912000D02*
X132334000Y-57150000D01*
X131322000Y-61402000D02*
X132522000Y-61402000D01*
X132522000Y-61402000D02*
X132715000Y-61595000D01*
D28*
X151808600Y-57448000D02*
X151808600Y-58348000D01*
X151808600Y-56548000D02*
X151808600Y-57448000D01*
X151808600Y-55648000D02*
X151808600Y-56548000D01*
X151808600Y-54748000D02*
X151808600Y-55648000D01*
X151808600Y-53848000D02*
X151808600Y-54748000D01*
X138408600Y-54748000D02*
X138408600Y-55648000D01*
X138408600Y-53848000D02*
X138408600Y-54748000D01*
D29*
X140158600Y-65548000D02*
X140158600Y-67359400D01*
X140158600Y-67359400D02*
X140081000Y-67437000D01*
X149158600Y-65548000D02*
X149158600Y-67370600D01*
X149158600Y-67370600D02*
X149225000Y-67437000D01*
X157363160Y-64008000D02*
X157363160Y-65034160D01*
X157734000Y-65405000D02*
X157734000Y-67638000D01*
X157363160Y-65034160D02*
X157734000Y-65405000D01*
X131582160Y-64389000D02*
X131582160Y-65796160D01*
X131582160Y-65796160D02*
X132842000Y-67056000D01*
X131014000Y-56962000D02*
X130490000Y-56962000D01*
X130683000Y-64389000D02*
X131582160Y-64389000D01*
X129921000Y-63627000D02*
X130683000Y-64389000D01*
X129921000Y-57531000D02*
X129921000Y-63627000D01*
X130490000Y-56962000D02*
X129921000Y-57531000D01*
X131582160Y-54356000D02*
X131318000Y-54620160D01*
X131318000Y-54620160D02*
X131318000Y-56658000D01*
X131318000Y-56658000D02*
X131014000Y-56962000D01*
X157480000Y-61341000D02*
X157363160Y-61457840D01*
X157363160Y-61457840D02*
X157363160Y-64008000D01*
X132831840Y-74612500D02*
X132895340Y-74676000D01*
X131582160Y-71628000D02*
X131582160Y-74612500D01*
X133085840Y-64389000D02*
X135519160Y-64389000D01*
X135519160Y-64389000D02*
X135636000Y-64505840D01*
X143256000Y-77978000D02*
X143256000Y-75344000D01*
X145796000Y-75344000D02*
X145796000Y-80264000D01*
X144526000Y-82804000D02*
X145034000Y-82804000D01*
X145034000Y-82804000D02*
X147066000Y-80772000D01*
X147066000Y-80772000D02*
X147066000Y-75344000D01*
X144526000Y-75344000D02*
X144526000Y-78994000D01*
X144526000Y-78994000D02*
X143256000Y-80264000D01*
X141947000Y-61048000D02*
X138408600Y-61048000D01*
X141986000Y-61087000D02*
X141947000Y-61048000D01*
X140688000Y-61948000D02*
X138408600Y-61948000D01*
X140716000Y-61976000D02*
X140688000Y-61948000D01*
X138408600Y-62848000D02*
X136889000Y-62848000D01*
X135194000Y-59502000D02*
X131322000Y-59502000D01*
X136144000Y-60452000D02*
X135194000Y-59502000D01*
X136144000Y-62103000D02*
X136144000Y-60452000D01*
X136889000Y-62848000D02*
X136144000Y-62103000D01*
X135636000Y-63002160D02*
X135636000Y-61214000D01*
X134874000Y-60452000D02*
X133346000Y-60452000D01*
X135636000Y-61214000D02*
X134874000Y-60452000D01*
X156734000Y-67638000D02*
X155649000Y-67638000D01*
X155649000Y-67638000D02*
X155575000Y-67564000D01*
X157059000Y-75212500D02*
X155730500Y-75212500D01*
X155730500Y-75212500D02*
X155702000Y-75184000D01*
X150058600Y-65548000D02*
X153305000Y-65548000D01*
X155575000Y-77978000D02*
X156982160Y-77978000D01*
X154305000Y-66548000D02*
X154305000Y-66929000D01*
X154305000Y-66929000D02*
X154305000Y-67564000D01*
X154305000Y-67564000D02*
X154305000Y-75184000D01*
X154305000Y-75184000D02*
X154305000Y-77978000D01*
X153305000Y-65548000D02*
X154305000Y-66548000D01*
X150074600Y-65532000D02*
X150058600Y-65548000D01*
X150074600Y-65532000D02*
X150058600Y-65548000D01*
X156734000Y-70538000D02*
X154940000Y-70538000D01*
X157059000Y-74012500D02*
X154940000Y-74012500D01*
X151808600Y-63748000D02*
X153791000Y-63748000D01*
X155702000Y-79502000D02*
X156982160Y-79502000D01*
X154940000Y-78740000D02*
X155702000Y-79502000D01*
X154940000Y-64897000D02*
X154940000Y-69776000D01*
X154940000Y-69776000D02*
X154940000Y-70538000D01*
X154940000Y-70538000D02*
X154940000Y-74012500D01*
X154940000Y-74012500D02*
X154940000Y-78740000D01*
X153791000Y-63748000D02*
X154940000Y-64897000D01*
X151814600Y-63754000D02*
X151808600Y-63748000D01*
X138408600Y-56548000D02*
X140241000Y-56548000D01*
X148336000Y-68453000D02*
X148336000Y-69944000D01*
X145542000Y-61849000D02*
X145542000Y-62230000D01*
X140241000Y-56548000D02*
X145542000Y-61849000D01*
X138408600Y-60148000D02*
X143079000Y-60148000D01*
X144526000Y-67564000D02*
X144526000Y-69944000D01*
X144526000Y-61595000D02*
X144526000Y-63500000D01*
X143079000Y-60148000D02*
X144526000Y-61595000D01*
X133085840Y-54356000D02*
X133350000Y-54620160D01*
X133350000Y-54620160D02*
X133350000Y-55758000D01*
X133350000Y-55758000D02*
X133604000Y-56012000D01*
X138408600Y-59248000D02*
X136840000Y-59248000D01*
X136840000Y-59248000D02*
X133604000Y-56012000D01*
X153771600Y-59258200D02*
X154990800Y-59258200D01*
X138408600Y-59248000D02*
X140477200Y-59248000D01*
X140477200Y-59248000D02*
X140487400Y-59258200D01*
X159766000Y-56515000D02*
X158750000Y-57531000D01*
X159766000Y-55753000D02*
X159766000Y-56515000D01*
X159385000Y-55372000D02*
X159766000Y-55753000D01*
X156591000Y-55372000D02*
X159385000Y-55372000D01*
X156210000Y-55753000D02*
X156591000Y-55372000D01*
X156210000Y-58039000D02*
X156210000Y-55753000D01*
X154990800Y-59258200D02*
X156210000Y-58039000D01*
X146458600Y-62710400D02*
X147447000Y-61722000D01*
X146458600Y-65548000D02*
X146458600Y-62710400D01*
X153797000Y-60198000D02*
X157353000Y-60198000D01*
X157353000Y-60198000D02*
X157480000Y-60071000D01*
X147358600Y-62953400D02*
X147447000Y-62865000D01*
X147358600Y-65548000D02*
X147358600Y-62953400D01*
X159766000Y-61087000D02*
X158750000Y-60071000D01*
X159766000Y-62484000D02*
X159766000Y-61087000D01*
X159385000Y-62865000D02*
X159766000Y-62484000D01*
X158115000Y-62865000D02*
X159385000Y-62865000D01*
X153797000Y-62865000D02*
X156718000Y-62865000D01*
G36*
X139299000Y-66919257D02*
X139391806Y-67143311D01*
X139563289Y-67314794D01*
X139787343Y-67407600D01*
X139881200Y-67407600D01*
X140033600Y-67255200D01*
X140033600Y-66395600D01*
X140283600Y-66395600D01*
X140283600Y-67255200D01*
X140436000Y-67407600D01*
X140529857Y-67407600D01*
X140652200Y-67356924D01*
X140652200Y-67652600D01*
X140683135Y-67808123D01*
X140728759Y-67876404D01*
X140728592Y-68068240D01*
X140823132Y-68297044D01*
X140998035Y-68472253D01*
X141226674Y-68567192D01*
X141398606Y-68567342D01*
X141579600Y-68748336D01*
X141579600Y-68903249D01*
X141573048Y-68904482D01*
X141469308Y-68971237D01*
X141399713Y-69073093D01*
X141375229Y-69194000D01*
X141375229Y-70694000D01*
X141396482Y-70806952D01*
X141463237Y-70910692D01*
X141565093Y-70980287D01*
X141686000Y-71004771D01*
X142286000Y-71004771D01*
X142398952Y-70983518D01*
X142502692Y-70916763D01*
X142572287Y-70814907D01*
X142596771Y-70694000D01*
X142596771Y-70350400D01*
X142645229Y-70350400D01*
X142645229Y-70694000D01*
X142666482Y-70806952D01*
X142733237Y-70910692D01*
X142835093Y-70980287D01*
X142956000Y-71004771D01*
X143556000Y-71004771D01*
X143668952Y-70983518D01*
X143772692Y-70916763D01*
X143842287Y-70814907D01*
X143866771Y-70694000D01*
X143866771Y-69194000D01*
X143845518Y-69081048D01*
X143778763Y-68977308D01*
X143676907Y-68907713D01*
X143662400Y-68904775D01*
X143662400Y-67945000D01*
X143631465Y-67789477D01*
X143543368Y-67657632D01*
X143497259Y-67611523D01*
X143497408Y-67440760D01*
X143402868Y-67211956D01*
X143265000Y-67073847D01*
X143265000Y-67059560D01*
X143309549Y-67030894D01*
X143387693Y-67084287D01*
X143508600Y-67108771D01*
X144008600Y-67108771D01*
X144121552Y-67087518D01*
X144124163Y-67085838D01*
X143998747Y-67211035D01*
X143903808Y-67439674D01*
X143903592Y-67687240D01*
X143998132Y-67916044D01*
X144119600Y-68037725D01*
X144119600Y-68903249D01*
X144113048Y-68904482D01*
X144009308Y-68971237D01*
X143939713Y-69073093D01*
X143915229Y-69194000D01*
X143915229Y-70694000D01*
X143936482Y-70806952D01*
X144003237Y-70910692D01*
X144105093Y-70980287D01*
X144226000Y-71004771D01*
X144826000Y-71004771D01*
X144938952Y-70983518D01*
X144952488Y-70974808D01*
X144979206Y-71039311D01*
X145150689Y-71210794D01*
X145374743Y-71303600D01*
X145493600Y-71303600D01*
X145646000Y-71151200D01*
X145646000Y-70096400D01*
X145623600Y-70096400D01*
X145623600Y-69791600D01*
X145646000Y-69791600D01*
X145646000Y-68736800D01*
X145493600Y-68584400D01*
X145374743Y-68584400D01*
X145150689Y-68677206D01*
X144979206Y-68848689D01*
X144953026Y-68911894D01*
X144946907Y-68907713D01*
X144932400Y-68904775D01*
X144932400Y-68037607D01*
X145053253Y-67916965D01*
X145148192Y-67688326D01*
X145148408Y-67440760D01*
X145053868Y-67211956D01*
X144944180Y-67102076D01*
X145021552Y-67087518D01*
X145109549Y-67030894D01*
X145187693Y-67084287D01*
X145308600Y-67108771D01*
X145808600Y-67108771D01*
X145921552Y-67087518D01*
X146009549Y-67030894D01*
X146087693Y-67084287D01*
X146208600Y-67108771D01*
X146708600Y-67108771D01*
X146821552Y-67087518D01*
X146909549Y-67030894D01*
X146987693Y-67084287D01*
X147108600Y-67108771D01*
X147608600Y-67108771D01*
X147676805Y-67095938D01*
X147586808Y-67312674D01*
X147586658Y-67484606D01*
X146778632Y-68292632D01*
X146690535Y-68424477D01*
X146659600Y-68580000D01*
X146659600Y-68903249D01*
X146653048Y-68904482D01*
X146639512Y-68913192D01*
X146612794Y-68848689D01*
X146441311Y-68677206D01*
X146217257Y-68584400D01*
X146098400Y-68584400D01*
X145946000Y-68736800D01*
X145946000Y-69791600D01*
X145968400Y-69791600D01*
X145968400Y-70096400D01*
X145946000Y-70096400D01*
X145946000Y-71151200D01*
X146098400Y-71303600D01*
X146217257Y-71303600D01*
X146441311Y-71210794D01*
X146612794Y-71039311D01*
X146638974Y-70976106D01*
X146645093Y-70980287D01*
X146766000Y-71004771D01*
X147366000Y-71004771D01*
X147478952Y-70983518D01*
X147582692Y-70916763D01*
X147652287Y-70814907D01*
X147676771Y-70694000D01*
X147676771Y-69194000D01*
X147655518Y-69081048D01*
X147588763Y-68977308D01*
X147486907Y-68907713D01*
X147472400Y-68904775D01*
X147472400Y-68748336D01*
X147713652Y-68507084D01*
X147713592Y-68576240D01*
X147808132Y-68805044D01*
X147913518Y-68910614D01*
X147819308Y-68971237D01*
X147749713Y-69073093D01*
X147725229Y-69194000D01*
X147725229Y-70694000D01*
X147746482Y-70806952D01*
X147813237Y-70910692D01*
X147915093Y-70980287D01*
X148036000Y-71004771D01*
X148636000Y-71004771D01*
X148748952Y-70983518D01*
X148852692Y-70916763D01*
X148922287Y-70814907D01*
X148946771Y-70694000D01*
X148946771Y-69194000D01*
X148995229Y-69194000D01*
X148995229Y-70694000D01*
X149016482Y-70806952D01*
X149083237Y-70910692D01*
X149185093Y-70980287D01*
X149306000Y-71004771D01*
X149906000Y-71004771D01*
X150018952Y-70983518D01*
X150122692Y-70916763D01*
X150192287Y-70814907D01*
X150208419Y-70735240D01*
X150761592Y-70735240D01*
X150856132Y-70964044D01*
X151031035Y-71139253D01*
X151259674Y-71234192D01*
X151507240Y-71234408D01*
X151736044Y-71139868D01*
X151842849Y-71033250D01*
X151842849Y-71051420D01*
X151864102Y-71164372D01*
X151930857Y-71268112D01*
X152032713Y-71337707D01*
X152153620Y-71362191D01*
X153154380Y-71362191D01*
X153267332Y-71340938D01*
X153371072Y-71274183D01*
X153440667Y-71172327D01*
X153465151Y-71051420D01*
X153465151Y-70152260D01*
X153452335Y-70084149D01*
X153499691Y-70064534D01*
X153671174Y-69893051D01*
X153763980Y-69668997D01*
X153763980Y-69402960D01*
X153611580Y-69250560D01*
X152806400Y-69250560D01*
X152806400Y-69270560D01*
X152501600Y-69270560D01*
X152501600Y-69250560D01*
X151696420Y-69250560D01*
X151544020Y-69402960D01*
X151544020Y-69668997D01*
X151636826Y-69893051D01*
X151808309Y-70064534D01*
X151856566Y-70084523D01*
X151842849Y-70152260D01*
X151842849Y-70190816D01*
X151736965Y-70084747D01*
X151508326Y-69989808D01*
X151260760Y-69989592D01*
X151031956Y-70084132D01*
X150856747Y-70259035D01*
X150761808Y-70487674D01*
X150761592Y-70735240D01*
X150208419Y-70735240D01*
X150216771Y-70694000D01*
X150216771Y-69194000D01*
X150195518Y-69081048D01*
X150128763Y-68977308D01*
X150026907Y-68907713D01*
X149906000Y-68883229D01*
X149306000Y-68883229D01*
X149193048Y-68904482D01*
X149089308Y-68971237D01*
X149019713Y-69073093D01*
X148995229Y-69194000D01*
X148946771Y-69194000D01*
X148925518Y-69081048D01*
X148858763Y-68977308D01*
X148759531Y-68909506D01*
X148863253Y-68805965D01*
X148958192Y-68577326D01*
X148958235Y-68527323D01*
X151544020Y-68527323D01*
X151544020Y-68793360D01*
X151696420Y-68945760D01*
X152501600Y-68945760D01*
X152501600Y-68191380D01*
X152806400Y-68191380D01*
X152806400Y-68945760D01*
X153611580Y-68945760D01*
X153763980Y-68793360D01*
X153763980Y-68527323D01*
X153671174Y-68303269D01*
X153499691Y-68131786D01*
X153275637Y-68038980D01*
X152958800Y-68038980D01*
X152806400Y-68191380D01*
X152501600Y-68191380D01*
X152349200Y-68038980D01*
X152032363Y-68038980D01*
X151808309Y-68131786D01*
X151636826Y-68303269D01*
X151544020Y-68527323D01*
X148958235Y-68527323D01*
X148958408Y-68329760D01*
X148863868Y-68100956D01*
X148688965Y-67925747D01*
X148626300Y-67899726D01*
X148736253Y-67789965D01*
X148831192Y-67561326D01*
X148831326Y-67407600D01*
X148881200Y-67407600D01*
X149033600Y-67255200D01*
X149033600Y-66395600D01*
X149283600Y-66395600D01*
X149283600Y-67255200D01*
X149436000Y-67407600D01*
X149529857Y-67407600D01*
X149753911Y-67314794D01*
X149925394Y-67143311D01*
X149939701Y-67108771D01*
X150308600Y-67108771D01*
X150421552Y-67087518D01*
X150525292Y-67020763D01*
X150594887Y-66918907D01*
X150619371Y-66798000D01*
X150619371Y-66395600D01*
X153577863Y-66395600D01*
X153898600Y-66716337D01*
X153898600Y-67090393D01*
X153777747Y-67211035D01*
X153682808Y-67439674D01*
X153682592Y-67687240D01*
X153777132Y-67916044D01*
X153898600Y-68037725D01*
X153898600Y-74710393D01*
X153777747Y-74831035D01*
X153682808Y-75059674D01*
X153682592Y-75307240D01*
X153777132Y-75536044D01*
X153898600Y-75657725D01*
X153898600Y-77504393D01*
X153777747Y-77625035D01*
X153682808Y-77853674D01*
X153682592Y-78101240D01*
X153777132Y-78330044D01*
X153952035Y-78505253D01*
X154180674Y-78600192D01*
X154428240Y-78600408D01*
X154533600Y-78556874D01*
X154533600Y-78740000D01*
X154564535Y-78895523D01*
X154635428Y-79001620D01*
X154652632Y-79027368D01*
X155414632Y-79789368D01*
X155546477Y-79877465D01*
X155702000Y-79908400D01*
X156221809Y-79908400D01*
X156221809Y-80002380D01*
X156243062Y-80115332D01*
X156309817Y-80219072D01*
X156411673Y-80288667D01*
X156532580Y-80313151D01*
X157431740Y-80313151D01*
X157499851Y-80300335D01*
X157519466Y-80347691D01*
X157690949Y-80519174D01*
X157915003Y-80611980D01*
X158181040Y-80611980D01*
X158333440Y-80459580D01*
X158333440Y-79654400D01*
X158638240Y-79654400D01*
X158638240Y-80459580D01*
X158790640Y-80611980D01*
X159056677Y-80611980D01*
X159280731Y-80519174D01*
X159452214Y-80347691D01*
X159545020Y-80123637D01*
X159545020Y-79806800D01*
X159392620Y-79654400D01*
X158638240Y-79654400D01*
X158333440Y-79654400D01*
X158313440Y-79654400D01*
X158313440Y-79349600D01*
X158333440Y-79349600D01*
X158333440Y-78130400D01*
X158638240Y-78130400D01*
X158638240Y-79349600D01*
X159392620Y-79349600D01*
X159545020Y-79197200D01*
X159545020Y-78880363D01*
X159486880Y-78740000D01*
X159545020Y-78599637D01*
X159545020Y-78282800D01*
X159392620Y-78130400D01*
X158638240Y-78130400D01*
X158333440Y-78130400D01*
X158313440Y-78130400D01*
X158313440Y-77825600D01*
X158333440Y-77825600D01*
X158333440Y-77020420D01*
X158638240Y-77020420D01*
X158638240Y-77825600D01*
X159392620Y-77825600D01*
X159545020Y-77673200D01*
X159545020Y-77356363D01*
X159452214Y-77132309D01*
X159280731Y-76960826D01*
X159056677Y-76868020D01*
X158790640Y-76868020D01*
X158638240Y-77020420D01*
X158333440Y-77020420D01*
X158181040Y-76868020D01*
X157915003Y-76868020D01*
X157690949Y-76960826D01*
X157519466Y-77132309D01*
X157499477Y-77180566D01*
X157431740Y-77166849D01*
X156532580Y-77166849D01*
X156419628Y-77188102D01*
X156315888Y-77254857D01*
X156246293Y-77356713D01*
X156221809Y-77477620D01*
X156221809Y-77571600D01*
X156048607Y-77571600D01*
X155927965Y-77450747D01*
X155699326Y-77355808D01*
X155451760Y-77355592D01*
X155346400Y-77399126D01*
X155346400Y-77184410D01*
X155575137Y-77279389D01*
X155827755Y-77279610D01*
X156061228Y-77183140D01*
X156240013Y-77004668D01*
X156336889Y-76771363D01*
X156337110Y-76518745D01*
X156240640Y-76285272D01*
X156062168Y-76106487D01*
X155828863Y-76009611D01*
X155576245Y-76009390D01*
X155346400Y-76104361D01*
X155346400Y-75708613D01*
X155349035Y-75711253D01*
X155577674Y-75806192D01*
X155825240Y-75806408D01*
X156054044Y-75711868D01*
X156147175Y-75618900D01*
X156383841Y-75618900D01*
X156394482Y-75675452D01*
X156461237Y-75779192D01*
X156563093Y-75848787D01*
X156684000Y-75873271D01*
X157434000Y-75873271D01*
X157497917Y-75861244D01*
X157517206Y-75907811D01*
X157688689Y-76079294D01*
X157912743Y-76172100D01*
X158104200Y-76172100D01*
X158256600Y-76019700D01*
X158256600Y-75364900D01*
X158561400Y-75364900D01*
X158561400Y-76019700D01*
X158713800Y-76172100D01*
X158905257Y-76172100D01*
X159129311Y-76079294D01*
X159300794Y-75907811D01*
X159393600Y-75683757D01*
X159393600Y-75517300D01*
X159241200Y-75364900D01*
X158561400Y-75364900D01*
X158256600Y-75364900D01*
X158236600Y-75364900D01*
X158236600Y-75060100D01*
X158256600Y-75060100D01*
X158256600Y-75040100D01*
X158561400Y-75040100D01*
X158561400Y-75060100D01*
X159241200Y-75060100D01*
X159393600Y-74907700D01*
X159393600Y-74741243D01*
X159300794Y-74517189D01*
X159129311Y-74345706D01*
X159094771Y-74331399D01*
X159094771Y-73662500D01*
X159073518Y-73549548D01*
X159006763Y-73445808D01*
X158904907Y-73376213D01*
X158815400Y-73358088D01*
X158815400Y-73331677D01*
X158896253Y-73250965D01*
X158991192Y-73022326D01*
X158991408Y-72774760D01*
X158896868Y-72545956D01*
X158721965Y-72370747D01*
X158493326Y-72275808D01*
X158245760Y-72275592D01*
X158016956Y-72370132D01*
X157841747Y-72545035D01*
X157746808Y-72773674D01*
X157746592Y-73021240D01*
X157841132Y-73250044D01*
X157957086Y-73366201D01*
X157921048Y-73372982D01*
X157817308Y-73439737D01*
X157747713Y-73541593D01*
X157734395Y-73607358D01*
X157723518Y-73549548D01*
X157656763Y-73445808D01*
X157554907Y-73376213D01*
X157434000Y-73351729D01*
X156684000Y-73351729D01*
X156571048Y-73372982D01*
X156467308Y-73439737D01*
X156397713Y-73541593D01*
X156384650Y-73606100D01*
X155346400Y-73606100D01*
X155346400Y-70944400D01*
X156198229Y-70944400D01*
X156198229Y-70963000D01*
X156219482Y-71075952D01*
X156286237Y-71179692D01*
X156388093Y-71249287D01*
X156509000Y-71273771D01*
X156959000Y-71273771D01*
X157071952Y-71252518D01*
X157175692Y-71185763D01*
X157234634Y-71099499D01*
X157286237Y-71179692D01*
X157327600Y-71207954D01*
X157327600Y-71281393D01*
X157206747Y-71402035D01*
X157111808Y-71630674D01*
X157111592Y-71878240D01*
X157206132Y-72107044D01*
X157381035Y-72282253D01*
X157609674Y-72377192D01*
X157857240Y-72377408D01*
X158086044Y-72282868D01*
X158261253Y-72107965D01*
X158356192Y-71879326D01*
X158356408Y-71631760D01*
X158261868Y-71402956D01*
X158140400Y-71281275D01*
X158140400Y-71208473D01*
X158175692Y-71185763D01*
X158234634Y-71099499D01*
X158286237Y-71179692D01*
X158388093Y-71249287D01*
X158509000Y-71273771D01*
X158959000Y-71273771D01*
X159071952Y-71252518D01*
X159175692Y-71185763D01*
X159245287Y-71083907D01*
X159269771Y-70963000D01*
X159269771Y-70113000D01*
X159254525Y-70031975D01*
X159270287Y-70008907D01*
X159294771Y-69888000D01*
X159294771Y-68288000D01*
X159273518Y-68175048D01*
X159253409Y-68143798D01*
X159269771Y-68063000D01*
X159269771Y-67213000D01*
X159248518Y-67100048D01*
X159181763Y-66996308D01*
X159079907Y-66926713D01*
X158959000Y-66902229D01*
X158509000Y-66902229D01*
X158491467Y-66905528D01*
X158475794Y-66867689D01*
X158304311Y-66696206D01*
X158080257Y-66603400D01*
X157998900Y-66603400D01*
X157846500Y-66755800D01*
X157846500Y-67485600D01*
X157906400Y-67485600D01*
X157906400Y-67790400D01*
X157846500Y-67790400D01*
X157846500Y-67810400D01*
X157621500Y-67810400D01*
X157621500Y-67790400D01*
X157561600Y-67790400D01*
X157561600Y-67485600D01*
X157621500Y-67485600D01*
X157621500Y-66755800D01*
X157469100Y-66603400D01*
X157387743Y-66603400D01*
X157163689Y-66696206D01*
X156992206Y-66867689D01*
X156976437Y-66905760D01*
X156959000Y-66902229D01*
X156509000Y-66902229D01*
X156396048Y-66923482D01*
X156292308Y-66990237D01*
X156222713Y-67092093D01*
X156198229Y-67213000D01*
X156198229Y-67231600D01*
X156110985Y-67231600D01*
X156102868Y-67211956D01*
X155927965Y-67036747D01*
X155699326Y-66941808D01*
X155451760Y-66941592D01*
X155346400Y-66985126D01*
X155346400Y-66395600D01*
X159918400Y-66395600D01*
X159918400Y-71956215D01*
X159892863Y-71945611D01*
X159640245Y-71945390D01*
X159406772Y-72041860D01*
X159227987Y-72220332D01*
X159131111Y-72453637D01*
X159130890Y-72706255D01*
X159227360Y-72939728D01*
X159405832Y-73118513D01*
X159639137Y-73215389D01*
X159891755Y-73215610D01*
X159918400Y-73204600D01*
X159918400Y-97180400D01*
X130149600Y-97180400D01*
X130149600Y-89531226D01*
X137540870Y-89531226D01*
X137830248Y-90231573D01*
X138365609Y-90767869D01*
X139065450Y-91058468D01*
X139823226Y-91059130D01*
X140523573Y-90769752D01*
X140746473Y-90547240D01*
X142125592Y-90547240D01*
X142220132Y-90776044D01*
X142395035Y-90951253D01*
X142623674Y-91046192D01*
X142871240Y-91046408D01*
X143025183Y-90982800D01*
X143374489Y-90982800D01*
X143374489Y-91173300D01*
X143395742Y-91286252D01*
X143462497Y-91389992D01*
X143564353Y-91459587D01*
X143685260Y-91484071D01*
X144985740Y-91484071D01*
X145098692Y-91462818D01*
X145202432Y-91396063D01*
X145272027Y-91294207D01*
X145287688Y-91216872D01*
X145300742Y-91286252D01*
X145367497Y-91389992D01*
X145469353Y-91459587D01*
X145590260Y-91484071D01*
X146890740Y-91484071D01*
X147003692Y-91462818D01*
X147107432Y-91396063D01*
X147177027Y-91294207D01*
X147201511Y-91173300D01*
X147201511Y-90981107D01*
X147406844Y-90940264D01*
X147588131Y-90819131D01*
X148223132Y-90184131D01*
X148344265Y-90002843D01*
X148386800Y-89789000D01*
X148386800Y-89531226D01*
X148970870Y-89531226D01*
X149260248Y-90231573D01*
X149795609Y-90767869D01*
X150495450Y-91058468D01*
X151253226Y-91059130D01*
X151953573Y-90769752D01*
X152489869Y-90234391D01*
X152780468Y-89534550D01*
X152781130Y-88776774D01*
X152491752Y-88076427D01*
X151956391Y-87540131D01*
X151256550Y-87249532D01*
X150498774Y-87248870D01*
X149798427Y-87538248D01*
X149262131Y-88073609D01*
X148971532Y-88773450D01*
X148970870Y-89531226D01*
X148386800Y-89531226D01*
X148386800Y-86403297D01*
X151399438Y-86403297D01*
X151629035Y-86958964D01*
X152053800Y-87384471D01*
X152609065Y-87615037D01*
X153210297Y-87615562D01*
X153765964Y-87385965D01*
X154191471Y-86961200D01*
X154422037Y-86405935D01*
X154422562Y-85804703D01*
X154192965Y-85249036D01*
X153768200Y-84823529D01*
X153212935Y-84592963D01*
X152611703Y-84592438D01*
X152056036Y-84822035D01*
X151630529Y-85246800D01*
X151399963Y-85802065D01*
X151399438Y-86403297D01*
X148386800Y-86403297D01*
X148386800Y-86210462D01*
X150001131Y-84596131D01*
X150122265Y-84414843D01*
X150164800Y-84201000D01*
X150164800Y-83658680D01*
X150173581Y-83655052D01*
X150456061Y-83373066D01*
X150609126Y-83004444D01*
X150609474Y-82605307D01*
X150457052Y-82236419D01*
X150175066Y-81953939D01*
X149806444Y-81800874D01*
X149407307Y-81800526D01*
X149038419Y-81952948D01*
X148755939Y-82234934D01*
X148602874Y-82603556D01*
X148602526Y-83002693D01*
X148754948Y-83371581D01*
X149036934Y-83654061D01*
X149047200Y-83658324D01*
X149047200Y-83969538D01*
X147657538Y-85359200D01*
X147215841Y-85359200D01*
X147210763Y-85351308D01*
X147108907Y-85281713D01*
X146988000Y-85257229D01*
X145988000Y-85257229D01*
X145875048Y-85278482D01*
X145771308Y-85345237D01*
X145701713Y-85447093D01*
X145677229Y-85568000D01*
X145677229Y-86268000D01*
X145684981Y-86309200D01*
X145564991Y-86309200D01*
X145412326Y-86245808D01*
X145164760Y-86245592D01*
X144935956Y-86340132D01*
X144846807Y-86429125D01*
X144874287Y-86388907D01*
X144898771Y-86268000D01*
X144898771Y-85568000D01*
X144877518Y-85455048D01*
X144810763Y-85351308D01*
X144708907Y-85281713D01*
X144588000Y-85257229D01*
X143588000Y-85257229D01*
X143475048Y-85278482D01*
X143371308Y-85345237D01*
X143301713Y-85447093D01*
X143277229Y-85568000D01*
X143277229Y-86268000D01*
X143298482Y-86380952D01*
X143365237Y-86484692D01*
X143467093Y-86554287D01*
X143588000Y-86578771D01*
X144588000Y-86578771D01*
X144700952Y-86557518D01*
X144758477Y-86520502D01*
X144665808Y-86743674D01*
X144665708Y-86858400D01*
X144392800Y-86858400D01*
X144240400Y-87010800D01*
X144240400Y-87665600D01*
X145045200Y-87665600D01*
X145197600Y-87513200D01*
X145197600Y-87490222D01*
X145411240Y-87490408D01*
X145565183Y-87426800D01*
X145685572Y-87426800D01*
X145677229Y-87468000D01*
X145677229Y-88168000D01*
X145698482Y-88280952D01*
X145765237Y-88384692D01*
X145867093Y-88454287D01*
X145988000Y-88478771D01*
X146988000Y-88478771D01*
X147100952Y-88457518D01*
X147204692Y-88390763D01*
X147214232Y-88376800D01*
X147259000Y-88376800D01*
X147269200Y-88374771D01*
X147269200Y-89557537D01*
X147193676Y-89633061D01*
X147180258Y-89561748D01*
X147113503Y-89458008D01*
X147011647Y-89388413D01*
X146890740Y-89363929D01*
X145590260Y-89363929D01*
X145477308Y-89385182D01*
X145373568Y-89451937D01*
X145303973Y-89553793D01*
X145288312Y-89631128D01*
X145275258Y-89561748D01*
X145208503Y-89458008D01*
X145106647Y-89388413D01*
X144985740Y-89363929D01*
X143685260Y-89363929D01*
X143572308Y-89385182D01*
X143468568Y-89451937D01*
X143398973Y-89553793D01*
X143374489Y-89674700D01*
X143374489Y-89865200D01*
X143024991Y-89865200D01*
X142872326Y-89801808D01*
X142624760Y-89801592D01*
X142395956Y-89896132D01*
X142220747Y-90071035D01*
X142125808Y-90299674D01*
X142125592Y-90547240D01*
X140746473Y-90547240D01*
X141059869Y-90234391D01*
X141350468Y-89534550D01*
X141351130Y-88776774D01*
X141080913Y-88122800D01*
X142978400Y-88122800D01*
X142978400Y-88289257D01*
X143071206Y-88513311D01*
X143242689Y-88684794D01*
X143466743Y-88777600D01*
X143783200Y-88777600D01*
X143935600Y-88625200D01*
X143935600Y-87970400D01*
X144240400Y-87970400D01*
X144240400Y-88625200D01*
X144392800Y-88777600D01*
X144709257Y-88777600D01*
X144933311Y-88684794D01*
X145104794Y-88513311D01*
X145197600Y-88289257D01*
X145197600Y-88122800D01*
X145045200Y-87970400D01*
X144240400Y-87970400D01*
X143935600Y-87970400D01*
X143130800Y-87970400D01*
X142978400Y-88122800D01*
X141080913Y-88122800D01*
X141061752Y-88076427D01*
X140526391Y-87540131D01*
X140060661Y-87346743D01*
X142978400Y-87346743D01*
X142978400Y-87513200D01*
X143130800Y-87665600D01*
X143935600Y-87665600D01*
X143935600Y-87010800D01*
X143783200Y-86858400D01*
X143466743Y-86858400D01*
X143242689Y-86951206D01*
X143071206Y-87122689D01*
X142978400Y-87346743D01*
X140060661Y-87346743D01*
X139826550Y-87249532D01*
X139068774Y-87248870D01*
X138368427Y-87538248D01*
X137832131Y-88073609D01*
X137541532Y-88773450D01*
X137540870Y-89531226D01*
X130149600Y-89531226D01*
X130149600Y-86403297D01*
X135899438Y-86403297D01*
X136129035Y-86958964D01*
X136553800Y-87384471D01*
X137109065Y-87615037D01*
X137710297Y-87615562D01*
X138265964Y-87385965D01*
X138691471Y-86961200D01*
X138922037Y-86405935D01*
X138922562Y-85804703D01*
X138692965Y-85249036D01*
X138268200Y-84823529D01*
X137712935Y-84592963D01*
X137111703Y-84592438D01*
X136556036Y-84822035D01*
X136130529Y-85246800D01*
X135899963Y-85802065D01*
X135899438Y-86403297D01*
X130149600Y-86403297D01*
X130149600Y-83002693D01*
X140982526Y-83002693D01*
X141134948Y-83371581D01*
X141416934Y-83654061D01*
X141785556Y-83807126D01*
X142184693Y-83807474D01*
X142553581Y-83655052D01*
X142836061Y-83373066D01*
X142989126Y-83004444D01*
X142989127Y-83002693D01*
X143522526Y-83002693D01*
X143674948Y-83371581D01*
X143956934Y-83654061D01*
X144325556Y-83807126D01*
X144724693Y-83807474D01*
X145093581Y-83655052D01*
X145376061Y-83373066D01*
X145529126Y-83004444D01*
X145529127Y-83002693D01*
X146062526Y-83002693D01*
X146214948Y-83371581D01*
X146496934Y-83654061D01*
X146865556Y-83807126D01*
X147264693Y-83807474D01*
X147633581Y-83655052D01*
X147916061Y-83373066D01*
X148069126Y-83004444D01*
X148069474Y-82605307D01*
X147917052Y-82236419D01*
X147635066Y-81953939D01*
X147266444Y-81800874D01*
X146867307Y-81800526D01*
X146498419Y-81952948D01*
X146215939Y-82234934D01*
X146062874Y-82603556D01*
X146062526Y-83002693D01*
X145529127Y-83002693D01*
X145529231Y-82883505D01*
X147353368Y-81059368D01*
X147441465Y-80927523D01*
X147468478Y-80791720D01*
X147484948Y-80831581D01*
X147766934Y-81114061D01*
X148135556Y-81267126D01*
X148534693Y-81267474D01*
X148903581Y-81115052D01*
X149186061Y-80833066D01*
X149339126Y-80464444D01*
X149339474Y-80065307D01*
X149187052Y-79696419D01*
X148905066Y-79413939D01*
X148536444Y-79260874D01*
X148137307Y-79260526D01*
X147768419Y-79412948D01*
X147485939Y-79694934D01*
X147472400Y-79727540D01*
X147472400Y-76384751D01*
X147478952Y-76383518D01*
X147582692Y-76316763D01*
X147652287Y-76214907D01*
X147676771Y-76094000D01*
X147676771Y-74594000D01*
X147725229Y-74594000D01*
X147725229Y-76094000D01*
X147746482Y-76206952D01*
X147813237Y-76310692D01*
X147915093Y-76380287D01*
X148036000Y-76404771D01*
X148636000Y-76404771D01*
X148748952Y-76383518D01*
X148762488Y-76374808D01*
X148789206Y-76439311D01*
X148960689Y-76610794D01*
X149184743Y-76703600D01*
X149303600Y-76703600D01*
X149456000Y-76551200D01*
X149456000Y-75496400D01*
X149756000Y-75496400D01*
X149756000Y-76551200D01*
X149908400Y-76703600D01*
X150027257Y-76703600D01*
X150251311Y-76610794D01*
X150422794Y-76439311D01*
X150515600Y-76215257D01*
X150515600Y-75648800D01*
X150363200Y-75496400D01*
X149756000Y-75496400D01*
X149456000Y-75496400D01*
X149433600Y-75496400D01*
X149433600Y-75191600D01*
X149456000Y-75191600D01*
X149456000Y-74136800D01*
X149756000Y-74136800D01*
X149756000Y-75191600D01*
X150363200Y-75191600D01*
X150515600Y-75039200D01*
X150515600Y-74472743D01*
X150422794Y-74248689D01*
X150251311Y-74077206D01*
X150027257Y-73984400D01*
X149908400Y-73984400D01*
X149756000Y-74136800D01*
X149456000Y-74136800D01*
X149303600Y-73984400D01*
X149184743Y-73984400D01*
X148960689Y-74077206D01*
X148789206Y-74248689D01*
X148763026Y-74311894D01*
X148756907Y-74307713D01*
X148636000Y-74283229D01*
X148036000Y-74283229D01*
X147923048Y-74304482D01*
X147819308Y-74371237D01*
X147749713Y-74473093D01*
X147725229Y-74594000D01*
X147676771Y-74594000D01*
X147655518Y-74481048D01*
X147588763Y-74377308D01*
X147486907Y-74307713D01*
X147366000Y-74283229D01*
X146766000Y-74283229D01*
X146653048Y-74304482D01*
X146549308Y-74371237D01*
X146479713Y-74473093D01*
X146455229Y-74594000D01*
X146455229Y-76094000D01*
X146476482Y-76206952D01*
X146543237Y-76310692D01*
X146645093Y-76380287D01*
X146659600Y-76383225D01*
X146659600Y-79726787D01*
X146647052Y-79696419D01*
X146365066Y-79413939D01*
X146202400Y-79346394D01*
X146202400Y-76384751D01*
X146208952Y-76383518D01*
X146312692Y-76316763D01*
X146382287Y-76214907D01*
X146406771Y-76094000D01*
X146406771Y-74594000D01*
X146385518Y-74481048D01*
X146318763Y-74377308D01*
X146216907Y-74307713D01*
X146096000Y-74283229D01*
X145496000Y-74283229D01*
X145383048Y-74304482D01*
X145279308Y-74371237D01*
X145209713Y-74473093D01*
X145185229Y-74594000D01*
X145185229Y-76094000D01*
X145206482Y-76206952D01*
X145273237Y-76310692D01*
X145375093Y-76380287D01*
X145389600Y-76383225D01*
X145389600Y-79346349D01*
X145228419Y-79412948D01*
X144945939Y-79694934D01*
X144792874Y-80063556D01*
X144792526Y-80462693D01*
X144944948Y-80831581D01*
X145226934Y-81114061D01*
X145595556Y-81267126D01*
X145994693Y-81267474D01*
X145996562Y-81266702D01*
X145202102Y-82061162D01*
X145095066Y-81953939D01*
X144726444Y-81800874D01*
X144327307Y-81800526D01*
X143958419Y-81952948D01*
X143675939Y-82234934D01*
X143522874Y-82603556D01*
X143522526Y-83002693D01*
X142989127Y-83002693D01*
X142989474Y-82605307D01*
X142837052Y-82236419D01*
X142555066Y-81953939D01*
X142186444Y-81800874D01*
X141787307Y-81800526D01*
X141418419Y-81952948D01*
X141135939Y-82234934D01*
X140982874Y-82603556D01*
X140982526Y-83002693D01*
X130149600Y-83002693D01*
X130149600Y-80462693D01*
X139712526Y-80462693D01*
X139864948Y-80831581D01*
X140146934Y-81114061D01*
X140515556Y-81267126D01*
X140914693Y-81267474D01*
X141283581Y-81115052D01*
X141566061Y-80833066D01*
X141719126Y-80464444D01*
X141719127Y-80462693D01*
X142252526Y-80462693D01*
X142404948Y-80831581D01*
X142686934Y-81114061D01*
X143055556Y-81267126D01*
X143454693Y-81267474D01*
X143823581Y-81115052D01*
X144106061Y-80833066D01*
X144259126Y-80464444D01*
X144259474Y-80065307D01*
X144192213Y-79902523D01*
X144813368Y-79281368D01*
X144901465Y-79149523D01*
X144932400Y-78994000D01*
X144932400Y-76384751D01*
X144938952Y-76383518D01*
X145042692Y-76316763D01*
X145112287Y-76214907D01*
X145136771Y-76094000D01*
X145136771Y-74594000D01*
X145115518Y-74481048D01*
X145048763Y-74377308D01*
X144946907Y-74307713D01*
X144826000Y-74283229D01*
X144226000Y-74283229D01*
X144113048Y-74304482D01*
X144009308Y-74371237D01*
X143939713Y-74473093D01*
X143915229Y-74594000D01*
X143915229Y-76094000D01*
X143936482Y-76206952D01*
X144003237Y-76310692D01*
X144105093Y-76380287D01*
X144119600Y-76383225D01*
X144119600Y-78825664D01*
X143617510Y-79327754D01*
X143456444Y-79260874D01*
X143057307Y-79260526D01*
X142688419Y-79412948D01*
X142405939Y-79694934D01*
X142252874Y-80063556D01*
X142252526Y-80462693D01*
X141719127Y-80462693D01*
X141719474Y-80065307D01*
X141567052Y-79696419D01*
X141285066Y-79413939D01*
X140916444Y-79260874D01*
X140517307Y-79260526D01*
X140148419Y-79412948D01*
X139865939Y-79694934D01*
X139712874Y-80063556D01*
X139712526Y-80462693D01*
X130149600Y-80462693D01*
X130149600Y-78101240D01*
X142633592Y-78101240D01*
X142728132Y-78330044D01*
X142903035Y-78505253D01*
X143131674Y-78600192D01*
X143379240Y-78600408D01*
X143608044Y-78505868D01*
X143783253Y-78330965D01*
X143878192Y-78102326D01*
X143878408Y-77854760D01*
X143783868Y-77625956D01*
X143662400Y-77504275D01*
X143662400Y-76384751D01*
X143668952Y-76383518D01*
X143772692Y-76316763D01*
X143842287Y-76214907D01*
X143866771Y-76094000D01*
X143866771Y-74594000D01*
X143845518Y-74481048D01*
X143778763Y-74377308D01*
X143676907Y-74307713D01*
X143556000Y-74283229D01*
X142956000Y-74283229D01*
X142843048Y-74304482D01*
X142739308Y-74371237D01*
X142669713Y-74473093D01*
X142645229Y-74594000D01*
X142645229Y-76094000D01*
X142666482Y-76206952D01*
X142733237Y-76310692D01*
X142835093Y-76380287D01*
X142849600Y-76383225D01*
X142849600Y-77504393D01*
X142728747Y-77625035D01*
X142633808Y-77853674D01*
X142633592Y-78101240D01*
X130149600Y-78101240D01*
X130149600Y-77332285D01*
X130175137Y-77342889D01*
X130427755Y-77343110D01*
X130661228Y-77246640D01*
X130840013Y-77068168D01*
X130936889Y-76834863D01*
X130937110Y-76582245D01*
X130840640Y-76348772D01*
X130662168Y-76169987D01*
X130428863Y-76073111D01*
X130176245Y-76072890D01*
X130149600Y-76083900D01*
X130149600Y-68846700D01*
X130420489Y-68846700D01*
X130420489Y-70345300D01*
X130441742Y-70458252D01*
X130508497Y-70561992D01*
X130610353Y-70631587D01*
X130731260Y-70656071D01*
X132031740Y-70656071D01*
X132099851Y-70643255D01*
X132119466Y-70690611D01*
X132290949Y-70862094D01*
X132413970Y-70913051D01*
X132349973Y-71006713D01*
X132334312Y-71084048D01*
X132321258Y-71014668D01*
X132254503Y-70910928D01*
X132152647Y-70841333D01*
X132031740Y-70816849D01*
X131132580Y-70816849D01*
X131019628Y-70838102D01*
X130915888Y-70904857D01*
X130846293Y-71006713D01*
X130821809Y-71127620D01*
X130821809Y-72128380D01*
X130843062Y-72241332D01*
X130909817Y-72345072D01*
X131011673Y-72414667D01*
X131132580Y-72439151D01*
X131175760Y-72439151D01*
X131175760Y-73801349D01*
X131132580Y-73801349D01*
X131019628Y-73822602D01*
X130915888Y-73889357D01*
X130846293Y-73991213D01*
X130821809Y-74112120D01*
X130821809Y-75112880D01*
X130843062Y-75225832D01*
X130909817Y-75329572D01*
X131011673Y-75399167D01*
X131132580Y-75423651D01*
X132031740Y-75423651D01*
X132099851Y-75410835D01*
X132119466Y-75458191D01*
X132290949Y-75629674D01*
X132515003Y-75722480D01*
X132781040Y-75722480D01*
X132933440Y-75570080D01*
X132933440Y-74764900D01*
X133238240Y-74764900D01*
X133238240Y-75570080D01*
X133390640Y-75722480D01*
X133656677Y-75722480D01*
X133880731Y-75629674D01*
X134052214Y-75458191D01*
X134145020Y-75234137D01*
X134145020Y-74917300D01*
X133992620Y-74764900D01*
X133238240Y-74764900D01*
X132933440Y-74764900D01*
X132913440Y-74764900D01*
X132913440Y-74594000D01*
X141375229Y-74594000D01*
X141375229Y-76094000D01*
X141396482Y-76206952D01*
X141463237Y-76310692D01*
X141565093Y-76380287D01*
X141686000Y-76404771D01*
X142286000Y-76404771D01*
X142398952Y-76383518D01*
X142502692Y-76316763D01*
X142572287Y-76214907D01*
X142596771Y-76094000D01*
X142596771Y-74594000D01*
X142575518Y-74481048D01*
X142508763Y-74377308D01*
X142406907Y-74307713D01*
X142286000Y-74283229D01*
X141686000Y-74283229D01*
X141573048Y-74304482D01*
X141469308Y-74371237D01*
X141399713Y-74473093D01*
X141375229Y-74594000D01*
X132913440Y-74594000D01*
X132913440Y-74460100D01*
X132933440Y-74460100D01*
X132933440Y-73654920D01*
X133238240Y-73654920D01*
X133238240Y-74460100D01*
X133992620Y-74460100D01*
X134145020Y-74307700D01*
X134145020Y-73990863D01*
X134052214Y-73766809D01*
X133880731Y-73595326D01*
X133656677Y-73502520D01*
X133390640Y-73502520D01*
X133238240Y-73654920D01*
X132933440Y-73654920D01*
X132781040Y-73502520D01*
X132515003Y-73502520D01*
X132290949Y-73595326D01*
X132119466Y-73766809D01*
X132099477Y-73815066D01*
X132031740Y-73801349D01*
X131988560Y-73801349D01*
X131988560Y-72439151D01*
X132031740Y-72439151D01*
X132144692Y-72417898D01*
X132248432Y-72351143D01*
X132318027Y-72249287D01*
X132333688Y-72171952D01*
X132346742Y-72241332D01*
X132413497Y-72345072D01*
X132515353Y-72414667D01*
X132636260Y-72439151D01*
X133535420Y-72439151D01*
X133648372Y-72417898D01*
X133752112Y-72351143D01*
X133821707Y-72249287D01*
X133846191Y-72128380D01*
X133846191Y-72115339D01*
X133886035Y-72155253D01*
X133936006Y-72176003D01*
X133827987Y-72283832D01*
X133731111Y-72517137D01*
X133730890Y-72769755D01*
X133827360Y-73003228D01*
X134005832Y-73182013D01*
X134239137Y-73278889D01*
X134491755Y-73279110D01*
X134725228Y-73182640D01*
X134904013Y-73004168D01*
X135000889Y-72770863D01*
X135001110Y-72518245D01*
X134904640Y-72284772D01*
X134726168Y-72105987D01*
X134666028Y-72081015D01*
X134766253Y-71980965D01*
X134861192Y-71752326D01*
X134861408Y-71504760D01*
X134766868Y-71275956D01*
X134591965Y-71100747D01*
X134363326Y-71005808D01*
X134115760Y-71005592D01*
X133886956Y-71100132D01*
X133846191Y-71140826D01*
X133846191Y-71127620D01*
X133824938Y-71014668D01*
X133786478Y-70954900D01*
X134057997Y-70954900D01*
X134282051Y-70862094D01*
X134453534Y-70690611D01*
X134546340Y-70466557D01*
X134546340Y-69900800D01*
X134393940Y-69748400D01*
X133438900Y-69748400D01*
X133438900Y-69768400D01*
X133134100Y-69768400D01*
X133134100Y-69748400D01*
X133114100Y-69748400D01*
X133114100Y-69443600D01*
X133134100Y-69443600D01*
X133134100Y-68389500D01*
X133438900Y-68389500D01*
X133438900Y-69443600D01*
X134393940Y-69443600D01*
X134546340Y-69291200D01*
X134546340Y-68725443D01*
X134453534Y-68501389D01*
X134282051Y-68329906D01*
X134057997Y-68237100D01*
X133591300Y-68237100D01*
X133438900Y-68389500D01*
X133134100Y-68389500D01*
X132981700Y-68237100D01*
X132515003Y-68237100D01*
X132290949Y-68329906D01*
X132119466Y-68501389D01*
X132099477Y-68549646D01*
X132031740Y-68535929D01*
X131978912Y-68535929D01*
X132067192Y-68323326D01*
X132067408Y-68075760D01*
X131972868Y-67846956D01*
X131797965Y-67671747D01*
X131569326Y-67576808D01*
X131321760Y-67576592D01*
X131092956Y-67671132D01*
X130917747Y-67846035D01*
X130822808Y-68074674D01*
X130822592Y-68322240D01*
X130822700Y-68322501D01*
X130822700Y-68535929D01*
X130731260Y-68535929D01*
X130618308Y-68557182D01*
X130514568Y-68623937D01*
X130444973Y-68725793D01*
X130420489Y-68846700D01*
X130149600Y-68846700D01*
X130149600Y-67045285D01*
X130175137Y-67055889D01*
X130427755Y-67056110D01*
X130661228Y-66959640D01*
X130840013Y-66781168D01*
X130936889Y-66547863D01*
X130937022Y-66395600D01*
X139299000Y-66395600D01*
X139299000Y-66919257D01*
X139299000Y-66919257D01*
G37*
X139299000Y-66919257D02*
X139391806Y-67143311D01*
X139563289Y-67314794D01*
X139787343Y-67407600D01*
X139881200Y-67407600D01*
X140033600Y-67255200D01*
X140033600Y-66395600D01*
X140283600Y-66395600D01*
X140283600Y-67255200D01*
X140436000Y-67407600D01*
X140529857Y-67407600D01*
X140652200Y-67356924D01*
X140652200Y-67652600D01*
X140683135Y-67808123D01*
X140728759Y-67876404D01*
X140728592Y-68068240D01*
X140823132Y-68297044D01*
X140998035Y-68472253D01*
X141226674Y-68567192D01*
X141398606Y-68567342D01*
X141579600Y-68748336D01*
X141579600Y-68903249D01*
X141573048Y-68904482D01*
X141469308Y-68971237D01*
X141399713Y-69073093D01*
X141375229Y-69194000D01*
X141375229Y-70694000D01*
X141396482Y-70806952D01*
X141463237Y-70910692D01*
X141565093Y-70980287D01*
X141686000Y-71004771D01*
X142286000Y-71004771D01*
X142398952Y-70983518D01*
X142502692Y-70916763D01*
X142572287Y-70814907D01*
X142596771Y-70694000D01*
X142596771Y-70350400D01*
X142645229Y-70350400D01*
X142645229Y-70694000D01*
X142666482Y-70806952D01*
X142733237Y-70910692D01*
X142835093Y-70980287D01*
X142956000Y-71004771D01*
X143556000Y-71004771D01*
X143668952Y-70983518D01*
X143772692Y-70916763D01*
X143842287Y-70814907D01*
X143866771Y-70694000D01*
X143866771Y-69194000D01*
X143845518Y-69081048D01*
X143778763Y-68977308D01*
X143676907Y-68907713D01*
X143662400Y-68904775D01*
X143662400Y-67945000D01*
X143631465Y-67789477D01*
X143543368Y-67657632D01*
X143497259Y-67611523D01*
X143497408Y-67440760D01*
X143402868Y-67211956D01*
X143265000Y-67073847D01*
X143265000Y-67059560D01*
X143309549Y-67030894D01*
X143387693Y-67084287D01*
X143508600Y-67108771D01*
X144008600Y-67108771D01*
X144121552Y-67087518D01*
X144124163Y-67085838D01*
X143998747Y-67211035D01*
X143903808Y-67439674D01*
X143903592Y-67687240D01*
X143998132Y-67916044D01*
X144119600Y-68037725D01*
X144119600Y-68903249D01*
X144113048Y-68904482D01*
X144009308Y-68971237D01*
X143939713Y-69073093D01*
X143915229Y-69194000D01*
X143915229Y-70694000D01*
X143936482Y-70806952D01*
X144003237Y-70910692D01*
X144105093Y-70980287D01*
X144226000Y-71004771D01*
X144826000Y-71004771D01*
X144938952Y-70983518D01*
X144952488Y-70974808D01*
X144979206Y-71039311D01*
X145150689Y-71210794D01*
X145374743Y-71303600D01*
X145493600Y-71303600D01*
X145646000Y-71151200D01*
X145646000Y-70096400D01*
X145623600Y-70096400D01*
X145623600Y-69791600D01*
X145646000Y-69791600D01*
X145646000Y-68736800D01*
X145493600Y-68584400D01*
X145374743Y-68584400D01*
X145150689Y-68677206D01*
X144979206Y-68848689D01*
X144953026Y-68911894D01*
X144946907Y-68907713D01*
X144932400Y-68904775D01*
X144932400Y-68037607D01*
X145053253Y-67916965D01*
X145148192Y-67688326D01*
X145148408Y-67440760D01*
X145053868Y-67211956D01*
X144944180Y-67102076D01*
X145021552Y-67087518D01*
X145109549Y-67030894D01*
X145187693Y-67084287D01*
X145308600Y-67108771D01*
X145808600Y-67108771D01*
X145921552Y-67087518D01*
X146009549Y-67030894D01*
X146087693Y-67084287D01*
X146208600Y-67108771D01*
X146708600Y-67108771D01*
X146821552Y-67087518D01*
X146909549Y-67030894D01*
X146987693Y-67084287D01*
X147108600Y-67108771D01*
X147608600Y-67108771D01*
X147676805Y-67095938D01*
X147586808Y-67312674D01*
X147586658Y-67484606D01*
X146778632Y-68292632D01*
X146690535Y-68424477D01*
X146659600Y-68580000D01*
X146659600Y-68903249D01*
X146653048Y-68904482D01*
X146639512Y-68913192D01*
X146612794Y-68848689D01*
X146441311Y-68677206D01*
X146217257Y-68584400D01*
X146098400Y-68584400D01*
X145946000Y-68736800D01*
X145946000Y-69791600D01*
X145968400Y-69791600D01*
X145968400Y-70096400D01*
X145946000Y-70096400D01*
X145946000Y-71151200D01*
X146098400Y-71303600D01*
X146217257Y-71303600D01*
X146441311Y-71210794D01*
X146612794Y-71039311D01*
X146638974Y-70976106D01*
X146645093Y-70980287D01*
X146766000Y-71004771D01*
X147366000Y-71004771D01*
X147478952Y-70983518D01*
X147582692Y-70916763D01*
X147652287Y-70814907D01*
X147676771Y-70694000D01*
X147676771Y-69194000D01*
X147655518Y-69081048D01*
X147588763Y-68977308D01*
X147486907Y-68907713D01*
X147472400Y-68904775D01*
X147472400Y-68748336D01*
X147713652Y-68507084D01*
X147713592Y-68576240D01*
X147808132Y-68805044D01*
X147913518Y-68910614D01*
X147819308Y-68971237D01*
X147749713Y-69073093D01*
X147725229Y-69194000D01*
X147725229Y-70694000D01*
X147746482Y-70806952D01*
X147813237Y-70910692D01*
X147915093Y-70980287D01*
X148036000Y-71004771D01*
X148636000Y-71004771D01*
X148748952Y-70983518D01*
X148852692Y-70916763D01*
X148922287Y-70814907D01*
X148946771Y-70694000D01*
X148946771Y-69194000D01*
X148995229Y-69194000D01*
X148995229Y-70694000D01*
X149016482Y-70806952D01*
X149083237Y-70910692D01*
X149185093Y-70980287D01*
X149306000Y-71004771D01*
X149906000Y-71004771D01*
X150018952Y-70983518D01*
X150122692Y-70916763D01*
X150192287Y-70814907D01*
X150208419Y-70735240D01*
X150761592Y-70735240D01*
X150856132Y-70964044D01*
X151031035Y-71139253D01*
X151259674Y-71234192D01*
X151507240Y-71234408D01*
X151736044Y-71139868D01*
X151842849Y-71033250D01*
X151842849Y-71051420D01*
X151864102Y-71164372D01*
X151930857Y-71268112D01*
X152032713Y-71337707D01*
X152153620Y-71362191D01*
X153154380Y-71362191D01*
X153267332Y-71340938D01*
X153371072Y-71274183D01*
X153440667Y-71172327D01*
X153465151Y-71051420D01*
X153465151Y-70152260D01*
X153452335Y-70084149D01*
X153499691Y-70064534D01*
X153671174Y-69893051D01*
X153763980Y-69668997D01*
X153763980Y-69402960D01*
X153611580Y-69250560D01*
X152806400Y-69250560D01*
X152806400Y-69270560D01*
X152501600Y-69270560D01*
X152501600Y-69250560D01*
X151696420Y-69250560D01*
X151544020Y-69402960D01*
X151544020Y-69668997D01*
X151636826Y-69893051D01*
X151808309Y-70064534D01*
X151856566Y-70084523D01*
X151842849Y-70152260D01*
X151842849Y-70190816D01*
X151736965Y-70084747D01*
X151508326Y-69989808D01*
X151260760Y-69989592D01*
X151031956Y-70084132D01*
X150856747Y-70259035D01*
X150761808Y-70487674D01*
X150761592Y-70735240D01*
X150208419Y-70735240D01*
X150216771Y-70694000D01*
X150216771Y-69194000D01*
X150195518Y-69081048D01*
X150128763Y-68977308D01*
X150026907Y-68907713D01*
X149906000Y-68883229D01*
X149306000Y-68883229D01*
X149193048Y-68904482D01*
X149089308Y-68971237D01*
X149019713Y-69073093D01*
X148995229Y-69194000D01*
X148946771Y-69194000D01*
X148925518Y-69081048D01*
X148858763Y-68977308D01*
X148759531Y-68909506D01*
X148863253Y-68805965D01*
X148958192Y-68577326D01*
X148958235Y-68527323D01*
X151544020Y-68527323D01*
X151544020Y-68793360D01*
X151696420Y-68945760D01*
X152501600Y-68945760D01*
X152501600Y-68191380D01*
X152806400Y-68191380D01*
X152806400Y-68945760D01*
X153611580Y-68945760D01*
X153763980Y-68793360D01*
X153763980Y-68527323D01*
X153671174Y-68303269D01*
X153499691Y-68131786D01*
X153275637Y-68038980D01*
X152958800Y-68038980D01*
X152806400Y-68191380D01*
X152501600Y-68191380D01*
X152349200Y-68038980D01*
X152032363Y-68038980D01*
X151808309Y-68131786D01*
X151636826Y-68303269D01*
X151544020Y-68527323D01*
X148958235Y-68527323D01*
X148958408Y-68329760D01*
X148863868Y-68100956D01*
X148688965Y-67925747D01*
X148626300Y-67899726D01*
X148736253Y-67789965D01*
X148831192Y-67561326D01*
X148831326Y-67407600D01*
X148881200Y-67407600D01*
X149033600Y-67255200D01*
X149033600Y-66395600D01*
X149283600Y-66395600D01*
X149283600Y-67255200D01*
X149436000Y-67407600D01*
X149529857Y-67407600D01*
X149753911Y-67314794D01*
X149925394Y-67143311D01*
X149939701Y-67108771D01*
X150308600Y-67108771D01*
X150421552Y-67087518D01*
X150525292Y-67020763D01*
X150594887Y-66918907D01*
X150619371Y-66798000D01*
X150619371Y-66395600D01*
X153577863Y-66395600D01*
X153898600Y-66716337D01*
X153898600Y-67090393D01*
X153777747Y-67211035D01*
X153682808Y-67439674D01*
X153682592Y-67687240D01*
X153777132Y-67916044D01*
X153898600Y-68037725D01*
X153898600Y-74710393D01*
X153777747Y-74831035D01*
X153682808Y-75059674D01*
X153682592Y-75307240D01*
X153777132Y-75536044D01*
X153898600Y-75657725D01*
X153898600Y-77504393D01*
X153777747Y-77625035D01*
X153682808Y-77853674D01*
X153682592Y-78101240D01*
X153777132Y-78330044D01*
X153952035Y-78505253D01*
X154180674Y-78600192D01*
X154428240Y-78600408D01*
X154533600Y-78556874D01*
X154533600Y-78740000D01*
X154564535Y-78895523D01*
X154635428Y-79001620D01*
X154652632Y-79027368D01*
X155414632Y-79789368D01*
X155546477Y-79877465D01*
X155702000Y-79908400D01*
X156221809Y-79908400D01*
X156221809Y-80002380D01*
X156243062Y-80115332D01*
X156309817Y-80219072D01*
X156411673Y-80288667D01*
X156532580Y-80313151D01*
X157431740Y-80313151D01*
X157499851Y-80300335D01*
X157519466Y-80347691D01*
X157690949Y-80519174D01*
X157915003Y-80611980D01*
X158181040Y-80611980D01*
X158333440Y-80459580D01*
X158333440Y-79654400D01*
X158638240Y-79654400D01*
X158638240Y-80459580D01*
X158790640Y-80611980D01*
X159056677Y-80611980D01*
X159280731Y-80519174D01*
X159452214Y-80347691D01*
X159545020Y-80123637D01*
X159545020Y-79806800D01*
X159392620Y-79654400D01*
X158638240Y-79654400D01*
X158333440Y-79654400D01*
X158313440Y-79654400D01*
X158313440Y-79349600D01*
X158333440Y-79349600D01*
X158333440Y-78130400D01*
X158638240Y-78130400D01*
X158638240Y-79349600D01*
X159392620Y-79349600D01*
X159545020Y-79197200D01*
X159545020Y-78880363D01*
X159486880Y-78740000D01*
X159545020Y-78599637D01*
X159545020Y-78282800D01*
X159392620Y-78130400D01*
X158638240Y-78130400D01*
X158333440Y-78130400D01*
X158313440Y-78130400D01*
X158313440Y-77825600D01*
X158333440Y-77825600D01*
X158333440Y-77020420D01*
X158638240Y-77020420D01*
X158638240Y-77825600D01*
X159392620Y-77825600D01*
X159545020Y-77673200D01*
X159545020Y-77356363D01*
X159452214Y-77132309D01*
X159280731Y-76960826D01*
X159056677Y-76868020D01*
X158790640Y-76868020D01*
X158638240Y-77020420D01*
X158333440Y-77020420D01*
X158181040Y-76868020D01*
X157915003Y-76868020D01*
X157690949Y-76960826D01*
X157519466Y-77132309D01*
X157499477Y-77180566D01*
X157431740Y-77166849D01*
X156532580Y-77166849D01*
X156419628Y-77188102D01*
X156315888Y-77254857D01*
X156246293Y-77356713D01*
X156221809Y-77477620D01*
X156221809Y-77571600D01*
X156048607Y-77571600D01*
X155927965Y-77450747D01*
X155699326Y-77355808D01*
X155451760Y-77355592D01*
X155346400Y-77399126D01*
X155346400Y-77184410D01*
X155575137Y-77279389D01*
X155827755Y-77279610D01*
X156061228Y-77183140D01*
X156240013Y-77004668D01*
X156336889Y-76771363D01*
X156337110Y-76518745D01*
X156240640Y-76285272D01*
X156062168Y-76106487D01*
X155828863Y-76009611D01*
X155576245Y-76009390D01*
X155346400Y-76104361D01*
X155346400Y-75708613D01*
X155349035Y-75711253D01*
X155577674Y-75806192D01*
X155825240Y-75806408D01*
X156054044Y-75711868D01*
X156147175Y-75618900D01*
X156383841Y-75618900D01*
X156394482Y-75675452D01*
X156461237Y-75779192D01*
X156563093Y-75848787D01*
X156684000Y-75873271D01*
X157434000Y-75873271D01*
X157497917Y-75861244D01*
X157517206Y-75907811D01*
X157688689Y-76079294D01*
X157912743Y-76172100D01*
X158104200Y-76172100D01*
X158256600Y-76019700D01*
X158256600Y-75364900D01*
X158561400Y-75364900D01*
X158561400Y-76019700D01*
X158713800Y-76172100D01*
X158905257Y-76172100D01*
X159129311Y-76079294D01*
X159300794Y-75907811D01*
X159393600Y-75683757D01*
X159393600Y-75517300D01*
X159241200Y-75364900D01*
X158561400Y-75364900D01*
X158256600Y-75364900D01*
X158236600Y-75364900D01*
X158236600Y-75060100D01*
X158256600Y-75060100D01*
X158256600Y-75040100D01*
X158561400Y-75040100D01*
X158561400Y-75060100D01*
X159241200Y-75060100D01*
X159393600Y-74907700D01*
X159393600Y-74741243D01*
X159300794Y-74517189D01*
X159129311Y-74345706D01*
X159094771Y-74331399D01*
X159094771Y-73662500D01*
X159073518Y-73549548D01*
X159006763Y-73445808D01*
X158904907Y-73376213D01*
X158815400Y-73358088D01*
X158815400Y-73331677D01*
X158896253Y-73250965D01*
X158991192Y-73022326D01*
X158991408Y-72774760D01*
X158896868Y-72545956D01*
X158721965Y-72370747D01*
X158493326Y-72275808D01*
X158245760Y-72275592D01*
X158016956Y-72370132D01*
X157841747Y-72545035D01*
X157746808Y-72773674D01*
X157746592Y-73021240D01*
X157841132Y-73250044D01*
X157957086Y-73366201D01*
X157921048Y-73372982D01*
X157817308Y-73439737D01*
X157747713Y-73541593D01*
X157734395Y-73607358D01*
X157723518Y-73549548D01*
X157656763Y-73445808D01*
X157554907Y-73376213D01*
X157434000Y-73351729D01*
X156684000Y-73351729D01*
X156571048Y-73372982D01*
X156467308Y-73439737D01*
X156397713Y-73541593D01*
X156384650Y-73606100D01*
X155346400Y-73606100D01*
X155346400Y-70944400D01*
X156198229Y-70944400D01*
X156198229Y-70963000D01*
X156219482Y-71075952D01*
X156286237Y-71179692D01*
X156388093Y-71249287D01*
X156509000Y-71273771D01*
X156959000Y-71273771D01*
X157071952Y-71252518D01*
X157175692Y-71185763D01*
X157234634Y-71099499D01*
X157286237Y-71179692D01*
X157327600Y-71207954D01*
X157327600Y-71281393D01*
X157206747Y-71402035D01*
X157111808Y-71630674D01*
X157111592Y-71878240D01*
X157206132Y-72107044D01*
X157381035Y-72282253D01*
X157609674Y-72377192D01*
X157857240Y-72377408D01*
X158086044Y-72282868D01*
X158261253Y-72107965D01*
X158356192Y-71879326D01*
X158356408Y-71631760D01*
X158261868Y-71402956D01*
X158140400Y-71281275D01*
X158140400Y-71208473D01*
X158175692Y-71185763D01*
X158234634Y-71099499D01*
X158286237Y-71179692D01*
X158388093Y-71249287D01*
X158509000Y-71273771D01*
X158959000Y-71273771D01*
X159071952Y-71252518D01*
X159175692Y-71185763D01*
X159245287Y-71083907D01*
X159269771Y-70963000D01*
X159269771Y-70113000D01*
X159254525Y-70031975D01*
X159270287Y-70008907D01*
X159294771Y-69888000D01*
X159294771Y-68288000D01*
X159273518Y-68175048D01*
X159253409Y-68143798D01*
X159269771Y-68063000D01*
X159269771Y-67213000D01*
X159248518Y-67100048D01*
X159181763Y-66996308D01*
X159079907Y-66926713D01*
X158959000Y-66902229D01*
X158509000Y-66902229D01*
X158491467Y-66905528D01*
X158475794Y-66867689D01*
X158304311Y-66696206D01*
X158080257Y-66603400D01*
X157998900Y-66603400D01*
X157846500Y-66755800D01*
X157846500Y-67485600D01*
X157906400Y-67485600D01*
X157906400Y-67790400D01*
X157846500Y-67790400D01*
X157846500Y-67810400D01*
X157621500Y-67810400D01*
X157621500Y-67790400D01*
X157561600Y-67790400D01*
X157561600Y-67485600D01*
X157621500Y-67485600D01*
X157621500Y-66755800D01*
X157469100Y-66603400D01*
X157387743Y-66603400D01*
X157163689Y-66696206D01*
X156992206Y-66867689D01*
X156976437Y-66905760D01*
X156959000Y-66902229D01*
X156509000Y-66902229D01*
X156396048Y-66923482D01*
X156292308Y-66990237D01*
X156222713Y-67092093D01*
X156198229Y-67213000D01*
X156198229Y-67231600D01*
X156110985Y-67231600D01*
X156102868Y-67211956D01*
X155927965Y-67036747D01*
X155699326Y-66941808D01*
X155451760Y-66941592D01*
X155346400Y-66985126D01*
X155346400Y-66395600D01*
X159918400Y-66395600D01*
X159918400Y-71956215D01*
X159892863Y-71945611D01*
X159640245Y-71945390D01*
X159406772Y-72041860D01*
X159227987Y-72220332D01*
X159131111Y-72453637D01*
X159130890Y-72706255D01*
X159227360Y-72939728D01*
X159405832Y-73118513D01*
X159639137Y-73215389D01*
X159891755Y-73215610D01*
X159918400Y-73204600D01*
X159918400Y-97180400D01*
X130149600Y-97180400D01*
X130149600Y-89531226D01*
X137540870Y-89531226D01*
X137830248Y-90231573D01*
X138365609Y-90767869D01*
X139065450Y-91058468D01*
X139823226Y-91059130D01*
X140523573Y-90769752D01*
X140746473Y-90547240D01*
X142125592Y-90547240D01*
X142220132Y-90776044D01*
X142395035Y-90951253D01*
X142623674Y-91046192D01*
X142871240Y-91046408D01*
X143025183Y-90982800D01*
X143374489Y-90982800D01*
X143374489Y-91173300D01*
X143395742Y-91286252D01*
X143462497Y-91389992D01*
X143564353Y-91459587D01*
X143685260Y-91484071D01*
X144985740Y-91484071D01*
X145098692Y-91462818D01*
X145202432Y-91396063D01*
X145272027Y-91294207D01*
X145287688Y-91216872D01*
X145300742Y-91286252D01*
X145367497Y-91389992D01*
X145469353Y-91459587D01*
X145590260Y-91484071D01*
X146890740Y-91484071D01*
X147003692Y-91462818D01*
X147107432Y-91396063D01*
X147177027Y-91294207D01*
X147201511Y-91173300D01*
X147201511Y-90981107D01*
X147406844Y-90940264D01*
X147588131Y-90819131D01*
X148223132Y-90184131D01*
X148344265Y-90002843D01*
X148386800Y-89789000D01*
X148386800Y-89531226D01*
X148970870Y-89531226D01*
X149260248Y-90231573D01*
X149795609Y-90767869D01*
X150495450Y-91058468D01*
X151253226Y-91059130D01*
X151953573Y-90769752D01*
X152489869Y-90234391D01*
X152780468Y-89534550D01*
X152781130Y-88776774D01*
X152491752Y-88076427D01*
X151956391Y-87540131D01*
X151256550Y-87249532D01*
X150498774Y-87248870D01*
X149798427Y-87538248D01*
X149262131Y-88073609D01*
X148971532Y-88773450D01*
X148970870Y-89531226D01*
X148386800Y-89531226D01*
X148386800Y-86403297D01*
X151399438Y-86403297D01*
X151629035Y-86958964D01*
X152053800Y-87384471D01*
X152609065Y-87615037D01*
X153210297Y-87615562D01*
X153765964Y-87385965D01*
X154191471Y-86961200D01*
X154422037Y-86405935D01*
X154422562Y-85804703D01*
X154192965Y-85249036D01*
X153768200Y-84823529D01*
X153212935Y-84592963D01*
X152611703Y-84592438D01*
X152056036Y-84822035D01*
X151630529Y-85246800D01*
X151399963Y-85802065D01*
X151399438Y-86403297D01*
X148386800Y-86403297D01*
X148386800Y-86210462D01*
X150001131Y-84596131D01*
X150122265Y-84414843D01*
X150164800Y-84201000D01*
X150164800Y-83658680D01*
X150173581Y-83655052D01*
X150456061Y-83373066D01*
X150609126Y-83004444D01*
X150609474Y-82605307D01*
X150457052Y-82236419D01*
X150175066Y-81953939D01*
X149806444Y-81800874D01*
X149407307Y-81800526D01*
X149038419Y-81952948D01*
X148755939Y-82234934D01*
X148602874Y-82603556D01*
X148602526Y-83002693D01*
X148754948Y-83371581D01*
X149036934Y-83654061D01*
X149047200Y-83658324D01*
X149047200Y-83969538D01*
X147657538Y-85359200D01*
X147215841Y-85359200D01*
X147210763Y-85351308D01*
X147108907Y-85281713D01*
X146988000Y-85257229D01*
X145988000Y-85257229D01*
X145875048Y-85278482D01*
X145771308Y-85345237D01*
X145701713Y-85447093D01*
X145677229Y-85568000D01*
X145677229Y-86268000D01*
X145684981Y-86309200D01*
X145564991Y-86309200D01*
X145412326Y-86245808D01*
X145164760Y-86245592D01*
X144935956Y-86340132D01*
X144846807Y-86429125D01*
X144874287Y-86388907D01*
X144898771Y-86268000D01*
X144898771Y-85568000D01*
X144877518Y-85455048D01*
X144810763Y-85351308D01*
X144708907Y-85281713D01*
X144588000Y-85257229D01*
X143588000Y-85257229D01*
X143475048Y-85278482D01*
X143371308Y-85345237D01*
X143301713Y-85447093D01*
X143277229Y-85568000D01*
X143277229Y-86268000D01*
X143298482Y-86380952D01*
X143365237Y-86484692D01*
X143467093Y-86554287D01*
X143588000Y-86578771D01*
X144588000Y-86578771D01*
X144700952Y-86557518D01*
X144758477Y-86520502D01*
X144665808Y-86743674D01*
X144665708Y-86858400D01*
X144392800Y-86858400D01*
X144240400Y-87010800D01*
X144240400Y-87665600D01*
X145045200Y-87665600D01*
X145197600Y-87513200D01*
X145197600Y-87490222D01*
X145411240Y-87490408D01*
X145565183Y-87426800D01*
X145685572Y-87426800D01*
X145677229Y-87468000D01*
X145677229Y-88168000D01*
X145698482Y-88280952D01*
X145765237Y-88384692D01*
X145867093Y-88454287D01*
X145988000Y-88478771D01*
X146988000Y-88478771D01*
X147100952Y-88457518D01*
X147204692Y-88390763D01*
X147214232Y-88376800D01*
X147259000Y-88376800D01*
X147269200Y-88374771D01*
X147269200Y-89557537D01*
X147193676Y-89633061D01*
X147180258Y-89561748D01*
X147113503Y-89458008D01*
X147011647Y-89388413D01*
X146890740Y-89363929D01*
X145590260Y-89363929D01*
X145477308Y-89385182D01*
X145373568Y-89451937D01*
X145303973Y-89553793D01*
X145288312Y-89631128D01*
X145275258Y-89561748D01*
X145208503Y-89458008D01*
X145106647Y-89388413D01*
X144985740Y-89363929D01*
X143685260Y-89363929D01*
X143572308Y-89385182D01*
X143468568Y-89451937D01*
X143398973Y-89553793D01*
X143374489Y-89674700D01*
X143374489Y-89865200D01*
X143024991Y-89865200D01*
X142872326Y-89801808D01*
X142624760Y-89801592D01*
X142395956Y-89896132D01*
X142220747Y-90071035D01*
X142125808Y-90299674D01*
X142125592Y-90547240D01*
X140746473Y-90547240D01*
X141059869Y-90234391D01*
X141350468Y-89534550D01*
X141351130Y-88776774D01*
X141080913Y-88122800D01*
X142978400Y-88122800D01*
X142978400Y-88289257D01*
X143071206Y-88513311D01*
X143242689Y-88684794D01*
X143466743Y-88777600D01*
X143783200Y-88777600D01*
X143935600Y-88625200D01*
X143935600Y-87970400D01*
X144240400Y-87970400D01*
X144240400Y-88625200D01*
X144392800Y-88777600D01*
X144709257Y-88777600D01*
X144933311Y-88684794D01*
X145104794Y-88513311D01*
X145197600Y-88289257D01*
X145197600Y-88122800D01*
X145045200Y-87970400D01*
X144240400Y-87970400D01*
X143935600Y-87970400D01*
X143130800Y-87970400D01*
X142978400Y-88122800D01*
X141080913Y-88122800D01*
X141061752Y-88076427D01*
X140526391Y-87540131D01*
X140060661Y-87346743D01*
X142978400Y-87346743D01*
X142978400Y-87513200D01*
X143130800Y-87665600D01*
X143935600Y-87665600D01*
X143935600Y-87010800D01*
X143783200Y-86858400D01*
X143466743Y-86858400D01*
X143242689Y-86951206D01*
X143071206Y-87122689D01*
X142978400Y-87346743D01*
X140060661Y-87346743D01*
X139826550Y-87249532D01*
X139068774Y-87248870D01*
X138368427Y-87538248D01*
X137832131Y-88073609D01*
X137541532Y-88773450D01*
X137540870Y-89531226D01*
X130149600Y-89531226D01*
X130149600Y-86403297D01*
X135899438Y-86403297D01*
X136129035Y-86958964D01*
X136553800Y-87384471D01*
X137109065Y-87615037D01*
X137710297Y-87615562D01*
X138265964Y-87385965D01*
X138691471Y-86961200D01*
X138922037Y-86405935D01*
X138922562Y-85804703D01*
X138692965Y-85249036D01*
X138268200Y-84823529D01*
X137712935Y-84592963D01*
X137111703Y-84592438D01*
X136556036Y-84822035D01*
X136130529Y-85246800D01*
X135899963Y-85802065D01*
X135899438Y-86403297D01*
X130149600Y-86403297D01*
X130149600Y-83002693D01*
X140982526Y-83002693D01*
X141134948Y-83371581D01*
X141416934Y-83654061D01*
X141785556Y-83807126D01*
X142184693Y-83807474D01*
X142553581Y-83655052D01*
X142836061Y-83373066D01*
X142989126Y-83004444D01*
X142989127Y-83002693D01*
X143522526Y-83002693D01*
X143674948Y-83371581D01*
X143956934Y-83654061D01*
X144325556Y-83807126D01*
X144724693Y-83807474D01*
X145093581Y-83655052D01*
X145376061Y-83373066D01*
X145529126Y-83004444D01*
X145529127Y-83002693D01*
X146062526Y-83002693D01*
X146214948Y-83371581D01*
X146496934Y-83654061D01*
X146865556Y-83807126D01*
X147264693Y-83807474D01*
X147633581Y-83655052D01*
X147916061Y-83373066D01*
X148069126Y-83004444D01*
X148069474Y-82605307D01*
X147917052Y-82236419D01*
X147635066Y-81953939D01*
X147266444Y-81800874D01*
X146867307Y-81800526D01*
X146498419Y-81952948D01*
X146215939Y-82234934D01*
X146062874Y-82603556D01*
X146062526Y-83002693D01*
X145529127Y-83002693D01*
X145529231Y-82883505D01*
X147353368Y-81059368D01*
X147441465Y-80927523D01*
X147468478Y-80791720D01*
X147484948Y-80831581D01*
X147766934Y-81114061D01*
X148135556Y-81267126D01*
X148534693Y-81267474D01*
X148903581Y-81115052D01*
X149186061Y-80833066D01*
X149339126Y-80464444D01*
X149339474Y-80065307D01*
X149187052Y-79696419D01*
X148905066Y-79413939D01*
X148536444Y-79260874D01*
X148137307Y-79260526D01*
X147768419Y-79412948D01*
X147485939Y-79694934D01*
X147472400Y-79727540D01*
X147472400Y-76384751D01*
X147478952Y-76383518D01*
X147582692Y-76316763D01*
X147652287Y-76214907D01*
X147676771Y-76094000D01*
X147676771Y-74594000D01*
X147725229Y-74594000D01*
X147725229Y-76094000D01*
X147746482Y-76206952D01*
X147813237Y-76310692D01*
X147915093Y-76380287D01*
X148036000Y-76404771D01*
X148636000Y-76404771D01*
X148748952Y-76383518D01*
X148762488Y-76374808D01*
X148789206Y-76439311D01*
X148960689Y-76610794D01*
X149184743Y-76703600D01*
X149303600Y-76703600D01*
X149456000Y-76551200D01*
X149456000Y-75496400D01*
X149756000Y-75496400D01*
X149756000Y-76551200D01*
X149908400Y-76703600D01*
X150027257Y-76703600D01*
X150251311Y-76610794D01*
X150422794Y-76439311D01*
X150515600Y-76215257D01*
X150515600Y-75648800D01*
X150363200Y-75496400D01*
X149756000Y-75496400D01*
X149456000Y-75496400D01*
X149433600Y-75496400D01*
X149433600Y-75191600D01*
X149456000Y-75191600D01*
X149456000Y-74136800D01*
X149756000Y-74136800D01*
X149756000Y-75191600D01*
X150363200Y-75191600D01*
X150515600Y-75039200D01*
X150515600Y-74472743D01*
X150422794Y-74248689D01*
X150251311Y-74077206D01*
X150027257Y-73984400D01*
X149908400Y-73984400D01*
X149756000Y-74136800D01*
X149456000Y-74136800D01*
X149303600Y-73984400D01*
X149184743Y-73984400D01*
X148960689Y-74077206D01*
X148789206Y-74248689D01*
X148763026Y-74311894D01*
X148756907Y-74307713D01*
X148636000Y-74283229D01*
X148036000Y-74283229D01*
X147923048Y-74304482D01*
X147819308Y-74371237D01*
X147749713Y-74473093D01*
X147725229Y-74594000D01*
X147676771Y-74594000D01*
X147655518Y-74481048D01*
X147588763Y-74377308D01*
X147486907Y-74307713D01*
X147366000Y-74283229D01*
X146766000Y-74283229D01*
X146653048Y-74304482D01*
X146549308Y-74371237D01*
X146479713Y-74473093D01*
X146455229Y-74594000D01*
X146455229Y-76094000D01*
X146476482Y-76206952D01*
X146543237Y-76310692D01*
X146645093Y-76380287D01*
X146659600Y-76383225D01*
X146659600Y-79726787D01*
X146647052Y-79696419D01*
X146365066Y-79413939D01*
X146202400Y-79346394D01*
X146202400Y-76384751D01*
X146208952Y-76383518D01*
X146312692Y-76316763D01*
X146382287Y-76214907D01*
X146406771Y-76094000D01*
X146406771Y-74594000D01*
X146385518Y-74481048D01*
X146318763Y-74377308D01*
X146216907Y-74307713D01*
X146096000Y-74283229D01*
X145496000Y-74283229D01*
X145383048Y-74304482D01*
X145279308Y-74371237D01*
X145209713Y-74473093D01*
X145185229Y-74594000D01*
X145185229Y-76094000D01*
X145206482Y-76206952D01*
X145273237Y-76310692D01*
X145375093Y-76380287D01*
X145389600Y-76383225D01*
X145389600Y-79346349D01*
X145228419Y-79412948D01*
X144945939Y-79694934D01*
X144792874Y-80063556D01*
X144792526Y-80462693D01*
X144944948Y-80831581D01*
X145226934Y-81114061D01*
X145595556Y-81267126D01*
X145994693Y-81267474D01*
X145996562Y-81266702D01*
X145202102Y-82061162D01*
X145095066Y-81953939D01*
X144726444Y-81800874D01*
X144327307Y-81800526D01*
X143958419Y-81952948D01*
X143675939Y-82234934D01*
X143522874Y-82603556D01*
X143522526Y-83002693D01*
X142989127Y-83002693D01*
X142989474Y-82605307D01*
X142837052Y-82236419D01*
X142555066Y-81953939D01*
X142186444Y-81800874D01*
X141787307Y-81800526D01*
X141418419Y-81952948D01*
X141135939Y-82234934D01*
X140982874Y-82603556D01*
X140982526Y-83002693D01*
X130149600Y-83002693D01*
X130149600Y-80462693D01*
X139712526Y-80462693D01*
X139864948Y-80831581D01*
X140146934Y-81114061D01*
X140515556Y-81267126D01*
X140914693Y-81267474D01*
X141283581Y-81115052D01*
X141566061Y-80833066D01*
X141719126Y-80464444D01*
X141719127Y-80462693D01*
X142252526Y-80462693D01*
X142404948Y-80831581D01*
X142686934Y-81114061D01*
X143055556Y-81267126D01*
X143454693Y-81267474D01*
X143823581Y-81115052D01*
X144106061Y-80833066D01*
X144259126Y-80464444D01*
X144259474Y-80065307D01*
X144192213Y-79902523D01*
X144813368Y-79281368D01*
X144901465Y-79149523D01*
X144932400Y-78994000D01*
X144932400Y-76384751D01*
X144938952Y-76383518D01*
X145042692Y-76316763D01*
X145112287Y-76214907D01*
X145136771Y-76094000D01*
X145136771Y-74594000D01*
X145115518Y-74481048D01*
X145048763Y-74377308D01*
X144946907Y-74307713D01*
X144826000Y-74283229D01*
X144226000Y-74283229D01*
X144113048Y-74304482D01*
X144009308Y-74371237D01*
X143939713Y-74473093D01*
X143915229Y-74594000D01*
X143915229Y-76094000D01*
X143936482Y-76206952D01*
X144003237Y-76310692D01*
X144105093Y-76380287D01*
X144119600Y-76383225D01*
X144119600Y-78825664D01*
X143617510Y-79327754D01*
X143456444Y-79260874D01*
X143057307Y-79260526D01*
X142688419Y-79412948D01*
X142405939Y-79694934D01*
X142252874Y-80063556D01*
X142252526Y-80462693D01*
X141719127Y-80462693D01*
X141719474Y-80065307D01*
X141567052Y-79696419D01*
X141285066Y-79413939D01*
X140916444Y-79260874D01*
X140517307Y-79260526D01*
X140148419Y-79412948D01*
X139865939Y-79694934D01*
X139712874Y-80063556D01*
X139712526Y-80462693D01*
X130149600Y-80462693D01*
X130149600Y-78101240D01*
X142633592Y-78101240D01*
X142728132Y-78330044D01*
X142903035Y-78505253D01*
X143131674Y-78600192D01*
X143379240Y-78600408D01*
X143608044Y-78505868D01*
X143783253Y-78330965D01*
X143878192Y-78102326D01*
X143878408Y-77854760D01*
X143783868Y-77625956D01*
X143662400Y-77504275D01*
X143662400Y-76384751D01*
X143668952Y-76383518D01*
X143772692Y-76316763D01*
X143842287Y-76214907D01*
X143866771Y-76094000D01*
X143866771Y-74594000D01*
X143845518Y-74481048D01*
X143778763Y-74377308D01*
X143676907Y-74307713D01*
X143556000Y-74283229D01*
X142956000Y-74283229D01*
X142843048Y-74304482D01*
X142739308Y-74371237D01*
X142669713Y-74473093D01*
X142645229Y-74594000D01*
X142645229Y-76094000D01*
X142666482Y-76206952D01*
X142733237Y-76310692D01*
X142835093Y-76380287D01*
X142849600Y-76383225D01*
X142849600Y-77504393D01*
X142728747Y-77625035D01*
X142633808Y-77853674D01*
X142633592Y-78101240D01*
X130149600Y-78101240D01*
X130149600Y-77332285D01*
X130175137Y-77342889D01*
X130427755Y-77343110D01*
X130661228Y-77246640D01*
X130840013Y-77068168D01*
X130936889Y-76834863D01*
X130937110Y-76582245D01*
X130840640Y-76348772D01*
X130662168Y-76169987D01*
X130428863Y-76073111D01*
X130176245Y-76072890D01*
X130149600Y-76083900D01*
X130149600Y-68846700D01*
X130420489Y-68846700D01*
X130420489Y-70345300D01*
X130441742Y-70458252D01*
X130508497Y-70561992D01*
X130610353Y-70631587D01*
X130731260Y-70656071D01*
X132031740Y-70656071D01*
X132099851Y-70643255D01*
X132119466Y-70690611D01*
X132290949Y-70862094D01*
X132413970Y-70913051D01*
X132349973Y-71006713D01*
X132334312Y-71084048D01*
X132321258Y-71014668D01*
X132254503Y-70910928D01*
X132152647Y-70841333D01*
X132031740Y-70816849D01*
X131132580Y-70816849D01*
X131019628Y-70838102D01*
X130915888Y-70904857D01*
X130846293Y-71006713D01*
X130821809Y-71127620D01*
X130821809Y-72128380D01*
X130843062Y-72241332D01*
X130909817Y-72345072D01*
X131011673Y-72414667D01*
X131132580Y-72439151D01*
X131175760Y-72439151D01*
X131175760Y-73801349D01*
X131132580Y-73801349D01*
X131019628Y-73822602D01*
X130915888Y-73889357D01*
X130846293Y-73991213D01*
X130821809Y-74112120D01*
X130821809Y-75112880D01*
X130843062Y-75225832D01*
X130909817Y-75329572D01*
X131011673Y-75399167D01*
X131132580Y-75423651D01*
X132031740Y-75423651D01*
X132099851Y-75410835D01*
X132119466Y-75458191D01*
X132290949Y-75629674D01*
X132515003Y-75722480D01*
X132781040Y-75722480D01*
X132933440Y-75570080D01*
X132933440Y-74764900D01*
X133238240Y-74764900D01*
X133238240Y-75570080D01*
X133390640Y-75722480D01*
X133656677Y-75722480D01*
X133880731Y-75629674D01*
X134052214Y-75458191D01*
X134145020Y-75234137D01*
X134145020Y-74917300D01*
X133992620Y-74764900D01*
X133238240Y-74764900D01*
X132933440Y-74764900D01*
X132913440Y-74764900D01*
X132913440Y-74594000D01*
X141375229Y-74594000D01*
X141375229Y-76094000D01*
X141396482Y-76206952D01*
X141463237Y-76310692D01*
X141565093Y-76380287D01*
X141686000Y-76404771D01*
X142286000Y-76404771D01*
X142398952Y-76383518D01*
X142502692Y-76316763D01*
X142572287Y-76214907D01*
X142596771Y-76094000D01*
X142596771Y-74594000D01*
X142575518Y-74481048D01*
X142508763Y-74377308D01*
X142406907Y-74307713D01*
X142286000Y-74283229D01*
X141686000Y-74283229D01*
X141573048Y-74304482D01*
X141469308Y-74371237D01*
X141399713Y-74473093D01*
X141375229Y-74594000D01*
X132913440Y-74594000D01*
X132913440Y-74460100D01*
X132933440Y-74460100D01*
X132933440Y-73654920D01*
X133238240Y-73654920D01*
X133238240Y-74460100D01*
X133992620Y-74460100D01*
X134145020Y-74307700D01*
X134145020Y-73990863D01*
X134052214Y-73766809D01*
X133880731Y-73595326D01*
X133656677Y-73502520D01*
X133390640Y-73502520D01*
X133238240Y-73654920D01*
X132933440Y-73654920D01*
X132781040Y-73502520D01*
X132515003Y-73502520D01*
X132290949Y-73595326D01*
X132119466Y-73766809D01*
X132099477Y-73815066D01*
X132031740Y-73801349D01*
X131988560Y-73801349D01*
X131988560Y-72439151D01*
X132031740Y-72439151D01*
X132144692Y-72417898D01*
X132248432Y-72351143D01*
X132318027Y-72249287D01*
X132333688Y-72171952D01*
X132346742Y-72241332D01*
X132413497Y-72345072D01*
X132515353Y-72414667D01*
X132636260Y-72439151D01*
X133535420Y-72439151D01*
X133648372Y-72417898D01*
X133752112Y-72351143D01*
X133821707Y-72249287D01*
X133846191Y-72128380D01*
X133846191Y-72115339D01*
X133886035Y-72155253D01*
X133936006Y-72176003D01*
X133827987Y-72283832D01*
X133731111Y-72517137D01*
X133730890Y-72769755D01*
X133827360Y-73003228D01*
X134005832Y-73182013D01*
X134239137Y-73278889D01*
X134491755Y-73279110D01*
X134725228Y-73182640D01*
X134904013Y-73004168D01*
X135000889Y-72770863D01*
X135001110Y-72518245D01*
X134904640Y-72284772D01*
X134726168Y-72105987D01*
X134666028Y-72081015D01*
X134766253Y-71980965D01*
X134861192Y-71752326D01*
X134861408Y-71504760D01*
X134766868Y-71275956D01*
X134591965Y-71100747D01*
X134363326Y-71005808D01*
X134115760Y-71005592D01*
X133886956Y-71100132D01*
X133846191Y-71140826D01*
X133846191Y-71127620D01*
X133824938Y-71014668D01*
X133786478Y-70954900D01*
X134057997Y-70954900D01*
X134282051Y-70862094D01*
X134453534Y-70690611D01*
X134546340Y-70466557D01*
X134546340Y-69900800D01*
X134393940Y-69748400D01*
X133438900Y-69748400D01*
X133438900Y-69768400D01*
X133134100Y-69768400D01*
X133134100Y-69748400D01*
X133114100Y-69748400D01*
X133114100Y-69443600D01*
X133134100Y-69443600D01*
X133134100Y-68389500D01*
X133438900Y-68389500D01*
X133438900Y-69443600D01*
X134393940Y-69443600D01*
X134546340Y-69291200D01*
X134546340Y-68725443D01*
X134453534Y-68501389D01*
X134282051Y-68329906D01*
X134057997Y-68237100D01*
X133591300Y-68237100D01*
X133438900Y-68389500D01*
X133134100Y-68389500D01*
X132981700Y-68237100D01*
X132515003Y-68237100D01*
X132290949Y-68329906D01*
X132119466Y-68501389D01*
X132099477Y-68549646D01*
X132031740Y-68535929D01*
X131978912Y-68535929D01*
X132067192Y-68323326D01*
X132067408Y-68075760D01*
X131972868Y-67846956D01*
X131797965Y-67671747D01*
X131569326Y-67576808D01*
X131321760Y-67576592D01*
X131092956Y-67671132D01*
X130917747Y-67846035D01*
X130822808Y-68074674D01*
X130822592Y-68322240D01*
X130822700Y-68322501D01*
X130822700Y-68535929D01*
X130731260Y-68535929D01*
X130618308Y-68557182D01*
X130514568Y-68623937D01*
X130444973Y-68725793D01*
X130420489Y-68846700D01*
X130149600Y-68846700D01*
X130149600Y-67045285D01*
X130175137Y-67055889D01*
X130427755Y-67056110D01*
X130661228Y-66959640D01*
X130840013Y-66781168D01*
X130936889Y-66547863D01*
X130937022Y-66395600D01*
X139299000Y-66395600D01*
X139299000Y-66919257D01*
G36*
X159019240Y-63855600D02*
X159039240Y-63855600D01*
X159039240Y-64160400D01*
X159019240Y-64160400D01*
X159019240Y-64965580D01*
X159171640Y-65117980D01*
X159437677Y-65117980D01*
X159661731Y-65025174D01*
X159833214Y-64853691D01*
X159918400Y-64648033D01*
X159918400Y-65938400D01*
X158140400Y-65938400D01*
X158140400Y-65405000D01*
X158109465Y-65249477D01*
X158021368Y-65117632D01*
X157769560Y-64865824D01*
X157769560Y-64819151D01*
X157812740Y-64819151D01*
X157880851Y-64806335D01*
X157900466Y-64853691D01*
X158071949Y-65025174D01*
X158296003Y-65117980D01*
X158562040Y-65117980D01*
X158714440Y-64965580D01*
X158714440Y-64160400D01*
X158694440Y-64160400D01*
X158694440Y-63855600D01*
X158714440Y-63855600D01*
X158714440Y-63835600D01*
X159019240Y-63835600D01*
X159019240Y-63855600D01*
X159019240Y-63855600D01*
G37*
X159019240Y-63855600D02*
X159039240Y-63855600D01*
X159039240Y-64160400D01*
X159019240Y-64160400D01*
X159019240Y-64965580D01*
X159171640Y-65117980D01*
X159437677Y-65117980D01*
X159661731Y-65025174D01*
X159833214Y-64853691D01*
X159918400Y-64648033D01*
X159918400Y-65938400D01*
X158140400Y-65938400D01*
X158140400Y-65405000D01*
X158109465Y-65249477D01*
X158021368Y-65117632D01*
X157769560Y-64865824D01*
X157769560Y-64819151D01*
X157812740Y-64819151D01*
X157880851Y-64806335D01*
X157900466Y-64853691D01*
X158071949Y-65025174D01*
X158296003Y-65117980D01*
X158562040Y-65117980D01*
X158714440Y-64965580D01*
X158714440Y-64160400D01*
X158694440Y-64160400D01*
X158694440Y-63855600D01*
X158714440Y-63855600D01*
X158714440Y-63835600D01*
X159019240Y-63835600D01*
X159019240Y-63855600D01*
G36*
X144119600Y-61763336D02*
X144119600Y-63026393D01*
X143998747Y-63147035D01*
X143903808Y-63375674D01*
X143903592Y-63623240D01*
X143998132Y-63852044D01*
X144173035Y-64027253D01*
X144229829Y-64050836D01*
X144207651Y-64065106D01*
X144129507Y-64011713D01*
X144008600Y-63987229D01*
X143639701Y-63987229D01*
X143625394Y-63952689D01*
X143453911Y-63781206D01*
X143229857Y-63688400D01*
X143136000Y-63688400D01*
X142983600Y-63840800D01*
X142983600Y-65395600D01*
X143031000Y-65395600D01*
X143031000Y-65700400D01*
X142983600Y-65700400D01*
X142983600Y-65720400D01*
X142733600Y-65720400D01*
X142733600Y-65700400D01*
X142686200Y-65700400D01*
X142686200Y-65395600D01*
X142733600Y-65395600D01*
X142733600Y-63840800D01*
X142581200Y-63688400D01*
X142487343Y-63688400D01*
X142263289Y-63781206D01*
X142091806Y-63952689D01*
X142077499Y-63987229D01*
X141839701Y-63987229D01*
X141825394Y-63952689D01*
X141653911Y-63781206D01*
X141429857Y-63688400D01*
X141336000Y-63688400D01*
X141183600Y-63840800D01*
X141183600Y-65395600D01*
X141231000Y-65395600D01*
X141231000Y-65700400D01*
X141183600Y-65700400D01*
X141183600Y-65720400D01*
X140933600Y-65720400D01*
X140933600Y-65700400D01*
X140886200Y-65700400D01*
X140886200Y-65395600D01*
X140933600Y-65395600D01*
X140933600Y-63840800D01*
X140781200Y-63688400D01*
X140687343Y-63688400D01*
X140463289Y-63781206D01*
X140291806Y-63952689D01*
X140277499Y-63987229D01*
X139969371Y-63987229D01*
X139969371Y-63498000D01*
X139948118Y-63385048D01*
X139891494Y-63297051D01*
X139944887Y-63218907D01*
X139969371Y-63098000D01*
X139969371Y-62598000D01*
X139948118Y-62485048D01*
X139891494Y-62397051D01*
X139920636Y-62354400D01*
X140214442Y-62354400D01*
X140363035Y-62503253D01*
X140591674Y-62598192D01*
X140839240Y-62598408D01*
X141068044Y-62503868D01*
X141243253Y-62328965D01*
X141338192Y-62100326D01*
X141338408Y-61852760D01*
X141243868Y-61623956D01*
X141074608Y-61454400D01*
X141473461Y-61454400D01*
X141633035Y-61614253D01*
X141861674Y-61709192D01*
X142109240Y-61709408D01*
X142338044Y-61614868D01*
X142513253Y-61439965D01*
X142608192Y-61211326D01*
X142608408Y-60963760D01*
X142513868Y-60734956D01*
X142338965Y-60559747D01*
X142326088Y-60554400D01*
X142910664Y-60554400D01*
X144119600Y-61763336D01*
X144119600Y-61763336D01*
G37*
X144119600Y-61763336D02*
X144119600Y-63026393D01*
X143998747Y-63147035D01*
X143903808Y-63375674D01*
X143903592Y-63623240D01*
X143998132Y-63852044D01*
X144173035Y-64027253D01*
X144229829Y-64050836D01*
X144207651Y-64065106D01*
X144129507Y-64011713D01*
X144008600Y-63987229D01*
X143639701Y-63987229D01*
X143625394Y-63952689D01*
X143453911Y-63781206D01*
X143229857Y-63688400D01*
X143136000Y-63688400D01*
X142983600Y-63840800D01*
X142983600Y-65395600D01*
X143031000Y-65395600D01*
X143031000Y-65700400D01*
X142983600Y-65700400D01*
X142983600Y-65720400D01*
X142733600Y-65720400D01*
X142733600Y-65700400D01*
X142686200Y-65700400D01*
X142686200Y-65395600D01*
X142733600Y-65395600D01*
X142733600Y-63840800D01*
X142581200Y-63688400D01*
X142487343Y-63688400D01*
X142263289Y-63781206D01*
X142091806Y-63952689D01*
X142077499Y-63987229D01*
X141839701Y-63987229D01*
X141825394Y-63952689D01*
X141653911Y-63781206D01*
X141429857Y-63688400D01*
X141336000Y-63688400D01*
X141183600Y-63840800D01*
X141183600Y-65395600D01*
X141231000Y-65395600D01*
X141231000Y-65700400D01*
X141183600Y-65700400D01*
X141183600Y-65720400D01*
X140933600Y-65720400D01*
X140933600Y-65700400D01*
X140886200Y-65700400D01*
X140886200Y-65395600D01*
X140933600Y-65395600D01*
X140933600Y-63840800D01*
X140781200Y-63688400D01*
X140687343Y-63688400D01*
X140463289Y-63781206D01*
X140291806Y-63952689D01*
X140277499Y-63987229D01*
X139969371Y-63987229D01*
X139969371Y-63498000D01*
X139948118Y-63385048D01*
X139891494Y-63297051D01*
X139944887Y-63218907D01*
X139969371Y-63098000D01*
X139969371Y-62598000D01*
X139948118Y-62485048D01*
X139891494Y-62397051D01*
X139920636Y-62354400D01*
X140214442Y-62354400D01*
X140363035Y-62503253D01*
X140591674Y-62598192D01*
X140839240Y-62598408D01*
X141068044Y-62503868D01*
X141243253Y-62328965D01*
X141338192Y-62100326D01*
X141338408Y-61852760D01*
X141243868Y-61623956D01*
X141074608Y-61454400D01*
X141473461Y-61454400D01*
X141633035Y-61614253D01*
X141861674Y-61709192D01*
X142109240Y-61709408D01*
X142338044Y-61614868D01*
X142513253Y-61439965D01*
X142608192Y-61211326D01*
X142608408Y-60963760D01*
X142513868Y-60734956D01*
X142338965Y-60559747D01*
X142326088Y-60554400D01*
X142910664Y-60554400D01*
X144119600Y-61763336D01*
G36*
X136701400Y-53723000D02*
X138256200Y-53723000D01*
X138256200Y-53695600D01*
X138561000Y-53695600D01*
X138561000Y-53723000D01*
X140115800Y-53723000D01*
X140143200Y-53695600D01*
X141122400Y-53695600D01*
X141122400Y-56769000D01*
X141129348Y-56805927D01*
X141151172Y-56839843D01*
X141184472Y-56862595D01*
X141224000Y-56870600D01*
X148971000Y-56870600D01*
X149007927Y-56863652D01*
X149041843Y-56841828D01*
X149053067Y-56825400D01*
X149949000Y-56825400D01*
X149949000Y-56919257D01*
X149981616Y-56998000D01*
X149949000Y-57076743D01*
X149949000Y-57170600D01*
X150101400Y-57323000D01*
X150233100Y-57323000D01*
X150437343Y-57407600D01*
X151503800Y-57407600D01*
X151588400Y-57323000D01*
X151656200Y-57323000D01*
X151656200Y-56673000D01*
X151961000Y-56673000D01*
X151961000Y-57323000D01*
X152028800Y-57323000D01*
X152113400Y-57407600D01*
X153179857Y-57407600D01*
X153384100Y-57323000D01*
X153515800Y-57323000D01*
X153668200Y-57170600D01*
X153668200Y-57076743D01*
X153635584Y-56998000D01*
X153668200Y-56919257D01*
X153668200Y-56825400D01*
X153515800Y-56673000D01*
X153384100Y-56673000D01*
X153179857Y-56588400D01*
X152113400Y-56588400D01*
X152028800Y-56673000D01*
X151961000Y-56673000D01*
X151656200Y-56673000D01*
X151588400Y-56673000D01*
X151503800Y-56588400D01*
X150437343Y-56588400D01*
X150233100Y-56673000D01*
X150101400Y-56673000D01*
X149949000Y-56825400D01*
X149053067Y-56825400D01*
X149064595Y-56808528D01*
X149072600Y-56769000D01*
X149072600Y-55925400D01*
X149949000Y-55925400D01*
X149949000Y-56019257D01*
X149981616Y-56098000D01*
X149949000Y-56176743D01*
X149949000Y-56270600D01*
X150101400Y-56423000D01*
X150233100Y-56423000D01*
X150437343Y-56507600D01*
X151503800Y-56507600D01*
X151588400Y-56423000D01*
X151656200Y-56423000D01*
X151656200Y-55773000D01*
X151961000Y-55773000D01*
X151961000Y-56423000D01*
X152028800Y-56423000D01*
X152113400Y-56507600D01*
X153179857Y-56507600D01*
X153384100Y-56423000D01*
X153515800Y-56423000D01*
X153668200Y-56270600D01*
X153668200Y-56176743D01*
X153635584Y-56098000D01*
X153668200Y-56019257D01*
X153668200Y-55925400D01*
X153515800Y-55773000D01*
X153384100Y-55773000D01*
X153179857Y-55688400D01*
X152113400Y-55688400D01*
X152028800Y-55773000D01*
X151961000Y-55773000D01*
X151656200Y-55773000D01*
X151588400Y-55773000D01*
X151503800Y-55688400D01*
X150437343Y-55688400D01*
X150233100Y-55773000D01*
X150101400Y-55773000D01*
X149949000Y-55925400D01*
X149072600Y-55925400D01*
X149072600Y-55025400D01*
X149949000Y-55025400D01*
X149949000Y-55119257D01*
X149981616Y-55198000D01*
X149949000Y-55276743D01*
X149949000Y-55370600D01*
X150101400Y-55523000D01*
X150233100Y-55523000D01*
X150437343Y-55607600D01*
X151503800Y-55607600D01*
X151588400Y-55523000D01*
X151656200Y-55523000D01*
X151656200Y-54873000D01*
X151961000Y-54873000D01*
X151961000Y-55523000D01*
X152028800Y-55523000D01*
X152113400Y-55607600D01*
X153179857Y-55607600D01*
X153384100Y-55523000D01*
X153515800Y-55523000D01*
X153668200Y-55370600D01*
X153668200Y-55276743D01*
X153635584Y-55198000D01*
X153668200Y-55119257D01*
X153668200Y-55025400D01*
X153515800Y-54873000D01*
X153384100Y-54873000D01*
X153179857Y-54788400D01*
X152113400Y-54788400D01*
X152028800Y-54873000D01*
X151961000Y-54873000D01*
X151656200Y-54873000D01*
X151588400Y-54873000D01*
X151503800Y-54788400D01*
X150437343Y-54788400D01*
X150233100Y-54873000D01*
X150101400Y-54873000D01*
X149949000Y-55025400D01*
X149072600Y-55025400D01*
X149072600Y-54125400D01*
X149949000Y-54125400D01*
X149949000Y-54219257D01*
X149981616Y-54298000D01*
X149949000Y-54376743D01*
X149949000Y-54470600D01*
X150101400Y-54623000D01*
X150233100Y-54623000D01*
X150437343Y-54707600D01*
X151503800Y-54707600D01*
X151588400Y-54623000D01*
X151656200Y-54623000D01*
X151656200Y-53973000D01*
X151961000Y-53973000D01*
X151961000Y-54623000D01*
X152028800Y-54623000D01*
X152113400Y-54707600D01*
X153179857Y-54707600D01*
X153384100Y-54623000D01*
X153515800Y-54623000D01*
X153668200Y-54470600D01*
X153668200Y-54376743D01*
X153635584Y-54298000D01*
X153668200Y-54219257D01*
X153668200Y-54125400D01*
X153515800Y-53973000D01*
X153384100Y-53973000D01*
X153179857Y-53888400D01*
X152113400Y-53888400D01*
X152028800Y-53973000D01*
X151961000Y-53973000D01*
X151656200Y-53973000D01*
X151588400Y-53973000D01*
X151503800Y-53888400D01*
X150437343Y-53888400D01*
X150233100Y-53973000D01*
X150101400Y-53973000D01*
X149949000Y-54125400D01*
X149072600Y-54125400D01*
X149072600Y-53695600D01*
X150074000Y-53695600D01*
X150101400Y-53723000D01*
X151656200Y-53723000D01*
X151656200Y-53695600D01*
X151961000Y-53695600D01*
X151961000Y-53723000D01*
X153515800Y-53723000D01*
X153543200Y-53695600D01*
X159918400Y-53695600D01*
X159918400Y-55330664D01*
X159672368Y-55084632D01*
X159624562Y-55052689D01*
X159540523Y-54996535D01*
X159385000Y-54965600D01*
X156591000Y-54965600D01*
X156440052Y-54995625D01*
X156435477Y-54996535D01*
X156303632Y-55084632D01*
X155922632Y-55465632D01*
X155834535Y-55597477D01*
X155803600Y-55753000D01*
X155803600Y-57870664D01*
X154822464Y-58851800D01*
X154245207Y-58851800D01*
X154124565Y-58730947D01*
X153895926Y-58636008D01*
X153668200Y-58635809D01*
X153668200Y-58625400D01*
X153515800Y-58473000D01*
X151961000Y-58473000D01*
X151961000Y-58520400D01*
X151656200Y-58520400D01*
X151656200Y-58473000D01*
X150101400Y-58473000D01*
X149949000Y-58625400D01*
X149949000Y-58719257D01*
X150041806Y-58943311D01*
X150213289Y-59114794D01*
X150247829Y-59129101D01*
X150247829Y-59498000D01*
X150269082Y-59610952D01*
X150325706Y-59698949D01*
X150272313Y-59777093D01*
X150247829Y-59898000D01*
X150247829Y-60398000D01*
X150269082Y-60510952D01*
X150325706Y-60598949D01*
X150272313Y-60677093D01*
X150247829Y-60798000D01*
X150247829Y-61298000D01*
X150269082Y-61410952D01*
X150325706Y-61498949D01*
X150272313Y-61577093D01*
X150247829Y-61698000D01*
X150247829Y-62198000D01*
X150269082Y-62310952D01*
X150325706Y-62398949D01*
X150272313Y-62477093D01*
X150247829Y-62598000D01*
X150247829Y-63098000D01*
X150269082Y-63210952D01*
X150325706Y-63298949D01*
X150272313Y-63377093D01*
X150247829Y-63498000D01*
X150247829Y-63987229D01*
X149808600Y-63987229D01*
X149695648Y-64008482D01*
X149607651Y-64065106D01*
X149529507Y-64011713D01*
X149408600Y-63987229D01*
X149039701Y-63987229D01*
X149025394Y-63952689D01*
X148853911Y-63781206D01*
X148629857Y-63688400D01*
X148536000Y-63688400D01*
X148383600Y-63840800D01*
X148383600Y-65395600D01*
X148431000Y-65395600D01*
X148431000Y-65700400D01*
X148383600Y-65700400D01*
X148383600Y-65720400D01*
X148133600Y-65720400D01*
X148133600Y-65700400D01*
X148086200Y-65700400D01*
X148086200Y-65395600D01*
X148133600Y-65395600D01*
X148133600Y-63840800D01*
X147981200Y-63688400D01*
X147887343Y-63688400D01*
X147765000Y-63739076D01*
X147765000Y-63406935D01*
X147799044Y-63392868D01*
X147974253Y-63217965D01*
X148069192Y-62989326D01*
X148069408Y-62741760D01*
X147974868Y-62512956D01*
X147799965Y-62337747D01*
X147693426Y-62293508D01*
X147799044Y-62249868D01*
X147974253Y-62074965D01*
X148069192Y-61846326D01*
X148069408Y-61598760D01*
X147974868Y-61369956D01*
X147799965Y-61194747D01*
X147571326Y-61099808D01*
X147323760Y-61099592D01*
X147094956Y-61194132D01*
X146919747Y-61369035D01*
X146824808Y-61597674D01*
X146824658Y-61769606D01*
X146171232Y-62423032D01*
X146083135Y-62554877D01*
X146052200Y-62710400D01*
X146052200Y-64036440D01*
X146007651Y-64065106D01*
X145929507Y-64011713D01*
X145808600Y-63987229D01*
X145308600Y-63987229D01*
X145195648Y-64008482D01*
X145107651Y-64065106D01*
X145029507Y-64011713D01*
X144917042Y-63988938D01*
X145053253Y-63852965D01*
X145148192Y-63624326D01*
X145148408Y-63376760D01*
X145053868Y-63147956D01*
X144932400Y-63026275D01*
X144932400Y-62384238D01*
X145014132Y-62582044D01*
X145189035Y-62757253D01*
X145417674Y-62852192D01*
X145665240Y-62852408D01*
X145894044Y-62757868D01*
X146069253Y-62582965D01*
X146164192Y-62354326D01*
X146164408Y-62106760D01*
X146069868Y-61877956D01*
X145925367Y-61733202D01*
X145917465Y-61693477D01*
X145829368Y-61561632D01*
X141993136Y-57725400D01*
X149949000Y-57725400D01*
X149949000Y-57819257D01*
X149981616Y-57898000D01*
X149949000Y-57976743D01*
X149949000Y-58070600D01*
X150101400Y-58223000D01*
X150233100Y-58223000D01*
X150437343Y-58307600D01*
X151503800Y-58307600D01*
X151588400Y-58223000D01*
X151656200Y-58223000D01*
X151656200Y-57573000D01*
X151961000Y-57573000D01*
X151961000Y-58223000D01*
X152028800Y-58223000D01*
X152113400Y-58307600D01*
X153179857Y-58307600D01*
X153384100Y-58223000D01*
X153515800Y-58223000D01*
X153668200Y-58070600D01*
X153668200Y-57976743D01*
X153635584Y-57898000D01*
X153668200Y-57819257D01*
X153668200Y-57725400D01*
X153515800Y-57573000D01*
X153384100Y-57573000D01*
X153179857Y-57488400D01*
X152113400Y-57488400D01*
X152028800Y-57573000D01*
X151961000Y-57573000D01*
X151656200Y-57573000D01*
X151588400Y-57573000D01*
X151503800Y-57488400D01*
X150437343Y-57488400D01*
X150233100Y-57573000D01*
X150101400Y-57573000D01*
X149949000Y-57725400D01*
X141993136Y-57725400D01*
X140528368Y-56260632D01*
X140514851Y-56251600D01*
X140396523Y-56172535D01*
X140241000Y-56141600D01*
X140217524Y-56141600D01*
X140268200Y-56019257D01*
X140268200Y-55925400D01*
X140115800Y-55773000D01*
X138561000Y-55773000D01*
X138561000Y-55820400D01*
X138256200Y-55820400D01*
X138256200Y-55773000D01*
X136701400Y-55773000D01*
X136549000Y-55925400D01*
X136549000Y-56019257D01*
X136641806Y-56243311D01*
X136813289Y-56414794D01*
X136847829Y-56429101D01*
X136847829Y-56798000D01*
X136869082Y-56910952D01*
X136925706Y-56998949D01*
X136872313Y-57077093D01*
X136847829Y-57198000D01*
X136847829Y-57698000D01*
X136869082Y-57810952D01*
X136925706Y-57898949D01*
X136872313Y-57977093D01*
X136847829Y-58098000D01*
X136847829Y-58598000D01*
X136867087Y-58700351D01*
X134409771Y-56243035D01*
X134409771Y-55667000D01*
X134388518Y-55554048D01*
X134321763Y-55450308D01*
X134219907Y-55380713D01*
X134099000Y-55356229D01*
X133756400Y-55356229D01*
X133756400Y-55072867D01*
X133788832Y-55025400D01*
X136549000Y-55025400D01*
X136549000Y-55119257D01*
X136581616Y-55198000D01*
X136549000Y-55276743D01*
X136549000Y-55370600D01*
X136701400Y-55523000D01*
X136833100Y-55523000D01*
X137037343Y-55607600D01*
X138103800Y-55607600D01*
X138188400Y-55523000D01*
X138256200Y-55523000D01*
X138256200Y-54873000D01*
X138561000Y-54873000D01*
X138561000Y-55523000D01*
X138628800Y-55523000D01*
X138713400Y-55607600D01*
X139779857Y-55607600D01*
X139984100Y-55523000D01*
X140115800Y-55523000D01*
X140268200Y-55370600D01*
X140268200Y-55276743D01*
X140235584Y-55198000D01*
X140268200Y-55119257D01*
X140268200Y-55025400D01*
X140115800Y-54873000D01*
X139984100Y-54873000D01*
X139779857Y-54788400D01*
X138713400Y-54788400D01*
X138628800Y-54873000D01*
X138561000Y-54873000D01*
X138256200Y-54873000D01*
X138188400Y-54873000D01*
X138103800Y-54788400D01*
X137037343Y-54788400D01*
X136833100Y-54873000D01*
X136701400Y-54873000D01*
X136549000Y-55025400D01*
X133788832Y-55025400D01*
X133821707Y-54977287D01*
X133846191Y-54856380D01*
X133846191Y-54125400D01*
X136549000Y-54125400D01*
X136549000Y-54219257D01*
X136581616Y-54298000D01*
X136549000Y-54376743D01*
X136549000Y-54470600D01*
X136701400Y-54623000D01*
X136833100Y-54623000D01*
X137037343Y-54707600D01*
X138103800Y-54707600D01*
X138188400Y-54623000D01*
X138256200Y-54623000D01*
X138256200Y-53973000D01*
X138561000Y-53973000D01*
X138561000Y-54623000D01*
X138628800Y-54623000D01*
X138713400Y-54707600D01*
X139779857Y-54707600D01*
X139984100Y-54623000D01*
X140115800Y-54623000D01*
X140268200Y-54470600D01*
X140268200Y-54376743D01*
X140235584Y-54298000D01*
X140268200Y-54219257D01*
X140268200Y-54125400D01*
X140115800Y-53973000D01*
X139984100Y-53973000D01*
X139779857Y-53888400D01*
X138713400Y-53888400D01*
X138628800Y-53973000D01*
X138561000Y-53973000D01*
X138256200Y-53973000D01*
X138188400Y-53973000D01*
X138103800Y-53888400D01*
X137037343Y-53888400D01*
X136833100Y-53973000D01*
X136701400Y-53973000D01*
X136549000Y-54125400D01*
X133846191Y-54125400D01*
X133846191Y-53855620D01*
X133824938Y-53742668D01*
X133794651Y-53695600D01*
X136674000Y-53695600D01*
X136701400Y-53723000D01*
X136701400Y-53723000D01*
G37*
X136701400Y-53723000D02*
X138256200Y-53723000D01*
X138256200Y-53695600D01*
X138561000Y-53695600D01*
X138561000Y-53723000D01*
X140115800Y-53723000D01*
X140143200Y-53695600D01*
X141122400Y-53695600D01*
X141122400Y-56769000D01*
X141129348Y-56805927D01*
X141151172Y-56839843D01*
X141184472Y-56862595D01*
X141224000Y-56870600D01*
X148971000Y-56870600D01*
X149007927Y-56863652D01*
X149041843Y-56841828D01*
X149053067Y-56825400D01*
X149949000Y-56825400D01*
X149949000Y-56919257D01*
X149981616Y-56998000D01*
X149949000Y-57076743D01*
X149949000Y-57170600D01*
X150101400Y-57323000D01*
X150233100Y-57323000D01*
X150437343Y-57407600D01*
X151503800Y-57407600D01*
X151588400Y-57323000D01*
X151656200Y-57323000D01*
X151656200Y-56673000D01*
X151961000Y-56673000D01*
X151961000Y-57323000D01*
X152028800Y-57323000D01*
X152113400Y-57407600D01*
X153179857Y-57407600D01*
X153384100Y-57323000D01*
X153515800Y-57323000D01*
X153668200Y-57170600D01*
X153668200Y-57076743D01*
X153635584Y-56998000D01*
X153668200Y-56919257D01*
X153668200Y-56825400D01*
X153515800Y-56673000D01*
X153384100Y-56673000D01*
X153179857Y-56588400D01*
X152113400Y-56588400D01*
X152028800Y-56673000D01*
X151961000Y-56673000D01*
X151656200Y-56673000D01*
X151588400Y-56673000D01*
X151503800Y-56588400D01*
X150437343Y-56588400D01*
X150233100Y-56673000D01*
X150101400Y-56673000D01*
X149949000Y-56825400D01*
X149053067Y-56825400D01*
X149064595Y-56808528D01*
X149072600Y-56769000D01*
X149072600Y-55925400D01*
X149949000Y-55925400D01*
X149949000Y-56019257D01*
X149981616Y-56098000D01*
X149949000Y-56176743D01*
X149949000Y-56270600D01*
X150101400Y-56423000D01*
X150233100Y-56423000D01*
X150437343Y-56507600D01*
X151503800Y-56507600D01*
X151588400Y-56423000D01*
X151656200Y-56423000D01*
X151656200Y-55773000D01*
X151961000Y-55773000D01*
X151961000Y-56423000D01*
X152028800Y-56423000D01*
X152113400Y-56507600D01*
X153179857Y-56507600D01*
X153384100Y-56423000D01*
X153515800Y-56423000D01*
X153668200Y-56270600D01*
X153668200Y-56176743D01*
X153635584Y-56098000D01*
X153668200Y-56019257D01*
X153668200Y-55925400D01*
X153515800Y-55773000D01*
X153384100Y-55773000D01*
X153179857Y-55688400D01*
X152113400Y-55688400D01*
X152028800Y-55773000D01*
X151961000Y-55773000D01*
X151656200Y-55773000D01*
X151588400Y-55773000D01*
X151503800Y-55688400D01*
X150437343Y-55688400D01*
X150233100Y-55773000D01*
X150101400Y-55773000D01*
X149949000Y-55925400D01*
X149072600Y-55925400D01*
X149072600Y-55025400D01*
X149949000Y-55025400D01*
X149949000Y-55119257D01*
X149981616Y-55198000D01*
X149949000Y-55276743D01*
X149949000Y-55370600D01*
X150101400Y-55523000D01*
X150233100Y-55523000D01*
X150437343Y-55607600D01*
X151503800Y-55607600D01*
X151588400Y-55523000D01*
X151656200Y-55523000D01*
X151656200Y-54873000D01*
X151961000Y-54873000D01*
X151961000Y-55523000D01*
X152028800Y-55523000D01*
X152113400Y-55607600D01*
X153179857Y-55607600D01*
X153384100Y-55523000D01*
X153515800Y-55523000D01*
X153668200Y-55370600D01*
X153668200Y-55276743D01*
X153635584Y-55198000D01*
X153668200Y-55119257D01*
X153668200Y-55025400D01*
X153515800Y-54873000D01*
X153384100Y-54873000D01*
X153179857Y-54788400D01*
X152113400Y-54788400D01*
X152028800Y-54873000D01*
X151961000Y-54873000D01*
X151656200Y-54873000D01*
X151588400Y-54873000D01*
X151503800Y-54788400D01*
X150437343Y-54788400D01*
X150233100Y-54873000D01*
X150101400Y-54873000D01*
X149949000Y-55025400D01*
X149072600Y-55025400D01*
X149072600Y-54125400D01*
X149949000Y-54125400D01*
X149949000Y-54219257D01*
X149981616Y-54298000D01*
X149949000Y-54376743D01*
X149949000Y-54470600D01*
X150101400Y-54623000D01*
X150233100Y-54623000D01*
X150437343Y-54707600D01*
X151503800Y-54707600D01*
X151588400Y-54623000D01*
X151656200Y-54623000D01*
X151656200Y-53973000D01*
X151961000Y-53973000D01*
X151961000Y-54623000D01*
X152028800Y-54623000D01*
X152113400Y-54707600D01*
X153179857Y-54707600D01*
X153384100Y-54623000D01*
X153515800Y-54623000D01*
X153668200Y-54470600D01*
X153668200Y-54376743D01*
X153635584Y-54298000D01*
X153668200Y-54219257D01*
X153668200Y-54125400D01*
X153515800Y-53973000D01*
X153384100Y-53973000D01*
X153179857Y-53888400D01*
X152113400Y-53888400D01*
X152028800Y-53973000D01*
X151961000Y-53973000D01*
X151656200Y-53973000D01*
X151588400Y-53973000D01*
X151503800Y-53888400D01*
X150437343Y-53888400D01*
X150233100Y-53973000D01*
X150101400Y-53973000D01*
X149949000Y-54125400D01*
X149072600Y-54125400D01*
X149072600Y-53695600D01*
X150074000Y-53695600D01*
X150101400Y-53723000D01*
X151656200Y-53723000D01*
X151656200Y-53695600D01*
X151961000Y-53695600D01*
X151961000Y-53723000D01*
X153515800Y-53723000D01*
X153543200Y-53695600D01*
X159918400Y-53695600D01*
X159918400Y-55330664D01*
X159672368Y-55084632D01*
X159624562Y-55052689D01*
X159540523Y-54996535D01*
X159385000Y-54965600D01*
X156591000Y-54965600D01*
X156440052Y-54995625D01*
X156435477Y-54996535D01*
X156303632Y-55084632D01*
X155922632Y-55465632D01*
X155834535Y-55597477D01*
X155803600Y-55753000D01*
X155803600Y-57870664D01*
X154822464Y-58851800D01*
X154245207Y-58851800D01*
X154124565Y-58730947D01*
X153895926Y-58636008D01*
X153668200Y-58635809D01*
X153668200Y-58625400D01*
X153515800Y-58473000D01*
X151961000Y-58473000D01*
X151961000Y-58520400D01*
X151656200Y-58520400D01*
X151656200Y-58473000D01*
X150101400Y-58473000D01*
X149949000Y-58625400D01*
X149949000Y-58719257D01*
X150041806Y-58943311D01*
X150213289Y-59114794D01*
X150247829Y-59129101D01*
X150247829Y-59498000D01*
X150269082Y-59610952D01*
X150325706Y-59698949D01*
X150272313Y-59777093D01*
X150247829Y-59898000D01*
X150247829Y-60398000D01*
X150269082Y-60510952D01*
X150325706Y-60598949D01*
X150272313Y-60677093D01*
X150247829Y-60798000D01*
X150247829Y-61298000D01*
X150269082Y-61410952D01*
X150325706Y-61498949D01*
X150272313Y-61577093D01*
X150247829Y-61698000D01*
X150247829Y-62198000D01*
X150269082Y-62310952D01*
X150325706Y-62398949D01*
X150272313Y-62477093D01*
X150247829Y-62598000D01*
X150247829Y-63098000D01*
X150269082Y-63210952D01*
X150325706Y-63298949D01*
X150272313Y-63377093D01*
X150247829Y-63498000D01*
X150247829Y-63987229D01*
X149808600Y-63987229D01*
X149695648Y-64008482D01*
X149607651Y-64065106D01*
X149529507Y-64011713D01*
X149408600Y-63987229D01*
X149039701Y-63987229D01*
X149025394Y-63952689D01*
X148853911Y-63781206D01*
X148629857Y-63688400D01*
X148536000Y-63688400D01*
X148383600Y-63840800D01*
X148383600Y-65395600D01*
X148431000Y-65395600D01*
X148431000Y-65700400D01*
X148383600Y-65700400D01*
X148383600Y-65720400D01*
X148133600Y-65720400D01*
X148133600Y-65700400D01*
X148086200Y-65700400D01*
X148086200Y-65395600D01*
X148133600Y-65395600D01*
X148133600Y-63840800D01*
X147981200Y-63688400D01*
X147887343Y-63688400D01*
X147765000Y-63739076D01*
X147765000Y-63406935D01*
X147799044Y-63392868D01*
X147974253Y-63217965D01*
X148069192Y-62989326D01*
X148069408Y-62741760D01*
X147974868Y-62512956D01*
X147799965Y-62337747D01*
X147693426Y-62293508D01*
X147799044Y-62249868D01*
X147974253Y-62074965D01*
X148069192Y-61846326D01*
X148069408Y-61598760D01*
X147974868Y-61369956D01*
X147799965Y-61194747D01*
X147571326Y-61099808D01*
X147323760Y-61099592D01*
X147094956Y-61194132D01*
X146919747Y-61369035D01*
X146824808Y-61597674D01*
X146824658Y-61769606D01*
X146171232Y-62423032D01*
X146083135Y-62554877D01*
X146052200Y-62710400D01*
X146052200Y-64036440D01*
X146007651Y-64065106D01*
X145929507Y-64011713D01*
X145808600Y-63987229D01*
X145308600Y-63987229D01*
X145195648Y-64008482D01*
X145107651Y-64065106D01*
X145029507Y-64011713D01*
X144917042Y-63988938D01*
X145053253Y-63852965D01*
X145148192Y-63624326D01*
X145148408Y-63376760D01*
X145053868Y-63147956D01*
X144932400Y-63026275D01*
X144932400Y-62384238D01*
X145014132Y-62582044D01*
X145189035Y-62757253D01*
X145417674Y-62852192D01*
X145665240Y-62852408D01*
X145894044Y-62757868D01*
X146069253Y-62582965D01*
X146164192Y-62354326D01*
X146164408Y-62106760D01*
X146069868Y-61877956D01*
X145925367Y-61733202D01*
X145917465Y-61693477D01*
X145829368Y-61561632D01*
X141993136Y-57725400D01*
X149949000Y-57725400D01*
X149949000Y-57819257D01*
X149981616Y-57898000D01*
X149949000Y-57976743D01*
X149949000Y-58070600D01*
X150101400Y-58223000D01*
X150233100Y-58223000D01*
X150437343Y-58307600D01*
X151503800Y-58307600D01*
X151588400Y-58223000D01*
X151656200Y-58223000D01*
X151656200Y-57573000D01*
X151961000Y-57573000D01*
X151961000Y-58223000D01*
X152028800Y-58223000D01*
X152113400Y-58307600D01*
X153179857Y-58307600D01*
X153384100Y-58223000D01*
X153515800Y-58223000D01*
X153668200Y-58070600D01*
X153668200Y-57976743D01*
X153635584Y-57898000D01*
X153668200Y-57819257D01*
X153668200Y-57725400D01*
X153515800Y-57573000D01*
X153384100Y-57573000D01*
X153179857Y-57488400D01*
X152113400Y-57488400D01*
X152028800Y-57573000D01*
X151961000Y-57573000D01*
X151656200Y-57573000D01*
X151588400Y-57573000D01*
X151503800Y-57488400D01*
X150437343Y-57488400D01*
X150233100Y-57573000D01*
X150101400Y-57573000D01*
X149949000Y-57725400D01*
X141993136Y-57725400D01*
X140528368Y-56260632D01*
X140514851Y-56251600D01*
X140396523Y-56172535D01*
X140241000Y-56141600D01*
X140217524Y-56141600D01*
X140268200Y-56019257D01*
X140268200Y-55925400D01*
X140115800Y-55773000D01*
X138561000Y-55773000D01*
X138561000Y-55820400D01*
X138256200Y-55820400D01*
X138256200Y-55773000D01*
X136701400Y-55773000D01*
X136549000Y-55925400D01*
X136549000Y-56019257D01*
X136641806Y-56243311D01*
X136813289Y-56414794D01*
X136847829Y-56429101D01*
X136847829Y-56798000D01*
X136869082Y-56910952D01*
X136925706Y-56998949D01*
X136872313Y-57077093D01*
X136847829Y-57198000D01*
X136847829Y-57698000D01*
X136869082Y-57810952D01*
X136925706Y-57898949D01*
X136872313Y-57977093D01*
X136847829Y-58098000D01*
X136847829Y-58598000D01*
X136867087Y-58700351D01*
X134409771Y-56243035D01*
X134409771Y-55667000D01*
X134388518Y-55554048D01*
X134321763Y-55450308D01*
X134219907Y-55380713D01*
X134099000Y-55356229D01*
X133756400Y-55356229D01*
X133756400Y-55072867D01*
X133788832Y-55025400D01*
X136549000Y-55025400D01*
X136549000Y-55119257D01*
X136581616Y-55198000D01*
X136549000Y-55276743D01*
X136549000Y-55370600D01*
X136701400Y-55523000D01*
X136833100Y-55523000D01*
X137037343Y-55607600D01*
X138103800Y-55607600D01*
X138188400Y-55523000D01*
X138256200Y-55523000D01*
X138256200Y-54873000D01*
X138561000Y-54873000D01*
X138561000Y-55523000D01*
X138628800Y-55523000D01*
X138713400Y-55607600D01*
X139779857Y-55607600D01*
X139984100Y-55523000D01*
X140115800Y-55523000D01*
X140268200Y-55370600D01*
X140268200Y-55276743D01*
X140235584Y-55198000D01*
X140268200Y-55119257D01*
X140268200Y-55025400D01*
X140115800Y-54873000D01*
X139984100Y-54873000D01*
X139779857Y-54788400D01*
X138713400Y-54788400D01*
X138628800Y-54873000D01*
X138561000Y-54873000D01*
X138256200Y-54873000D01*
X138188400Y-54873000D01*
X138103800Y-54788400D01*
X137037343Y-54788400D01*
X136833100Y-54873000D01*
X136701400Y-54873000D01*
X136549000Y-55025400D01*
X133788832Y-55025400D01*
X133821707Y-54977287D01*
X133846191Y-54856380D01*
X133846191Y-54125400D01*
X136549000Y-54125400D01*
X136549000Y-54219257D01*
X136581616Y-54298000D01*
X136549000Y-54376743D01*
X136549000Y-54470600D01*
X136701400Y-54623000D01*
X136833100Y-54623000D01*
X137037343Y-54707600D01*
X138103800Y-54707600D01*
X138188400Y-54623000D01*
X138256200Y-54623000D01*
X138256200Y-53973000D01*
X138561000Y-53973000D01*
X138561000Y-54623000D01*
X138628800Y-54623000D01*
X138713400Y-54707600D01*
X139779857Y-54707600D01*
X139984100Y-54623000D01*
X140115800Y-54623000D01*
X140268200Y-54470600D01*
X140268200Y-54376743D01*
X140235584Y-54298000D01*
X140268200Y-54219257D01*
X140268200Y-54125400D01*
X140115800Y-53973000D01*
X139984100Y-53973000D01*
X139779857Y-53888400D01*
X138713400Y-53888400D01*
X138628800Y-53973000D01*
X138561000Y-53973000D01*
X138256200Y-53973000D01*
X138188400Y-53973000D01*
X138103800Y-53888400D01*
X137037343Y-53888400D01*
X136833100Y-53973000D01*
X136701400Y-53973000D01*
X136549000Y-54125400D01*
X133846191Y-54125400D01*
X133846191Y-53855620D01*
X133824938Y-53742668D01*
X133794651Y-53695600D01*
X136674000Y-53695600D01*
X136701400Y-53723000D01*
G36*
X132346742Y-54969332D02*
X132413497Y-55073072D01*
X132515353Y-55142667D01*
X132636260Y-55167151D01*
X132943600Y-55167151D01*
X132943600Y-55411231D01*
X132892308Y-55444237D01*
X132822713Y-55546093D01*
X132798229Y-55667000D01*
X132798229Y-56357000D01*
X132819482Y-56469952D01*
X132886237Y-56573692D01*
X132988093Y-56643287D01*
X133109000Y-56667771D01*
X133685035Y-56667771D01*
X133974664Y-56957400D01*
X133908800Y-56957400D01*
X133756400Y-57109800D01*
X133756400Y-57759600D01*
X134556200Y-57759600D01*
X134666532Y-57649268D01*
X136552632Y-59535368D01*
X136684477Y-59623465D01*
X136840000Y-59654400D01*
X136897040Y-59654400D01*
X136925706Y-59698949D01*
X136872313Y-59777093D01*
X136847829Y-59898000D01*
X136847829Y-60398000D01*
X136869082Y-60510952D01*
X136925706Y-60598949D01*
X136872313Y-60677093D01*
X136847829Y-60798000D01*
X136847829Y-61298000D01*
X136869082Y-61410952D01*
X136925706Y-61498949D01*
X136872313Y-61577093D01*
X136847829Y-61698000D01*
X136847829Y-62198000D01*
X136855731Y-62239995D01*
X136550400Y-61934664D01*
X136550400Y-60452000D01*
X136519465Y-60296477D01*
X136431368Y-60164632D01*
X135481368Y-59214632D01*
X135470844Y-59207600D01*
X135349523Y-59126535D01*
X135194000Y-59095600D01*
X132241355Y-59095600D01*
X132221118Y-58988048D01*
X132154363Y-58884308D01*
X132052507Y-58814713D01*
X131931600Y-58790229D01*
X130712400Y-58790229D01*
X130599448Y-58811482D01*
X130495708Y-58878237D01*
X130426113Y-58980093D01*
X130401629Y-59101000D01*
X130401629Y-59903000D01*
X130422882Y-60015952D01*
X130489637Y-60119692D01*
X130591493Y-60189287D01*
X130712400Y-60213771D01*
X131931600Y-60213771D01*
X132044552Y-60192518D01*
X132148292Y-60125763D01*
X132217887Y-60023907D01*
X132241277Y-59908400D01*
X132464935Y-59908400D01*
X132450113Y-59930093D01*
X132425629Y-60051000D01*
X132425629Y-60632924D01*
X132276911Y-60484206D01*
X132052857Y-60391400D01*
X131626800Y-60391400D01*
X131474400Y-60543800D01*
X131474400Y-61249600D01*
X132388800Y-61249600D01*
X132541200Y-61097200D01*
X132541200Y-61088525D01*
X132615493Y-61139287D01*
X132736400Y-61163771D01*
X133955600Y-61163771D01*
X134068552Y-61142518D01*
X134172292Y-61075763D01*
X134241887Y-60973907D01*
X134265277Y-60858400D01*
X134705664Y-60858400D01*
X135229600Y-61382336D01*
X135229600Y-62241809D01*
X135135620Y-62241809D01*
X135022668Y-62263062D01*
X135001070Y-62276960D01*
X135001110Y-62231245D01*
X134904640Y-61997772D01*
X134726168Y-61818987D01*
X134492863Y-61722111D01*
X134240245Y-61721890D01*
X134006772Y-61818360D01*
X133827987Y-61996832D01*
X133731111Y-62230137D01*
X133730890Y-62482755D01*
X133827360Y-62716228D01*
X134005832Y-62895013D01*
X134239137Y-62991889D01*
X134491755Y-62992110D01*
X134725228Y-62895640D01*
X134824849Y-62796193D01*
X134824849Y-63451740D01*
X134846102Y-63564692D01*
X134912857Y-63668432D01*
X135014713Y-63738027D01*
X135092048Y-63753688D01*
X135022668Y-63766742D01*
X134918928Y-63833497D01*
X134849333Y-63935353D01*
X134839765Y-63982600D01*
X133846191Y-63982600D01*
X133846191Y-63888620D01*
X133824938Y-63775668D01*
X133758183Y-63671928D01*
X133656327Y-63602333D01*
X133535420Y-63577849D01*
X132636260Y-63577849D01*
X132523308Y-63599102D01*
X132419568Y-63665857D01*
X132349973Y-63767713D01*
X132334312Y-63845048D01*
X132321258Y-63775668D01*
X132254503Y-63671928D01*
X132152647Y-63602333D01*
X132031740Y-63577849D01*
X131132580Y-63577849D01*
X131019628Y-63599102D01*
X130915888Y-63665857D01*
X130846293Y-63767713D01*
X130821809Y-63888620D01*
X130821809Y-63953073D01*
X130327400Y-63458664D01*
X130327400Y-62280105D01*
X130367089Y-62319794D01*
X130591143Y-62412600D01*
X131017200Y-62412600D01*
X131169600Y-62260200D01*
X131169600Y-61554400D01*
X131474400Y-61554400D01*
X131474400Y-62260200D01*
X131626800Y-62412600D01*
X132052857Y-62412600D01*
X132276911Y-62319794D01*
X132448394Y-62148311D01*
X132541200Y-61924257D01*
X132541200Y-61706800D01*
X132388800Y-61554400D01*
X131474400Y-61554400D01*
X131169600Y-61554400D01*
X131149600Y-61554400D01*
X131149600Y-61249600D01*
X131169600Y-61249600D01*
X131169600Y-60543800D01*
X131017200Y-60391400D01*
X130591143Y-60391400D01*
X130367089Y-60484206D01*
X130327400Y-60523895D01*
X130327400Y-58216800D01*
X132499400Y-58216800D01*
X132499400Y-58378257D01*
X132592206Y-58602311D01*
X132763689Y-58773794D01*
X132987743Y-58866600D01*
X133299200Y-58866600D01*
X133451600Y-58714200D01*
X133451600Y-58064400D01*
X133756400Y-58064400D01*
X133756400Y-58714200D01*
X133908800Y-58866600D01*
X134220257Y-58866600D01*
X134444311Y-58773794D01*
X134615794Y-58602311D01*
X134708600Y-58378257D01*
X134708600Y-58216800D01*
X134556200Y-58064400D01*
X133756400Y-58064400D01*
X133451600Y-58064400D01*
X132651800Y-58064400D01*
X132499400Y-58216800D01*
X130327400Y-58216800D01*
X130327400Y-57699336D01*
X130427495Y-57599241D01*
X130519000Y-57617771D01*
X131509000Y-57617771D01*
X131621952Y-57596518D01*
X131725692Y-57529763D01*
X131783100Y-57445743D01*
X132499400Y-57445743D01*
X132499400Y-57607200D01*
X132651800Y-57759600D01*
X133451600Y-57759600D01*
X133451600Y-57109800D01*
X133299200Y-56957400D01*
X132987743Y-56957400D01*
X132763689Y-57050206D01*
X132592206Y-57221689D01*
X132499400Y-57445743D01*
X131783100Y-57445743D01*
X131795287Y-57427907D01*
X131819771Y-57307000D01*
X131819771Y-56617000D01*
X131798518Y-56504048D01*
X131731763Y-56400308D01*
X131724400Y-56395277D01*
X131724400Y-55167151D01*
X132031740Y-55167151D01*
X132144692Y-55145898D01*
X132248432Y-55079143D01*
X132318027Y-54977287D01*
X132333688Y-54899952D01*
X132346742Y-54969332D01*
X132346742Y-54969332D01*
G37*
X132346742Y-54969332D02*
X132413497Y-55073072D01*
X132515353Y-55142667D01*
X132636260Y-55167151D01*
X132943600Y-55167151D01*
X132943600Y-55411231D01*
X132892308Y-55444237D01*
X132822713Y-55546093D01*
X132798229Y-55667000D01*
X132798229Y-56357000D01*
X132819482Y-56469952D01*
X132886237Y-56573692D01*
X132988093Y-56643287D01*
X133109000Y-56667771D01*
X133685035Y-56667771D01*
X133974664Y-56957400D01*
X133908800Y-56957400D01*
X133756400Y-57109800D01*
X133756400Y-57759600D01*
X134556200Y-57759600D01*
X134666532Y-57649268D01*
X136552632Y-59535368D01*
X136684477Y-59623465D01*
X136840000Y-59654400D01*
X136897040Y-59654400D01*
X136925706Y-59698949D01*
X136872313Y-59777093D01*
X136847829Y-59898000D01*
X136847829Y-60398000D01*
X136869082Y-60510952D01*
X136925706Y-60598949D01*
X136872313Y-60677093D01*
X136847829Y-60798000D01*
X136847829Y-61298000D01*
X136869082Y-61410952D01*
X136925706Y-61498949D01*
X136872313Y-61577093D01*
X136847829Y-61698000D01*
X136847829Y-62198000D01*
X136855731Y-62239995D01*
X136550400Y-61934664D01*
X136550400Y-60452000D01*
X136519465Y-60296477D01*
X136431368Y-60164632D01*
X135481368Y-59214632D01*
X135470844Y-59207600D01*
X135349523Y-59126535D01*
X135194000Y-59095600D01*
X132241355Y-59095600D01*
X132221118Y-58988048D01*
X132154363Y-58884308D01*
X132052507Y-58814713D01*
X131931600Y-58790229D01*
X130712400Y-58790229D01*
X130599448Y-58811482D01*
X130495708Y-58878237D01*
X130426113Y-58980093D01*
X130401629Y-59101000D01*
X130401629Y-59903000D01*
X130422882Y-60015952D01*
X130489637Y-60119692D01*
X130591493Y-60189287D01*
X130712400Y-60213771D01*
X131931600Y-60213771D01*
X132044552Y-60192518D01*
X132148292Y-60125763D01*
X132217887Y-60023907D01*
X132241277Y-59908400D01*
X132464935Y-59908400D01*
X132450113Y-59930093D01*
X132425629Y-60051000D01*
X132425629Y-60632924D01*
X132276911Y-60484206D01*
X132052857Y-60391400D01*
X131626800Y-60391400D01*
X131474400Y-60543800D01*
X131474400Y-61249600D01*
X132388800Y-61249600D01*
X132541200Y-61097200D01*
X132541200Y-61088525D01*
X132615493Y-61139287D01*
X132736400Y-61163771D01*
X133955600Y-61163771D01*
X134068552Y-61142518D01*
X134172292Y-61075763D01*
X134241887Y-60973907D01*
X134265277Y-60858400D01*
X134705664Y-60858400D01*
X135229600Y-61382336D01*
X135229600Y-62241809D01*
X135135620Y-62241809D01*
X135022668Y-62263062D01*
X135001070Y-62276960D01*
X135001110Y-62231245D01*
X134904640Y-61997772D01*
X134726168Y-61818987D01*
X134492863Y-61722111D01*
X134240245Y-61721890D01*
X134006772Y-61818360D01*
X133827987Y-61996832D01*
X133731111Y-62230137D01*
X133730890Y-62482755D01*
X133827360Y-62716228D01*
X134005832Y-62895013D01*
X134239137Y-62991889D01*
X134491755Y-62992110D01*
X134725228Y-62895640D01*
X134824849Y-62796193D01*
X134824849Y-63451740D01*
X134846102Y-63564692D01*
X134912857Y-63668432D01*
X135014713Y-63738027D01*
X135092048Y-63753688D01*
X135022668Y-63766742D01*
X134918928Y-63833497D01*
X134849333Y-63935353D01*
X134839765Y-63982600D01*
X133846191Y-63982600D01*
X133846191Y-63888620D01*
X133824938Y-63775668D01*
X133758183Y-63671928D01*
X133656327Y-63602333D01*
X133535420Y-63577849D01*
X132636260Y-63577849D01*
X132523308Y-63599102D01*
X132419568Y-63665857D01*
X132349973Y-63767713D01*
X132334312Y-63845048D01*
X132321258Y-63775668D01*
X132254503Y-63671928D01*
X132152647Y-63602333D01*
X132031740Y-63577849D01*
X131132580Y-63577849D01*
X131019628Y-63599102D01*
X130915888Y-63665857D01*
X130846293Y-63767713D01*
X130821809Y-63888620D01*
X130821809Y-63953073D01*
X130327400Y-63458664D01*
X130327400Y-62280105D01*
X130367089Y-62319794D01*
X130591143Y-62412600D01*
X131017200Y-62412600D01*
X131169600Y-62260200D01*
X131169600Y-61554400D01*
X131474400Y-61554400D01*
X131474400Y-62260200D01*
X131626800Y-62412600D01*
X132052857Y-62412600D01*
X132276911Y-62319794D01*
X132448394Y-62148311D01*
X132541200Y-61924257D01*
X132541200Y-61706800D01*
X132388800Y-61554400D01*
X131474400Y-61554400D01*
X131169600Y-61554400D01*
X131149600Y-61554400D01*
X131149600Y-61249600D01*
X131169600Y-61249600D01*
X131169600Y-60543800D01*
X131017200Y-60391400D01*
X130591143Y-60391400D01*
X130367089Y-60484206D01*
X130327400Y-60523895D01*
X130327400Y-58216800D01*
X132499400Y-58216800D01*
X132499400Y-58378257D01*
X132592206Y-58602311D01*
X132763689Y-58773794D01*
X132987743Y-58866600D01*
X133299200Y-58866600D01*
X133451600Y-58714200D01*
X133451600Y-58064400D01*
X133756400Y-58064400D01*
X133756400Y-58714200D01*
X133908800Y-58866600D01*
X134220257Y-58866600D01*
X134444311Y-58773794D01*
X134615794Y-58602311D01*
X134708600Y-58378257D01*
X134708600Y-58216800D01*
X134556200Y-58064400D01*
X133756400Y-58064400D01*
X133451600Y-58064400D01*
X132651800Y-58064400D01*
X132499400Y-58216800D01*
X130327400Y-58216800D01*
X130327400Y-57699336D01*
X130427495Y-57599241D01*
X130519000Y-57617771D01*
X131509000Y-57617771D01*
X131621952Y-57596518D01*
X131725692Y-57529763D01*
X131783100Y-57445743D01*
X132499400Y-57445743D01*
X132499400Y-57607200D01*
X132651800Y-57759600D01*
X133451600Y-57759600D01*
X133451600Y-57109800D01*
X133299200Y-56957400D01*
X132987743Y-56957400D01*
X132763689Y-57050206D01*
X132592206Y-57221689D01*
X132499400Y-57445743D01*
X131783100Y-57445743D01*
X131795287Y-57427907D01*
X131819771Y-57307000D01*
X131819771Y-56617000D01*
X131798518Y-56504048D01*
X131731763Y-56400308D01*
X131724400Y-56395277D01*
X131724400Y-55167151D01*
X132031740Y-55167151D01*
X132144692Y-55145898D01*
X132248432Y-55079143D01*
X132318027Y-54977287D01*
X132333688Y-54899952D01*
X132346742Y-54969332D01*
G36*
X158979669Y-61326858D02*
X158965526Y-61341000D01*
X158979669Y-61355143D01*
X158764143Y-61570669D01*
X158750000Y-61556526D01*
X158735858Y-61570669D01*
X158520332Y-61355143D01*
X158534474Y-61341000D01*
X158520332Y-61326858D01*
X158735858Y-61111332D01*
X158750000Y-61125474D01*
X158764143Y-61111332D01*
X158979669Y-61326858D01*
X158979669Y-61326858D01*
G37*
X158979669Y-61326858D02*
X158965526Y-61341000D01*
X158979669Y-61355143D01*
X158764143Y-61570669D01*
X158750000Y-61556526D01*
X158735858Y-61570669D01*
X158520332Y-61355143D01*
X158534474Y-61341000D01*
X158520332Y-61326858D01*
X158735858Y-61111332D01*
X158750000Y-61125474D01*
X158764143Y-61111332D01*
X158979669Y-61326858D01*
M02*
