M48
;DRILL file {KiCad 4.0.4-stable} date Sunday, April 30, 2017 'PMt' 09:58:22 PM
;FORMAT={-:-/ absolute / inch / decimal}
FMAT,2
INCH,TZ
T1C0.015
T2C0.026
T3C0.035
T4C0.067
%
G90
G05
M72
T1
X5.175Y-2.685
X5.21Y-2.25
X5.225Y-2.425
X5.23Y-2.64
X5.285Y-2.82
X5.531Y-2.333
X5.54Y-2.44
X5.565Y-2.675
X5.59Y-2.405
X5.62Y-3.56
X5.625Y-2.66
X5.64Y-3.07
X5.69Y-2.5
X5.69Y-2.66
X5.72Y-3.42
X5.73Y-2.45
X5.805Y-2.43
X5.805Y-2.475
X5.835Y-2.655
X5.84Y-2.695
X5.96Y-2.78
X6.054Y-2.333
X6.055Y-2.37
X6.055Y-2.475
X6.075Y-2.66
X6.075Y-2.96
X6.075Y-3.07
X6.125Y-2.66
X6.125Y-3.07
X6.13Y-2.96
X6.17Y-2.475
X6.21Y-2.825
X6.225Y-2.475
X6.235Y-2.87
X6.2546Y-2.52
T2
X6.2Y-2.215
X6.2Y-2.265
X6.2Y-2.315
X6.2Y-2.365
X6.2Y-2.415
X6.25Y-2.215
X6.25Y-2.265
X6.25Y-2.315
X6.25Y-2.365
X6.25Y-2.415
T3
X5.54Y-3.16
X5.59Y-3.26
X5.64Y-3.16
X5.69Y-3.26
X5.74Y-3.16
X5.79Y-3.26
X5.84Y-3.16
X5.89Y-3.26
T4
X5.4099Y-3.3899
X6.0201Y-3.3899
T0
M30
