M48
;DRILL file {KiCad 4.0.4-stable} date Sunday, February 26, 2017 'PMt' 06:01:33 PM
;FORMAT={-:-/ absolute / inch / decimal}
FMAT,2
INCH,TZ
T1C0.015
T2C0.026
T3C0.035
T4C0.067
%
G90
G05
M72
T1
X5.145Y-2.26
X5.16Y-2.37
X5.16Y-2.7
X5.16Y-3.
X5.16Y-3.17
X5.23Y-2.825
X5.275Y-2.15
X5.275Y-2.54
X5.295Y-2.755
X5.295Y-2.94
X5.295Y-3.095
X5.415Y-2.94
X5.475Y-2.58
X5.505Y-2.19
X5.531Y-2.333
X5.54Y-2.465
X5.575Y-2.465
X5.615Y-2.465
X5.655Y-2.465
X5.66Y-2.69
X5.69Y-2.465
X5.725Y-2.465
X5.76Y-2.695
X5.805Y-2.43
X5.805Y-2.475
X5.81Y-2.695
X5.81Y-3.04
X5.845Y-2.51
X5.86Y-2.695
X5.91Y-2.695
X6.Y-2.66
X6.Y-2.965
X6.054Y-2.333
X6.055Y-2.295
X6.055Y-2.37
X6.055Y-2.475
X6.08Y-3.65
X6.11Y-2.51
X6.11Y-3.76
X6.125Y-3.08
X6.14Y-2.67
X6.165Y-2.94
X6.17Y-2.475
X6.19Y-2.58
X6.195Y-3.15
X6.2Y-3.26
X6.225Y-2.475
X6.235Y-2.805
X6.2546Y-2.52
X6.28Y-2.94
X6.29Y-3.65
T2
X6.2Y-2.215
X6.2Y-2.265
X6.2Y-2.315
X6.2Y-2.365
X6.2Y-2.415
X6.25Y-2.215
X6.25Y-2.265
X6.25Y-2.315
X6.25Y-2.365
X6.25Y-2.415
T3
X5.537Y-3.264
X5.587Y-3.164
X5.637Y-3.264
X5.687Y-3.164
X5.737Y-3.264
X5.787Y-3.164
X5.837Y-3.264
X5.887Y-3.164
T4
X5.4069Y-3.3939
X6.0171Y-3.3939
T0
M30
