G04 #@! TF.FileFunction,Copper,L2,Bot,Signal*
%FSLAX46Y46*%
G04 Gerber Fmt 4.6, Leading zero omitted, Abs format (unit mm)*
G04 Created by KiCad (PCBNEW 4.0.4-stable) date Sunday, April 30, 2017 'PMt' 09:58:20 PM*
%MOMM*%
%LPD*%
G01*
G04 APERTURE LIST*
%ADD10C,0.100000*%
%ADD11C,1.397000*%
%ADD12C,2.413000*%
%ADD13R,1.016000X1.016000*%
%ADD14C,1.016000*%
%ADD15C,0.635000*%
%ADD16C,0.203200*%
G04 APERTURE END LIST*
D10*
D11*
X149606000Y-82804000D03*
X148336000Y-80264000D03*
X147066000Y-82804000D03*
X145796000Y-80264000D03*
X144526000Y-82804000D03*
X143256000Y-80264000D03*
X141986000Y-82804000D03*
X140716000Y-80264000D03*
D12*
X137411000Y-86104000D03*
X152911000Y-86104000D03*
D13*
X157480000Y-61341000D03*
D14*
X158750000Y-61341000D03*
X157480000Y-60071000D03*
X158750000Y-60071000D03*
X157480000Y-58801000D03*
X158750000Y-58801000D03*
X157480000Y-57531000D03*
X158750000Y-57531000D03*
X157480000Y-56261000D03*
X158750000Y-56261000D03*
D15*
X142748000Y-90424000D03*
X157734000Y-71755000D03*
X158369000Y-72898000D03*
X151384000Y-70612000D03*
X145288000Y-86868000D03*
X148209000Y-67437000D03*
X141351000Y-67945000D03*
X142875000Y-67564000D03*
X134239000Y-71628000D03*
X131445000Y-68199000D03*
X132334000Y-57150000D03*
X132715000Y-61595000D03*
X158866840Y-64008000D03*
X132842000Y-67056000D03*
X143256000Y-77978000D03*
X141986000Y-61087000D03*
X140716000Y-61976000D03*
X154305000Y-67564000D03*
X155575000Y-67564000D03*
X154305000Y-75184000D03*
X155702000Y-75184000D03*
X155575000Y-77978000D03*
X154305000Y-77978000D03*
X148336000Y-68453000D03*
X145542000Y-62230000D03*
X144526000Y-67564000D03*
X144526000Y-63500000D03*
X153771600Y-59258200D03*
X140487400Y-59258200D03*
X147447000Y-61722000D03*
X153797000Y-60198000D03*
X147447000Y-62865000D03*
X158115000Y-62865000D03*
X156718000Y-62865000D03*
X153797000Y-62865000D03*
D16*
X147066000Y-82804000D02*
X146304000Y-82804000D01*
X144526000Y-79248000D02*
X143256000Y-77978000D01*
X144526000Y-81026000D02*
X144526000Y-79248000D01*
X146304000Y-82804000D02*
X144526000Y-81026000D01*
X141986000Y-82804000D02*
X141986000Y-61087000D01*
X140716000Y-80264000D02*
X140716000Y-61976000D01*
X155575000Y-67564000D02*
X154305000Y-67564000D01*
X155702000Y-75184000D02*
X154305000Y-75184000D01*
X154305000Y-77978000D02*
X155575000Y-77978000D01*
X145542000Y-65659000D02*
X148336000Y-68453000D01*
X145542000Y-62230000D02*
X145542000Y-65659000D01*
X144526000Y-63500000D02*
X144526000Y-67564000D01*
X153771600Y-59258200D02*
X140487400Y-59258200D01*
X149098000Y-60071000D02*
X153670000Y-60071000D01*
X147447000Y-61722000D02*
X149098000Y-60071000D01*
X153670000Y-60071000D02*
X153797000Y-60198000D01*
X147447000Y-62865000D02*
X153797000Y-62865000D01*
X156718000Y-62865000D02*
X158115000Y-62865000D01*
G36*
X140106400Y-57912000D02*
X140114405Y-57951528D01*
X140137157Y-57984828D01*
X140171073Y-58006652D01*
X140208000Y-58013600D01*
X149860000Y-58013600D01*
X149899528Y-58005595D01*
X149932828Y-57982843D01*
X149954652Y-57948927D01*
X149961600Y-57912000D01*
X149961600Y-53695600D01*
X159918400Y-53695600D01*
X159918400Y-71956215D01*
X159892863Y-71945611D01*
X159640245Y-71945390D01*
X159406772Y-72041860D01*
X159227987Y-72220332D01*
X159131111Y-72453637D01*
X159130890Y-72706255D01*
X159227360Y-72939728D01*
X159405832Y-73118513D01*
X159639137Y-73215389D01*
X159891755Y-73215610D01*
X159918400Y-73204600D01*
X159918400Y-97180400D01*
X130149600Y-97180400D01*
X130149600Y-87408493D01*
X136322033Y-87408493D01*
X136449597Y-87686537D01*
X137128390Y-87933986D01*
X137850207Y-87902837D01*
X138111707Y-87794521D01*
X137832131Y-88073609D01*
X137541532Y-88773450D01*
X137540870Y-89531226D01*
X137830248Y-90231573D01*
X138365609Y-90767869D01*
X139065450Y-91058468D01*
X139823226Y-91059130D01*
X140523573Y-90769752D01*
X141059869Y-90234391D01*
X141350468Y-89534550D01*
X141350470Y-89531226D01*
X148970870Y-89531226D01*
X149260248Y-90231573D01*
X149795609Y-90767869D01*
X150495450Y-91058468D01*
X151253226Y-91059130D01*
X151953573Y-90769752D01*
X152489869Y-90234391D01*
X152780468Y-89534550D01*
X152781130Y-88776774D01*
X152491752Y-88076427D01*
X152190041Y-87774189D01*
X152628390Y-87933986D01*
X153350207Y-87902837D01*
X153872403Y-87686537D01*
X153999967Y-87408493D01*
X152911000Y-86319526D01*
X152896858Y-86333669D01*
X152681332Y-86118143D01*
X152695474Y-86104000D01*
X153126526Y-86104000D01*
X154215493Y-87192967D01*
X154493537Y-87065403D01*
X154740986Y-86386610D01*
X154709837Y-85664793D01*
X154493537Y-85142597D01*
X154215493Y-85015033D01*
X153126526Y-86104000D01*
X152695474Y-86104000D01*
X151606507Y-85015033D01*
X151328463Y-85142597D01*
X151081014Y-85821390D01*
X151112163Y-86543207D01*
X151328463Y-87065403D01*
X151606505Y-87192966D01*
X151495308Y-87304163D01*
X151571424Y-87380279D01*
X151256550Y-87249532D01*
X150498774Y-87248870D01*
X149798427Y-87538248D01*
X149262131Y-88073609D01*
X148971532Y-88773450D01*
X148970870Y-89531226D01*
X141350470Y-89531226D01*
X141351130Y-88776774D01*
X141061752Y-88076427D01*
X140526391Y-87540131D01*
X139826550Y-87249532D01*
X139068774Y-87248870D01*
X138750461Y-87380394D01*
X138826692Y-87304163D01*
X138715495Y-87192966D01*
X138993537Y-87065403D01*
X139240986Y-86386610D01*
X139209837Y-85664793D01*
X138993537Y-85142597D01*
X138715493Y-85015033D01*
X137626526Y-86104000D01*
X137640669Y-86118143D01*
X137425143Y-86333669D01*
X137411000Y-86319526D01*
X136322033Y-87408493D01*
X130149600Y-87408493D01*
X130149600Y-85821390D01*
X135581014Y-85821390D01*
X135612163Y-86543207D01*
X135828463Y-87065403D01*
X136106507Y-87192967D01*
X137195474Y-86104000D01*
X136106507Y-85015033D01*
X135828463Y-85142597D01*
X135581014Y-85821390D01*
X130149600Y-85821390D01*
X130149600Y-84799507D01*
X136322033Y-84799507D01*
X137411000Y-85888474D01*
X138499967Y-84799507D01*
X151822033Y-84799507D01*
X152911000Y-85888474D01*
X153999967Y-84799507D01*
X153872403Y-84521463D01*
X153193610Y-84274014D01*
X152471793Y-84305163D01*
X151949597Y-84521463D01*
X151822033Y-84799507D01*
X138499967Y-84799507D01*
X138372403Y-84521463D01*
X137693610Y-84274014D01*
X136971793Y-84305163D01*
X136449597Y-84521463D01*
X136322033Y-84799507D01*
X130149600Y-84799507D01*
X130149600Y-80462693D01*
X139712526Y-80462693D01*
X139864948Y-80831581D01*
X140146934Y-81114061D01*
X140515556Y-81267126D01*
X140914693Y-81267474D01*
X141283581Y-81115052D01*
X141566061Y-80833066D01*
X141579600Y-80800460D01*
X141579600Y-81886349D01*
X141418419Y-81952948D01*
X141135939Y-82234934D01*
X140982874Y-82603556D01*
X140982526Y-83002693D01*
X141134948Y-83371581D01*
X141416934Y-83654061D01*
X141785556Y-83807126D01*
X142184693Y-83807474D01*
X142553581Y-83655052D01*
X142836061Y-83373066D01*
X142989126Y-83004444D01*
X142989474Y-82605307D01*
X142837052Y-82236419D01*
X142555066Y-81953939D01*
X142392400Y-81886394D01*
X142392400Y-80801213D01*
X142404948Y-80831581D01*
X142686934Y-81114061D01*
X143055556Y-81267126D01*
X143454693Y-81267474D01*
X143823581Y-81115052D01*
X144106061Y-80833066D01*
X144119600Y-80800460D01*
X144119600Y-81026000D01*
X144150535Y-81181523D01*
X144162953Y-81200107D01*
X144238632Y-81313368D01*
X144726138Y-81800874D01*
X144327307Y-81800526D01*
X143958419Y-81952948D01*
X143675939Y-82234934D01*
X143522874Y-82603556D01*
X143522526Y-83002693D01*
X143674948Y-83371581D01*
X143956934Y-83654061D01*
X144325556Y-83807126D01*
X144724693Y-83807474D01*
X145093581Y-83655052D01*
X145376061Y-83373066D01*
X145529126Y-83004444D01*
X145529474Y-82605307D01*
X145528702Y-82603438D01*
X146016632Y-83091368D01*
X146130643Y-83167549D01*
X146214948Y-83371581D01*
X146496934Y-83654061D01*
X146865556Y-83807126D01*
X147264693Y-83807474D01*
X147633581Y-83655052D01*
X147916061Y-83373066D01*
X148069126Y-83004444D01*
X148069127Y-83002693D01*
X148602526Y-83002693D01*
X148754948Y-83371581D01*
X149036934Y-83654061D01*
X149405556Y-83807126D01*
X149804693Y-83807474D01*
X150173581Y-83655052D01*
X150456061Y-83373066D01*
X150609126Y-83004444D01*
X150609474Y-82605307D01*
X150457052Y-82236419D01*
X150175066Y-81953939D01*
X149806444Y-81800874D01*
X149407307Y-81800526D01*
X149038419Y-81952948D01*
X148755939Y-82234934D01*
X148602874Y-82603556D01*
X148602526Y-83002693D01*
X148069127Y-83002693D01*
X148069474Y-82605307D01*
X147917052Y-82236419D01*
X147635066Y-81953939D01*
X147266444Y-81800874D01*
X146867307Y-81800526D01*
X146498419Y-81952948D01*
X146262846Y-82188110D01*
X144932400Y-80857664D01*
X144932400Y-80801213D01*
X144944948Y-80831581D01*
X145226934Y-81114061D01*
X145595556Y-81267126D01*
X145994693Y-81267474D01*
X146157732Y-81200107D01*
X147615419Y-81200107D01*
X147680484Y-81425519D01*
X148174876Y-81587958D01*
X148693798Y-81548838D01*
X148991516Y-81425519D01*
X149056581Y-81200107D01*
X148336000Y-80479526D01*
X147615419Y-81200107D01*
X146157732Y-81200107D01*
X146363581Y-81115052D01*
X146646061Y-80833066D01*
X146799126Y-80464444D01*
X146799441Y-80102876D01*
X147012042Y-80102876D01*
X147051162Y-80621798D01*
X147174481Y-80919516D01*
X147399893Y-80984581D01*
X148120474Y-80264000D01*
X148551526Y-80264000D01*
X149272107Y-80984581D01*
X149497519Y-80919516D01*
X149659958Y-80425124D01*
X149620838Y-79906202D01*
X149497519Y-79608484D01*
X149272107Y-79543419D01*
X148551526Y-80264000D01*
X148120474Y-80264000D01*
X147399893Y-79543419D01*
X147174481Y-79608484D01*
X147012042Y-80102876D01*
X146799441Y-80102876D01*
X146799474Y-80065307D01*
X146647052Y-79696419D01*
X146365066Y-79413939D01*
X146157844Y-79327893D01*
X147615419Y-79327893D01*
X148336000Y-80048474D01*
X149056581Y-79327893D01*
X148991516Y-79102481D01*
X148497124Y-78940042D01*
X147978202Y-78979162D01*
X147680484Y-79102481D01*
X147615419Y-79327893D01*
X146157844Y-79327893D01*
X145996444Y-79260874D01*
X145597307Y-79260526D01*
X145228419Y-79412948D01*
X144945939Y-79694934D01*
X144932400Y-79727540D01*
X144932400Y-79248000D01*
X144901465Y-79092477D01*
X144813368Y-78960632D01*
X143953976Y-78101240D01*
X153682592Y-78101240D01*
X153777132Y-78330044D01*
X153952035Y-78505253D01*
X154180674Y-78600192D01*
X154428240Y-78600408D01*
X154657044Y-78505868D01*
X154778725Y-78384400D01*
X155101393Y-78384400D01*
X155222035Y-78505253D01*
X155450674Y-78600192D01*
X155698240Y-78600408D01*
X155927044Y-78505868D01*
X156102253Y-78330965D01*
X156197192Y-78102326D01*
X156197408Y-77854760D01*
X156102868Y-77625956D01*
X155927965Y-77450747D01*
X155699326Y-77355808D01*
X155451760Y-77355592D01*
X155222956Y-77450132D01*
X155101275Y-77571600D01*
X154778607Y-77571600D01*
X154657965Y-77450747D01*
X154429326Y-77355808D01*
X154181760Y-77355592D01*
X153952956Y-77450132D01*
X153777747Y-77625035D01*
X153682808Y-77853674D01*
X153682592Y-78101240D01*
X143953976Y-78101240D01*
X143878259Y-78025523D01*
X143878408Y-77854760D01*
X143783868Y-77625956D01*
X143608965Y-77450747D01*
X143380326Y-77355808D01*
X143132760Y-77355592D01*
X142903956Y-77450132D01*
X142728747Y-77625035D01*
X142633808Y-77853674D01*
X142633592Y-78101240D01*
X142728132Y-78330044D01*
X142903035Y-78505253D01*
X143131674Y-78600192D01*
X143303606Y-78600342D01*
X144119600Y-79416336D01*
X144119600Y-79726787D01*
X144107052Y-79696419D01*
X143825066Y-79413939D01*
X143456444Y-79260874D01*
X143057307Y-79260526D01*
X142688419Y-79412948D01*
X142405939Y-79694934D01*
X142392400Y-79727540D01*
X142392400Y-76770255D01*
X155066890Y-76770255D01*
X155163360Y-77003728D01*
X155341832Y-77182513D01*
X155575137Y-77279389D01*
X155827755Y-77279610D01*
X156061228Y-77183140D01*
X156240013Y-77004668D01*
X156336889Y-76771363D01*
X156337110Y-76518745D01*
X156240640Y-76285272D01*
X156062168Y-76106487D01*
X155828863Y-76009611D01*
X155576245Y-76009390D01*
X155342772Y-76105860D01*
X155163987Y-76284332D01*
X155067111Y-76517637D01*
X155066890Y-76770255D01*
X142392400Y-76770255D01*
X142392400Y-75307240D01*
X153682592Y-75307240D01*
X153777132Y-75536044D01*
X153952035Y-75711253D01*
X154180674Y-75806192D01*
X154428240Y-75806408D01*
X154657044Y-75711868D01*
X154778725Y-75590400D01*
X155228393Y-75590400D01*
X155349035Y-75711253D01*
X155577674Y-75806192D01*
X155825240Y-75806408D01*
X156054044Y-75711868D01*
X156229253Y-75536965D01*
X156324192Y-75308326D01*
X156324408Y-75060760D01*
X156229868Y-74831956D01*
X156054965Y-74656747D01*
X155826326Y-74561808D01*
X155578760Y-74561592D01*
X155349956Y-74656132D01*
X155228275Y-74777600D01*
X154778607Y-74777600D01*
X154657965Y-74656747D01*
X154429326Y-74561808D01*
X154181760Y-74561592D01*
X153952956Y-74656132D01*
X153777747Y-74831035D01*
X153682808Y-75059674D01*
X153682592Y-75307240D01*
X142392400Y-75307240D01*
X142392400Y-63623240D01*
X143903592Y-63623240D01*
X143998132Y-63852044D01*
X144119600Y-63973725D01*
X144119600Y-67090393D01*
X143998747Y-67211035D01*
X143903808Y-67439674D01*
X143903592Y-67687240D01*
X143998132Y-67916044D01*
X144173035Y-68091253D01*
X144401674Y-68186192D01*
X144649240Y-68186408D01*
X144878044Y-68091868D01*
X145053253Y-67916965D01*
X145148192Y-67688326D01*
X145148408Y-67440760D01*
X145053868Y-67211956D01*
X144932400Y-67090275D01*
X144932400Y-63973607D01*
X145053253Y-63852965D01*
X145135600Y-63654651D01*
X145135600Y-65659000D01*
X145166535Y-65814523D01*
X145211863Y-65882360D01*
X145254632Y-65946368D01*
X147713741Y-68405477D01*
X147713592Y-68576240D01*
X147808132Y-68805044D01*
X147983035Y-68980253D01*
X148211674Y-69075192D01*
X148459240Y-69075408D01*
X148688044Y-68980868D01*
X148863253Y-68805965D01*
X148958192Y-68577326D01*
X148958408Y-68329760D01*
X148863868Y-68100956D01*
X148688965Y-67925747D01*
X148460326Y-67830808D01*
X148288394Y-67830658D01*
X148144976Y-67687240D01*
X153682592Y-67687240D01*
X153777132Y-67916044D01*
X153952035Y-68091253D01*
X154180674Y-68186192D01*
X154428240Y-68186408D01*
X154657044Y-68091868D01*
X154778725Y-67970400D01*
X155101393Y-67970400D01*
X155222035Y-68091253D01*
X155450674Y-68186192D01*
X155698240Y-68186408D01*
X155927044Y-68091868D01*
X156102253Y-67916965D01*
X156197192Y-67688326D01*
X156197408Y-67440760D01*
X156102868Y-67211956D01*
X155927965Y-67036747D01*
X155699326Y-66941808D01*
X155451760Y-66941592D01*
X155222956Y-67036132D01*
X155101275Y-67157600D01*
X154778607Y-67157600D01*
X154657965Y-67036747D01*
X154429326Y-66941808D01*
X154181760Y-66941592D01*
X153952956Y-67036132D01*
X153777747Y-67211035D01*
X153682808Y-67439674D01*
X153682592Y-67687240D01*
X148144976Y-67687240D01*
X145948400Y-65490664D01*
X145948400Y-62703607D01*
X146069253Y-62582965D01*
X146164192Y-62354326D01*
X146164408Y-62106760D01*
X146069868Y-61877956D01*
X145894965Y-61702747D01*
X145666326Y-61607808D01*
X145418760Y-61607592D01*
X145189956Y-61702132D01*
X145014747Y-61877035D01*
X144919808Y-62105674D01*
X144919592Y-62353240D01*
X145014132Y-62582044D01*
X145135600Y-62703725D01*
X145135600Y-63345762D01*
X145053868Y-63147956D01*
X144878965Y-62972747D01*
X144650326Y-62877808D01*
X144402760Y-62877592D01*
X144173956Y-62972132D01*
X143998747Y-63147035D01*
X143903808Y-63375674D01*
X143903592Y-63623240D01*
X142392400Y-63623240D01*
X142392400Y-61560607D01*
X142513253Y-61439965D01*
X142608192Y-61211326D01*
X142608408Y-60963760D01*
X142513868Y-60734956D01*
X142338965Y-60559747D01*
X142110326Y-60464808D01*
X141862760Y-60464592D01*
X141633956Y-60559132D01*
X141458747Y-60734035D01*
X141363808Y-60962674D01*
X141363592Y-61210240D01*
X141458132Y-61439044D01*
X141579600Y-61560725D01*
X141579600Y-79726787D01*
X141567052Y-79696419D01*
X141285066Y-79413939D01*
X141122400Y-79346394D01*
X141122400Y-62449607D01*
X141243253Y-62328965D01*
X141338192Y-62100326D01*
X141338408Y-61852760D01*
X141243868Y-61623956D01*
X141068965Y-61448747D01*
X140840326Y-61353808D01*
X140592760Y-61353592D01*
X140363956Y-61448132D01*
X140188747Y-61623035D01*
X140093808Y-61851674D01*
X140093592Y-62099240D01*
X140188132Y-62328044D01*
X140309600Y-62449725D01*
X140309600Y-79346349D01*
X140148419Y-79412948D01*
X139865939Y-79694934D01*
X139712874Y-80063556D01*
X139712526Y-80462693D01*
X130149600Y-80462693D01*
X130149600Y-77332285D01*
X130175137Y-77342889D01*
X130427755Y-77343110D01*
X130661228Y-77246640D01*
X130840013Y-77068168D01*
X130936889Y-76834863D01*
X130937110Y-76582245D01*
X130840640Y-76348772D01*
X130662168Y-76169987D01*
X130428863Y-76073111D01*
X130176245Y-76072890D01*
X130149600Y-76083900D01*
X130149600Y-72769755D01*
X133730890Y-72769755D01*
X133827360Y-73003228D01*
X134005832Y-73182013D01*
X134239137Y-73278889D01*
X134491755Y-73279110D01*
X134725228Y-73182640D01*
X134904013Y-73004168D01*
X135000889Y-72770863D01*
X135001110Y-72518245D01*
X134904640Y-72284772D01*
X134726168Y-72105987D01*
X134492863Y-72009111D01*
X134240245Y-72008890D01*
X134006772Y-72105360D01*
X133827987Y-72283832D01*
X133731111Y-72517137D01*
X133730890Y-72769755D01*
X130149600Y-72769755D01*
X130149600Y-67179240D01*
X132219592Y-67179240D01*
X132314132Y-67408044D01*
X132489035Y-67583253D01*
X132717674Y-67678192D01*
X132965240Y-67678408D01*
X133194044Y-67583868D01*
X133369253Y-67408965D01*
X133464192Y-67180326D01*
X133464408Y-66932760D01*
X133369868Y-66703956D01*
X133194965Y-66528747D01*
X132966326Y-66433808D01*
X132718760Y-66433592D01*
X132489956Y-66528132D01*
X132314747Y-66703035D01*
X132219808Y-66931674D01*
X132219592Y-67179240D01*
X130149600Y-67179240D01*
X130149600Y-67045285D01*
X130175137Y-67055889D01*
X130427755Y-67056110D01*
X130661228Y-66959640D01*
X130840013Y-66781168D01*
X130936889Y-66547863D01*
X130937110Y-66295245D01*
X130840640Y-66061772D01*
X130662168Y-65882987D01*
X130428863Y-65786111D01*
X130176245Y-65785890D01*
X130149600Y-65796900D01*
X130149600Y-62482755D01*
X133730890Y-62482755D01*
X133827360Y-62716228D01*
X134005832Y-62895013D01*
X134239137Y-62991889D01*
X134491755Y-62992110D01*
X134725228Y-62895640D01*
X134904013Y-62717168D01*
X135000889Y-62483863D01*
X135001110Y-62231245D01*
X134904640Y-61997772D01*
X134726168Y-61818987D01*
X134492863Y-61722111D01*
X134240245Y-61721890D01*
X134006772Y-61818360D01*
X133827987Y-61996832D01*
X133731111Y-62230137D01*
X133730890Y-62482755D01*
X130149600Y-62482755D01*
X130149600Y-59381440D01*
X139864992Y-59381440D01*
X139959532Y-59610244D01*
X140134435Y-59785453D01*
X140363074Y-59880392D01*
X140610640Y-59880608D01*
X140839444Y-59786068D01*
X140961125Y-59664600D01*
X149098000Y-59664600D01*
X148942478Y-59695534D01*
X148810632Y-59783632D01*
X147494523Y-61099741D01*
X147323760Y-61099592D01*
X147094956Y-61194132D01*
X146919747Y-61369035D01*
X146824808Y-61597674D01*
X146824592Y-61845240D01*
X146919132Y-62074044D01*
X147094035Y-62249253D01*
X147200574Y-62293492D01*
X147094956Y-62337132D01*
X146919747Y-62512035D01*
X146824808Y-62740674D01*
X146824592Y-62988240D01*
X146919132Y-63217044D01*
X147094035Y-63392253D01*
X147322674Y-63487192D01*
X147570240Y-63487408D01*
X147799044Y-63392868D01*
X147920725Y-63271400D01*
X153323393Y-63271400D01*
X153444035Y-63392253D01*
X153672674Y-63487192D01*
X153920240Y-63487408D01*
X154149044Y-63392868D01*
X154324253Y-63217965D01*
X154419192Y-62989326D01*
X154419192Y-62988240D01*
X156095592Y-62988240D01*
X156190132Y-63217044D01*
X156365035Y-63392253D01*
X156593674Y-63487192D01*
X156841240Y-63487408D01*
X157070044Y-63392868D01*
X157191725Y-63271400D01*
X157641393Y-63271400D01*
X157762035Y-63392253D01*
X157990674Y-63487192D01*
X158238240Y-63487408D01*
X158467044Y-63392868D01*
X158642253Y-63217965D01*
X158737192Y-62989326D01*
X158737408Y-62741760D01*
X158642868Y-62512956D01*
X158591377Y-62461375D01*
X158634570Y-62474633D01*
X159077179Y-62432513D01*
X159290466Y-62344167D01*
X159331849Y-62138375D01*
X158750000Y-61556526D01*
X158735858Y-61570669D01*
X158520332Y-61355143D01*
X158534474Y-61341000D01*
X158965526Y-61341000D01*
X159547375Y-61922849D01*
X159753167Y-61881466D01*
X159883633Y-61456430D01*
X159841513Y-61013821D01*
X159753167Y-60800534D01*
X159547375Y-60759151D01*
X158965526Y-61341000D01*
X158534474Y-61341000D01*
X158520332Y-61326858D01*
X158735858Y-61111332D01*
X158750000Y-61125474D01*
X159048263Y-60827211D01*
X159209813Y-60760460D01*
X159438657Y-60532016D01*
X159562659Y-60233385D01*
X159562941Y-59910033D01*
X159439460Y-59611187D01*
X159264474Y-59435895D01*
X159438657Y-59262016D01*
X159562659Y-58963385D01*
X159562941Y-58640033D01*
X159439460Y-58341187D01*
X159264474Y-58165895D01*
X159438657Y-57992016D01*
X159562659Y-57693385D01*
X159562941Y-57370033D01*
X159439460Y-57071187D01*
X159264474Y-56895895D01*
X159438657Y-56722016D01*
X159562659Y-56423385D01*
X159562941Y-56100033D01*
X159439460Y-55801187D01*
X159211016Y-55572343D01*
X158912385Y-55448341D01*
X158589033Y-55448059D01*
X158290187Y-55571540D01*
X158114895Y-55746526D01*
X157941016Y-55572343D01*
X157642385Y-55448341D01*
X157319033Y-55448059D01*
X157020187Y-55571540D01*
X156791343Y-55799984D01*
X156667341Y-56098615D01*
X156667059Y-56421967D01*
X156790540Y-56720813D01*
X156965526Y-56896105D01*
X156791343Y-57069984D01*
X156667341Y-57368615D01*
X156667059Y-57691967D01*
X156790540Y-57990813D01*
X156965526Y-58166105D01*
X156791343Y-58339984D01*
X156667341Y-58638615D01*
X156667059Y-58961967D01*
X156790540Y-59260813D01*
X156965526Y-59436105D01*
X156791343Y-59609984D01*
X156667341Y-59908615D01*
X156667059Y-60231967D01*
X156790540Y-60530813D01*
X156825035Y-60565369D01*
X156755308Y-60610237D01*
X156685713Y-60712093D01*
X156661229Y-60833000D01*
X156661229Y-61849000D01*
X156682482Y-61961952D01*
X156749237Y-62065692D01*
X156851093Y-62135287D01*
X156972000Y-62159771D01*
X157960096Y-62159771D01*
X158042962Y-62242637D01*
X157991760Y-62242592D01*
X157762956Y-62337132D01*
X157641275Y-62458600D01*
X157191607Y-62458600D01*
X157070965Y-62337747D01*
X156842326Y-62242808D01*
X156594760Y-62242592D01*
X156365956Y-62337132D01*
X156190747Y-62512035D01*
X156095808Y-62740674D01*
X156095592Y-62988240D01*
X154419192Y-62988240D01*
X154419408Y-62741760D01*
X154324868Y-62512956D01*
X154149965Y-62337747D01*
X153921326Y-62242808D01*
X153673760Y-62242592D01*
X153444956Y-62337132D01*
X153323275Y-62458600D01*
X147920607Y-62458600D01*
X147799965Y-62337747D01*
X147693426Y-62293508D01*
X147799044Y-62249868D01*
X147974253Y-62074965D01*
X148069192Y-61846326D01*
X148069342Y-61674394D01*
X149266336Y-60477400D01*
X153239116Y-60477400D01*
X153269132Y-60550044D01*
X153444035Y-60725253D01*
X153672674Y-60820192D01*
X153920240Y-60820408D01*
X154149044Y-60725868D01*
X154324253Y-60550965D01*
X154419192Y-60322326D01*
X154419408Y-60074760D01*
X154324868Y-59845956D01*
X154194488Y-59715348D01*
X154298853Y-59611165D01*
X154393792Y-59382526D01*
X154394008Y-59134960D01*
X154299468Y-58906156D01*
X154124565Y-58730947D01*
X153895926Y-58636008D01*
X153648360Y-58635792D01*
X153419556Y-58730332D01*
X153297875Y-58851800D01*
X140961007Y-58851800D01*
X140840365Y-58730947D01*
X140611726Y-58636008D01*
X140364160Y-58635792D01*
X140135356Y-58730332D01*
X139960147Y-58905235D01*
X139865208Y-59133874D01*
X139864992Y-59381440D01*
X130149600Y-59381440D01*
X130149600Y-53695600D01*
X140106400Y-53695600D01*
X140106400Y-57912000D01*
X140106400Y-57912000D01*
G37*
X140106400Y-57912000D02*
X140114405Y-57951528D01*
X140137157Y-57984828D01*
X140171073Y-58006652D01*
X140208000Y-58013600D01*
X149860000Y-58013600D01*
X149899528Y-58005595D01*
X149932828Y-57982843D01*
X149954652Y-57948927D01*
X149961600Y-57912000D01*
X149961600Y-53695600D01*
X159918400Y-53695600D01*
X159918400Y-71956215D01*
X159892863Y-71945611D01*
X159640245Y-71945390D01*
X159406772Y-72041860D01*
X159227987Y-72220332D01*
X159131111Y-72453637D01*
X159130890Y-72706255D01*
X159227360Y-72939728D01*
X159405832Y-73118513D01*
X159639137Y-73215389D01*
X159891755Y-73215610D01*
X159918400Y-73204600D01*
X159918400Y-97180400D01*
X130149600Y-97180400D01*
X130149600Y-87408493D01*
X136322033Y-87408493D01*
X136449597Y-87686537D01*
X137128390Y-87933986D01*
X137850207Y-87902837D01*
X138111707Y-87794521D01*
X137832131Y-88073609D01*
X137541532Y-88773450D01*
X137540870Y-89531226D01*
X137830248Y-90231573D01*
X138365609Y-90767869D01*
X139065450Y-91058468D01*
X139823226Y-91059130D01*
X140523573Y-90769752D01*
X141059869Y-90234391D01*
X141350468Y-89534550D01*
X141350470Y-89531226D01*
X148970870Y-89531226D01*
X149260248Y-90231573D01*
X149795609Y-90767869D01*
X150495450Y-91058468D01*
X151253226Y-91059130D01*
X151953573Y-90769752D01*
X152489869Y-90234391D01*
X152780468Y-89534550D01*
X152781130Y-88776774D01*
X152491752Y-88076427D01*
X152190041Y-87774189D01*
X152628390Y-87933986D01*
X153350207Y-87902837D01*
X153872403Y-87686537D01*
X153999967Y-87408493D01*
X152911000Y-86319526D01*
X152896858Y-86333669D01*
X152681332Y-86118143D01*
X152695474Y-86104000D01*
X153126526Y-86104000D01*
X154215493Y-87192967D01*
X154493537Y-87065403D01*
X154740986Y-86386610D01*
X154709837Y-85664793D01*
X154493537Y-85142597D01*
X154215493Y-85015033D01*
X153126526Y-86104000D01*
X152695474Y-86104000D01*
X151606507Y-85015033D01*
X151328463Y-85142597D01*
X151081014Y-85821390D01*
X151112163Y-86543207D01*
X151328463Y-87065403D01*
X151606505Y-87192966D01*
X151495308Y-87304163D01*
X151571424Y-87380279D01*
X151256550Y-87249532D01*
X150498774Y-87248870D01*
X149798427Y-87538248D01*
X149262131Y-88073609D01*
X148971532Y-88773450D01*
X148970870Y-89531226D01*
X141350470Y-89531226D01*
X141351130Y-88776774D01*
X141061752Y-88076427D01*
X140526391Y-87540131D01*
X139826550Y-87249532D01*
X139068774Y-87248870D01*
X138750461Y-87380394D01*
X138826692Y-87304163D01*
X138715495Y-87192966D01*
X138993537Y-87065403D01*
X139240986Y-86386610D01*
X139209837Y-85664793D01*
X138993537Y-85142597D01*
X138715493Y-85015033D01*
X137626526Y-86104000D01*
X137640669Y-86118143D01*
X137425143Y-86333669D01*
X137411000Y-86319526D01*
X136322033Y-87408493D01*
X130149600Y-87408493D01*
X130149600Y-85821390D01*
X135581014Y-85821390D01*
X135612163Y-86543207D01*
X135828463Y-87065403D01*
X136106507Y-87192967D01*
X137195474Y-86104000D01*
X136106507Y-85015033D01*
X135828463Y-85142597D01*
X135581014Y-85821390D01*
X130149600Y-85821390D01*
X130149600Y-84799507D01*
X136322033Y-84799507D01*
X137411000Y-85888474D01*
X138499967Y-84799507D01*
X151822033Y-84799507D01*
X152911000Y-85888474D01*
X153999967Y-84799507D01*
X153872403Y-84521463D01*
X153193610Y-84274014D01*
X152471793Y-84305163D01*
X151949597Y-84521463D01*
X151822033Y-84799507D01*
X138499967Y-84799507D01*
X138372403Y-84521463D01*
X137693610Y-84274014D01*
X136971793Y-84305163D01*
X136449597Y-84521463D01*
X136322033Y-84799507D01*
X130149600Y-84799507D01*
X130149600Y-80462693D01*
X139712526Y-80462693D01*
X139864948Y-80831581D01*
X140146934Y-81114061D01*
X140515556Y-81267126D01*
X140914693Y-81267474D01*
X141283581Y-81115052D01*
X141566061Y-80833066D01*
X141579600Y-80800460D01*
X141579600Y-81886349D01*
X141418419Y-81952948D01*
X141135939Y-82234934D01*
X140982874Y-82603556D01*
X140982526Y-83002693D01*
X141134948Y-83371581D01*
X141416934Y-83654061D01*
X141785556Y-83807126D01*
X142184693Y-83807474D01*
X142553581Y-83655052D01*
X142836061Y-83373066D01*
X142989126Y-83004444D01*
X142989474Y-82605307D01*
X142837052Y-82236419D01*
X142555066Y-81953939D01*
X142392400Y-81886394D01*
X142392400Y-80801213D01*
X142404948Y-80831581D01*
X142686934Y-81114061D01*
X143055556Y-81267126D01*
X143454693Y-81267474D01*
X143823581Y-81115052D01*
X144106061Y-80833066D01*
X144119600Y-80800460D01*
X144119600Y-81026000D01*
X144150535Y-81181523D01*
X144162953Y-81200107D01*
X144238632Y-81313368D01*
X144726138Y-81800874D01*
X144327307Y-81800526D01*
X143958419Y-81952948D01*
X143675939Y-82234934D01*
X143522874Y-82603556D01*
X143522526Y-83002693D01*
X143674948Y-83371581D01*
X143956934Y-83654061D01*
X144325556Y-83807126D01*
X144724693Y-83807474D01*
X145093581Y-83655052D01*
X145376061Y-83373066D01*
X145529126Y-83004444D01*
X145529474Y-82605307D01*
X145528702Y-82603438D01*
X146016632Y-83091368D01*
X146130643Y-83167549D01*
X146214948Y-83371581D01*
X146496934Y-83654061D01*
X146865556Y-83807126D01*
X147264693Y-83807474D01*
X147633581Y-83655052D01*
X147916061Y-83373066D01*
X148069126Y-83004444D01*
X148069127Y-83002693D01*
X148602526Y-83002693D01*
X148754948Y-83371581D01*
X149036934Y-83654061D01*
X149405556Y-83807126D01*
X149804693Y-83807474D01*
X150173581Y-83655052D01*
X150456061Y-83373066D01*
X150609126Y-83004444D01*
X150609474Y-82605307D01*
X150457052Y-82236419D01*
X150175066Y-81953939D01*
X149806444Y-81800874D01*
X149407307Y-81800526D01*
X149038419Y-81952948D01*
X148755939Y-82234934D01*
X148602874Y-82603556D01*
X148602526Y-83002693D01*
X148069127Y-83002693D01*
X148069474Y-82605307D01*
X147917052Y-82236419D01*
X147635066Y-81953939D01*
X147266444Y-81800874D01*
X146867307Y-81800526D01*
X146498419Y-81952948D01*
X146262846Y-82188110D01*
X144932400Y-80857664D01*
X144932400Y-80801213D01*
X144944948Y-80831581D01*
X145226934Y-81114061D01*
X145595556Y-81267126D01*
X145994693Y-81267474D01*
X146157732Y-81200107D01*
X147615419Y-81200107D01*
X147680484Y-81425519D01*
X148174876Y-81587958D01*
X148693798Y-81548838D01*
X148991516Y-81425519D01*
X149056581Y-81200107D01*
X148336000Y-80479526D01*
X147615419Y-81200107D01*
X146157732Y-81200107D01*
X146363581Y-81115052D01*
X146646061Y-80833066D01*
X146799126Y-80464444D01*
X146799441Y-80102876D01*
X147012042Y-80102876D01*
X147051162Y-80621798D01*
X147174481Y-80919516D01*
X147399893Y-80984581D01*
X148120474Y-80264000D01*
X148551526Y-80264000D01*
X149272107Y-80984581D01*
X149497519Y-80919516D01*
X149659958Y-80425124D01*
X149620838Y-79906202D01*
X149497519Y-79608484D01*
X149272107Y-79543419D01*
X148551526Y-80264000D01*
X148120474Y-80264000D01*
X147399893Y-79543419D01*
X147174481Y-79608484D01*
X147012042Y-80102876D01*
X146799441Y-80102876D01*
X146799474Y-80065307D01*
X146647052Y-79696419D01*
X146365066Y-79413939D01*
X146157844Y-79327893D01*
X147615419Y-79327893D01*
X148336000Y-80048474D01*
X149056581Y-79327893D01*
X148991516Y-79102481D01*
X148497124Y-78940042D01*
X147978202Y-78979162D01*
X147680484Y-79102481D01*
X147615419Y-79327893D01*
X146157844Y-79327893D01*
X145996444Y-79260874D01*
X145597307Y-79260526D01*
X145228419Y-79412948D01*
X144945939Y-79694934D01*
X144932400Y-79727540D01*
X144932400Y-79248000D01*
X144901465Y-79092477D01*
X144813368Y-78960632D01*
X143953976Y-78101240D01*
X153682592Y-78101240D01*
X153777132Y-78330044D01*
X153952035Y-78505253D01*
X154180674Y-78600192D01*
X154428240Y-78600408D01*
X154657044Y-78505868D01*
X154778725Y-78384400D01*
X155101393Y-78384400D01*
X155222035Y-78505253D01*
X155450674Y-78600192D01*
X155698240Y-78600408D01*
X155927044Y-78505868D01*
X156102253Y-78330965D01*
X156197192Y-78102326D01*
X156197408Y-77854760D01*
X156102868Y-77625956D01*
X155927965Y-77450747D01*
X155699326Y-77355808D01*
X155451760Y-77355592D01*
X155222956Y-77450132D01*
X155101275Y-77571600D01*
X154778607Y-77571600D01*
X154657965Y-77450747D01*
X154429326Y-77355808D01*
X154181760Y-77355592D01*
X153952956Y-77450132D01*
X153777747Y-77625035D01*
X153682808Y-77853674D01*
X153682592Y-78101240D01*
X143953976Y-78101240D01*
X143878259Y-78025523D01*
X143878408Y-77854760D01*
X143783868Y-77625956D01*
X143608965Y-77450747D01*
X143380326Y-77355808D01*
X143132760Y-77355592D01*
X142903956Y-77450132D01*
X142728747Y-77625035D01*
X142633808Y-77853674D01*
X142633592Y-78101240D01*
X142728132Y-78330044D01*
X142903035Y-78505253D01*
X143131674Y-78600192D01*
X143303606Y-78600342D01*
X144119600Y-79416336D01*
X144119600Y-79726787D01*
X144107052Y-79696419D01*
X143825066Y-79413939D01*
X143456444Y-79260874D01*
X143057307Y-79260526D01*
X142688419Y-79412948D01*
X142405939Y-79694934D01*
X142392400Y-79727540D01*
X142392400Y-76770255D01*
X155066890Y-76770255D01*
X155163360Y-77003728D01*
X155341832Y-77182513D01*
X155575137Y-77279389D01*
X155827755Y-77279610D01*
X156061228Y-77183140D01*
X156240013Y-77004668D01*
X156336889Y-76771363D01*
X156337110Y-76518745D01*
X156240640Y-76285272D01*
X156062168Y-76106487D01*
X155828863Y-76009611D01*
X155576245Y-76009390D01*
X155342772Y-76105860D01*
X155163987Y-76284332D01*
X155067111Y-76517637D01*
X155066890Y-76770255D01*
X142392400Y-76770255D01*
X142392400Y-75307240D01*
X153682592Y-75307240D01*
X153777132Y-75536044D01*
X153952035Y-75711253D01*
X154180674Y-75806192D01*
X154428240Y-75806408D01*
X154657044Y-75711868D01*
X154778725Y-75590400D01*
X155228393Y-75590400D01*
X155349035Y-75711253D01*
X155577674Y-75806192D01*
X155825240Y-75806408D01*
X156054044Y-75711868D01*
X156229253Y-75536965D01*
X156324192Y-75308326D01*
X156324408Y-75060760D01*
X156229868Y-74831956D01*
X156054965Y-74656747D01*
X155826326Y-74561808D01*
X155578760Y-74561592D01*
X155349956Y-74656132D01*
X155228275Y-74777600D01*
X154778607Y-74777600D01*
X154657965Y-74656747D01*
X154429326Y-74561808D01*
X154181760Y-74561592D01*
X153952956Y-74656132D01*
X153777747Y-74831035D01*
X153682808Y-75059674D01*
X153682592Y-75307240D01*
X142392400Y-75307240D01*
X142392400Y-63623240D01*
X143903592Y-63623240D01*
X143998132Y-63852044D01*
X144119600Y-63973725D01*
X144119600Y-67090393D01*
X143998747Y-67211035D01*
X143903808Y-67439674D01*
X143903592Y-67687240D01*
X143998132Y-67916044D01*
X144173035Y-68091253D01*
X144401674Y-68186192D01*
X144649240Y-68186408D01*
X144878044Y-68091868D01*
X145053253Y-67916965D01*
X145148192Y-67688326D01*
X145148408Y-67440760D01*
X145053868Y-67211956D01*
X144932400Y-67090275D01*
X144932400Y-63973607D01*
X145053253Y-63852965D01*
X145135600Y-63654651D01*
X145135600Y-65659000D01*
X145166535Y-65814523D01*
X145211863Y-65882360D01*
X145254632Y-65946368D01*
X147713741Y-68405477D01*
X147713592Y-68576240D01*
X147808132Y-68805044D01*
X147983035Y-68980253D01*
X148211674Y-69075192D01*
X148459240Y-69075408D01*
X148688044Y-68980868D01*
X148863253Y-68805965D01*
X148958192Y-68577326D01*
X148958408Y-68329760D01*
X148863868Y-68100956D01*
X148688965Y-67925747D01*
X148460326Y-67830808D01*
X148288394Y-67830658D01*
X148144976Y-67687240D01*
X153682592Y-67687240D01*
X153777132Y-67916044D01*
X153952035Y-68091253D01*
X154180674Y-68186192D01*
X154428240Y-68186408D01*
X154657044Y-68091868D01*
X154778725Y-67970400D01*
X155101393Y-67970400D01*
X155222035Y-68091253D01*
X155450674Y-68186192D01*
X155698240Y-68186408D01*
X155927044Y-68091868D01*
X156102253Y-67916965D01*
X156197192Y-67688326D01*
X156197408Y-67440760D01*
X156102868Y-67211956D01*
X155927965Y-67036747D01*
X155699326Y-66941808D01*
X155451760Y-66941592D01*
X155222956Y-67036132D01*
X155101275Y-67157600D01*
X154778607Y-67157600D01*
X154657965Y-67036747D01*
X154429326Y-66941808D01*
X154181760Y-66941592D01*
X153952956Y-67036132D01*
X153777747Y-67211035D01*
X153682808Y-67439674D01*
X153682592Y-67687240D01*
X148144976Y-67687240D01*
X145948400Y-65490664D01*
X145948400Y-62703607D01*
X146069253Y-62582965D01*
X146164192Y-62354326D01*
X146164408Y-62106760D01*
X146069868Y-61877956D01*
X145894965Y-61702747D01*
X145666326Y-61607808D01*
X145418760Y-61607592D01*
X145189956Y-61702132D01*
X145014747Y-61877035D01*
X144919808Y-62105674D01*
X144919592Y-62353240D01*
X145014132Y-62582044D01*
X145135600Y-62703725D01*
X145135600Y-63345762D01*
X145053868Y-63147956D01*
X144878965Y-62972747D01*
X144650326Y-62877808D01*
X144402760Y-62877592D01*
X144173956Y-62972132D01*
X143998747Y-63147035D01*
X143903808Y-63375674D01*
X143903592Y-63623240D01*
X142392400Y-63623240D01*
X142392400Y-61560607D01*
X142513253Y-61439965D01*
X142608192Y-61211326D01*
X142608408Y-60963760D01*
X142513868Y-60734956D01*
X142338965Y-60559747D01*
X142110326Y-60464808D01*
X141862760Y-60464592D01*
X141633956Y-60559132D01*
X141458747Y-60734035D01*
X141363808Y-60962674D01*
X141363592Y-61210240D01*
X141458132Y-61439044D01*
X141579600Y-61560725D01*
X141579600Y-79726787D01*
X141567052Y-79696419D01*
X141285066Y-79413939D01*
X141122400Y-79346394D01*
X141122400Y-62449607D01*
X141243253Y-62328965D01*
X141338192Y-62100326D01*
X141338408Y-61852760D01*
X141243868Y-61623956D01*
X141068965Y-61448747D01*
X140840326Y-61353808D01*
X140592760Y-61353592D01*
X140363956Y-61448132D01*
X140188747Y-61623035D01*
X140093808Y-61851674D01*
X140093592Y-62099240D01*
X140188132Y-62328044D01*
X140309600Y-62449725D01*
X140309600Y-79346349D01*
X140148419Y-79412948D01*
X139865939Y-79694934D01*
X139712874Y-80063556D01*
X139712526Y-80462693D01*
X130149600Y-80462693D01*
X130149600Y-77332285D01*
X130175137Y-77342889D01*
X130427755Y-77343110D01*
X130661228Y-77246640D01*
X130840013Y-77068168D01*
X130936889Y-76834863D01*
X130937110Y-76582245D01*
X130840640Y-76348772D01*
X130662168Y-76169987D01*
X130428863Y-76073111D01*
X130176245Y-76072890D01*
X130149600Y-76083900D01*
X130149600Y-72769755D01*
X133730890Y-72769755D01*
X133827360Y-73003228D01*
X134005832Y-73182013D01*
X134239137Y-73278889D01*
X134491755Y-73279110D01*
X134725228Y-73182640D01*
X134904013Y-73004168D01*
X135000889Y-72770863D01*
X135001110Y-72518245D01*
X134904640Y-72284772D01*
X134726168Y-72105987D01*
X134492863Y-72009111D01*
X134240245Y-72008890D01*
X134006772Y-72105360D01*
X133827987Y-72283832D01*
X133731111Y-72517137D01*
X133730890Y-72769755D01*
X130149600Y-72769755D01*
X130149600Y-67179240D01*
X132219592Y-67179240D01*
X132314132Y-67408044D01*
X132489035Y-67583253D01*
X132717674Y-67678192D01*
X132965240Y-67678408D01*
X133194044Y-67583868D01*
X133369253Y-67408965D01*
X133464192Y-67180326D01*
X133464408Y-66932760D01*
X133369868Y-66703956D01*
X133194965Y-66528747D01*
X132966326Y-66433808D01*
X132718760Y-66433592D01*
X132489956Y-66528132D01*
X132314747Y-66703035D01*
X132219808Y-66931674D01*
X132219592Y-67179240D01*
X130149600Y-67179240D01*
X130149600Y-67045285D01*
X130175137Y-67055889D01*
X130427755Y-67056110D01*
X130661228Y-66959640D01*
X130840013Y-66781168D01*
X130936889Y-66547863D01*
X130937110Y-66295245D01*
X130840640Y-66061772D01*
X130662168Y-65882987D01*
X130428863Y-65786111D01*
X130176245Y-65785890D01*
X130149600Y-65796900D01*
X130149600Y-62482755D01*
X133730890Y-62482755D01*
X133827360Y-62716228D01*
X134005832Y-62895013D01*
X134239137Y-62991889D01*
X134491755Y-62992110D01*
X134725228Y-62895640D01*
X134904013Y-62717168D01*
X135000889Y-62483863D01*
X135001110Y-62231245D01*
X134904640Y-61997772D01*
X134726168Y-61818987D01*
X134492863Y-61722111D01*
X134240245Y-61721890D01*
X134006772Y-61818360D01*
X133827987Y-61996832D01*
X133731111Y-62230137D01*
X133730890Y-62482755D01*
X130149600Y-62482755D01*
X130149600Y-59381440D01*
X139864992Y-59381440D01*
X139959532Y-59610244D01*
X140134435Y-59785453D01*
X140363074Y-59880392D01*
X140610640Y-59880608D01*
X140839444Y-59786068D01*
X140961125Y-59664600D01*
X149098000Y-59664600D01*
X148942478Y-59695534D01*
X148810632Y-59783632D01*
X147494523Y-61099741D01*
X147323760Y-61099592D01*
X147094956Y-61194132D01*
X146919747Y-61369035D01*
X146824808Y-61597674D01*
X146824592Y-61845240D01*
X146919132Y-62074044D01*
X147094035Y-62249253D01*
X147200574Y-62293492D01*
X147094956Y-62337132D01*
X146919747Y-62512035D01*
X146824808Y-62740674D01*
X146824592Y-62988240D01*
X146919132Y-63217044D01*
X147094035Y-63392253D01*
X147322674Y-63487192D01*
X147570240Y-63487408D01*
X147799044Y-63392868D01*
X147920725Y-63271400D01*
X153323393Y-63271400D01*
X153444035Y-63392253D01*
X153672674Y-63487192D01*
X153920240Y-63487408D01*
X154149044Y-63392868D01*
X154324253Y-63217965D01*
X154419192Y-62989326D01*
X154419192Y-62988240D01*
X156095592Y-62988240D01*
X156190132Y-63217044D01*
X156365035Y-63392253D01*
X156593674Y-63487192D01*
X156841240Y-63487408D01*
X157070044Y-63392868D01*
X157191725Y-63271400D01*
X157641393Y-63271400D01*
X157762035Y-63392253D01*
X157990674Y-63487192D01*
X158238240Y-63487408D01*
X158467044Y-63392868D01*
X158642253Y-63217965D01*
X158737192Y-62989326D01*
X158737408Y-62741760D01*
X158642868Y-62512956D01*
X158591377Y-62461375D01*
X158634570Y-62474633D01*
X159077179Y-62432513D01*
X159290466Y-62344167D01*
X159331849Y-62138375D01*
X158750000Y-61556526D01*
X158735858Y-61570669D01*
X158520332Y-61355143D01*
X158534474Y-61341000D01*
X158965526Y-61341000D01*
X159547375Y-61922849D01*
X159753167Y-61881466D01*
X159883633Y-61456430D01*
X159841513Y-61013821D01*
X159753167Y-60800534D01*
X159547375Y-60759151D01*
X158965526Y-61341000D01*
X158534474Y-61341000D01*
X158520332Y-61326858D01*
X158735858Y-61111332D01*
X158750000Y-61125474D01*
X159048263Y-60827211D01*
X159209813Y-60760460D01*
X159438657Y-60532016D01*
X159562659Y-60233385D01*
X159562941Y-59910033D01*
X159439460Y-59611187D01*
X159264474Y-59435895D01*
X159438657Y-59262016D01*
X159562659Y-58963385D01*
X159562941Y-58640033D01*
X159439460Y-58341187D01*
X159264474Y-58165895D01*
X159438657Y-57992016D01*
X159562659Y-57693385D01*
X159562941Y-57370033D01*
X159439460Y-57071187D01*
X159264474Y-56895895D01*
X159438657Y-56722016D01*
X159562659Y-56423385D01*
X159562941Y-56100033D01*
X159439460Y-55801187D01*
X159211016Y-55572343D01*
X158912385Y-55448341D01*
X158589033Y-55448059D01*
X158290187Y-55571540D01*
X158114895Y-55746526D01*
X157941016Y-55572343D01*
X157642385Y-55448341D01*
X157319033Y-55448059D01*
X157020187Y-55571540D01*
X156791343Y-55799984D01*
X156667341Y-56098615D01*
X156667059Y-56421967D01*
X156790540Y-56720813D01*
X156965526Y-56896105D01*
X156791343Y-57069984D01*
X156667341Y-57368615D01*
X156667059Y-57691967D01*
X156790540Y-57990813D01*
X156965526Y-58166105D01*
X156791343Y-58339984D01*
X156667341Y-58638615D01*
X156667059Y-58961967D01*
X156790540Y-59260813D01*
X156965526Y-59436105D01*
X156791343Y-59609984D01*
X156667341Y-59908615D01*
X156667059Y-60231967D01*
X156790540Y-60530813D01*
X156825035Y-60565369D01*
X156755308Y-60610237D01*
X156685713Y-60712093D01*
X156661229Y-60833000D01*
X156661229Y-61849000D01*
X156682482Y-61961952D01*
X156749237Y-62065692D01*
X156851093Y-62135287D01*
X156972000Y-62159771D01*
X157960096Y-62159771D01*
X158042962Y-62242637D01*
X157991760Y-62242592D01*
X157762956Y-62337132D01*
X157641275Y-62458600D01*
X157191607Y-62458600D01*
X157070965Y-62337747D01*
X156842326Y-62242808D01*
X156594760Y-62242592D01*
X156365956Y-62337132D01*
X156190747Y-62512035D01*
X156095808Y-62740674D01*
X156095592Y-62988240D01*
X154419192Y-62988240D01*
X154419408Y-62741760D01*
X154324868Y-62512956D01*
X154149965Y-62337747D01*
X153921326Y-62242808D01*
X153673760Y-62242592D01*
X153444956Y-62337132D01*
X153323275Y-62458600D01*
X147920607Y-62458600D01*
X147799965Y-62337747D01*
X147693426Y-62293508D01*
X147799044Y-62249868D01*
X147974253Y-62074965D01*
X148069192Y-61846326D01*
X148069342Y-61674394D01*
X149266336Y-60477400D01*
X153239116Y-60477400D01*
X153269132Y-60550044D01*
X153444035Y-60725253D01*
X153672674Y-60820192D01*
X153920240Y-60820408D01*
X154149044Y-60725868D01*
X154324253Y-60550965D01*
X154419192Y-60322326D01*
X154419408Y-60074760D01*
X154324868Y-59845956D01*
X154194488Y-59715348D01*
X154298853Y-59611165D01*
X154393792Y-59382526D01*
X154394008Y-59134960D01*
X154299468Y-58906156D01*
X154124565Y-58730947D01*
X153895926Y-58636008D01*
X153648360Y-58635792D01*
X153419556Y-58730332D01*
X153297875Y-58851800D01*
X140961007Y-58851800D01*
X140840365Y-58730947D01*
X140611726Y-58636008D01*
X140364160Y-58635792D01*
X140135356Y-58730332D01*
X139960147Y-58905235D01*
X139865208Y-59133874D01*
X139864992Y-59381440D01*
X130149600Y-59381440D01*
X130149600Y-53695600D01*
X140106400Y-53695600D01*
X140106400Y-57912000D01*
M02*
